STARTFONT 2.1
FONT -FontForge-Upheaval Pro-Book-R-Normal--20-190-75-75-P-119-ISO10646-1
SIZE 19 75 75
FONTBOUNDINGBOX 22 21 -1 -4
COMMENT "Generated by fontforge, http://fontforge.sourceforge.net"
COMMENT "Copyright (c) 2012 by Aleksandr Savenkov. All rights reserved."
STARTPROPERTIES 39
FOUNDRY "FontForge"
FAMILY_NAME "Upheaval Pro"
WEIGHT_NAME "Book"
SLANT "R"
SETWIDTH_NAME "Normal"
ADD_STYLE_NAME ""
PIXEL_SIZE 20
POINT_SIZE 190
RESOLUTION_X 75
RESOLUTION_Y 75
SPACING "P"
AVERAGE_WIDTH 119
CHARSET_REGISTRY "ISO10646"
CHARSET_ENCODING "1"
FONTNAME_REGISTRY ""
CHARSET_COLLECTIONS "ISO8859-2 ISO8859-5 ISO8859-7 ISO8859-9 ISO8859-8 ISO8859-4 ISO10646-1"
FONT_NAME "UpheavalPro-Regular"
FACE_NAME "UpheavalPro"
COPYRIGHT "Copyright (c) 2012 by Aleksandr Savenkov. All rights reserved."
FONT_VERSION "1.100"
FONT_ASCENT 16
FONT_DESCENT 4
UNDERLINE_POSITION -2
UNDERLINE_THICKNESS 1
X_HEIGHT 9
CAP_HEIGHT 9
RAW_ASCENT 800
RAW_DESCENT 200
NORM_SPACE 5
RELATIVE_WEIGHT 40
RELATIVE_SETWIDTH 50
SUPERSCRIPT_X 0
SUPERSCRIPT_Y 7
SUPERSCRIPT_SIZE 12
SUBSCRIPT_X 0
SUBSCRIPT_Y 1
SUBSCRIPT_SIZE 12
AVG_LOWERCASE_WIDTH 125
AVG_UPPERCASE_WIDTH 126
ENDPROPERTIES
CHARS 1110
STARTCHAR space
ENCODING 32
SWIDTH 250 0
DWIDTH 5 0
BBX 1 1 0 0
BITMAP
00
ENDCHAR
STARTCHAR exclam
ENCODING 33
SWIDTH 250 0
DWIDTH 5 0
BBX 4 10 0 0
BITMAP
F0
F0
F0
F0
F0
F0
F0
00
F0
F0
ENDCHAR
STARTCHAR quotedbl
ENCODING 34
SWIDTH 400 0
DWIDTH 8 0
BBX 7 2 0 8
BITMAP
EE
EE
ENDCHAR
STARTCHAR numbersign
ENCODING 35
SWIDTH 600 0
DWIDTH 12 0
BBX 11 10 0 0
BITMAP
7BC0
7BC0
FFE0
FFE0
7BC0
7BC0
FFE0
FFE0
7BC0
7BC0
ENDCHAR
STARTCHAR dollar
ENCODING 36
SWIDTH 600 0
DWIDTH 12 0
BBX 11 12 0 -1
BITMAP
0E00
7FE0
FFE0
F000
F000
FFC0
7FE0
01E0
01E0
FFE0
FFC0
0E00
ENDCHAR
STARTCHAR percent
ENCODING 37
SWIDTH 650 0
DWIDTH 13 0
BBX 12 10 0 0
BITMAP
60F0
F1F0
F3E0
67C0
0F80
1F00
3E60
7CF0
F8F0
F060
ENDCHAR
STARTCHAR ampersand
ENCODING 38
SWIDTH 600 0
DWIDTH 12 0
BBX 11 12 0 -1
BITMAP
0E00
7FE0
FFE0
F000
F000
FE00
FE00
F000
F000
FFE0
7FE0
0E00
ENDCHAR
STARTCHAR quoteright
ENCODING 39
SWIDTH 250 0
DWIDTH 5 0
BBX 4 4 0 6
BITMAP
F0
F0
30
30
ENDCHAR
STARTCHAR parenleft
ENCODING 40
SWIDTH 400 0
DWIDTH 8 0
BBX 7 10 0 0
BITMAP
7E
FE
F0
F0
F0
F0
F0
F0
FE
7E
ENDCHAR
STARTCHAR parenright
ENCODING 41
SWIDTH 400 0
DWIDTH 8 0
BBX 7 10 0 0
BITMAP
FC
FE
1E
1E
1E
1E
1E
1E
FE
FC
ENDCHAR
STARTCHAR asterisk
ENCODING 42
SWIDTH 500 0
DWIDTH 10 0
BBX 9 7 0 3
BITMAP
0800
DD80
FF80
7F00
3E00
7700
6300
ENDCHAR
STARTCHAR plus
ENCODING 43
SWIDTH 600 0
DWIDTH 12 0
BBX 11 6 0 2
BITMAP
0E00
0E00
FFE0
FFE0
0E00
0E00
ENDCHAR
STARTCHAR comma
ENCODING 44
SWIDTH 200 0
DWIDTH 4 0
BBX 3 4 0 -2
BITMAP
E0
E0
E0
E0
ENDCHAR
STARTCHAR hyphen
ENCODING 45
SWIDTH 600 0
DWIDTH 12 0
BBX 11 2 0 4
BITMAP
FFE0
FFE0
ENDCHAR
STARTCHAR period
ENCODING 46
SWIDTH 200 0
DWIDTH 4 0
BBX 3 2 0 0
BITMAP
E0
E0
ENDCHAR
STARTCHAR slash
ENCODING 47
SWIDTH 650 0
DWIDTH 13 0
BBX 12 10 0 0
BITMAP
00F0
01F0
03E0
07C0
0F80
1F00
3E00
7C00
F800
F000
ENDCHAR
STARTCHAR zero
ENCODING 48
SWIDTH 600 0
DWIDTH 12 0
BBX 11 10 0 0
BITMAP
7FC0
FFE0
F1E0
F1E0
F1E0
F1E0
F1E0
F1E0
FFE0
7FC0
ENDCHAR
STARTCHAR one
ENCODING 49
SWIDTH 250 0
DWIDTH 5 0
BBX 4 10 0 0
BITMAP
F0
F0
F0
F0
F0
F0
F0
F0
F0
F0
ENDCHAR
STARTCHAR two
ENCODING 50
SWIDTH 600 0
DWIDTH 12 0
BBX 11 10 0 0
BITMAP
FFC0
FFE0
01E0
01E0
7FE0
FFC0
F000
F000
FFE0
FFE0
ENDCHAR
STARTCHAR three
ENCODING 51
SWIDTH 600 0
DWIDTH 12 0
BBX 11 10 0 0
BITMAP
FFC0
FFE0
01E0
01E0
0FC0
0FC0
01E0
01E0
FFE0
FFC0
ENDCHAR
STARTCHAR four
ENCODING 52
SWIDTH 600 0
DWIDTH 12 0
BBX 11 10 0 0
BITMAP
F1E0
F1E0
F1E0
F1E0
FFE0
7FE0
01E0
01E0
01E0
01E0
ENDCHAR
STARTCHAR five
ENCODING 53
SWIDTH 600 0
DWIDTH 12 0
BBX 11 10 0 0
BITMAP
FFE0
FFE0
F000
F000
FFC0
7FE0
01E0
01E0
FFE0
FFC0
ENDCHAR
STARTCHAR six
ENCODING 54
SWIDTH 600 0
DWIDTH 12 0
BBX 11 10 0 0
BITMAP
7FE0
FFE0
F000
F000
FFC0
FFE0
F1E0
F1E0
FFE0
7FC0
ENDCHAR
STARTCHAR seven
ENCODING 55
SWIDTH 600 0
DWIDTH 12 0
BBX 11 10 0 0
BITMAP
FFE0
FFE0
03E0
07C0
0F80
1F00
3E00
7C00
F800
F000
ENDCHAR
STARTCHAR eight
ENCODING 56
SWIDTH 600 0
DWIDTH 12 0
BBX 11 10 0 0
BITMAP
7FC0
FFE0
F1E0
F1E0
7FC0
7FC0
F1E0
F1E0
FFE0
7FC0
ENDCHAR
STARTCHAR nine
ENCODING 57
SWIDTH 600 0
DWIDTH 12 0
BBX 11 10 0 0
BITMAP
7FC0
FFE0
F1E0
F1E0
FFE0
7FE0
01E0
01E0
01E0
01E0
ENDCHAR
STARTCHAR colon
ENCODING 58
SWIDTH 200 0
DWIDTH 4 0
BBX 3 10 0 0
BITMAP
E0
E0
00
00
00
00
00
00
E0
E0
ENDCHAR
STARTCHAR semicolon
ENCODING 59
SWIDTH 200 0
DWIDTH 4 0
BBX 3 12 0 -2
BITMAP
E0
E0
00
00
00
00
00
00
E0
E0
E0
E0
ENDCHAR
STARTCHAR less
ENCODING 60
SWIDTH 450 0
DWIDTH 9 0
BBX 8 10 0 0
BITMAP
0F
1F
3E
7C
F8
F8
7C
3E
1F
0F
ENDCHAR
STARTCHAR equal
ENCODING 61
SWIDTH 600 0
DWIDTH 12 0
BBX 11 6 0 2
BITMAP
FFE0
FFE0
0000
0000
FFE0
FFE0
ENDCHAR
STARTCHAR greater
ENCODING 62
SWIDTH 450 0
DWIDTH 9 0
BBX 8 10 0 0
BITMAP
F0
F8
7C
3E
1F
1F
3E
7C
F8
F0
ENDCHAR
STARTCHAR question
ENCODING 63
SWIDTH 600 0
DWIDTH 12 0
BBX 11 10 0 0
BITMAP
7FC0
FFE0
F1E0
F1E0
07E0
0FC0
0E00
0000
0E00
0E00
ENDCHAR
STARTCHAR at
ENCODING 64
SWIDTH 700 0
DWIDTH 14 0
BBX 13 10 0 0
BITMAP
7FF0
FFF8
F078
F778
F578
F578
F7F0
F000
FFF8
7FF0
ENDCHAR
STARTCHAR A
ENCODING 65
SWIDTH 600 0
DWIDTH 12 0
BBX 11 10 0 0
BITMAP
7FC0
FFE0
F1E0
F1E0
FFE0
FFE0
F1E0
F1E0
F1E0
F1E0
ENDCHAR
STARTCHAR B
ENCODING 66
SWIDTH 600 0
DWIDTH 12 0
BBX 11 10 0 0
BITMAP
FFC0
FFE0
F1E0
F1E0
FFC0
FFC0
F1E0
F1E0
FFE0
FFC0
ENDCHAR
STARTCHAR C
ENCODING 67
SWIDTH 600 0
DWIDTH 12 0
BBX 11 10 0 0
BITMAP
7FC0
FFE0
F1E0
F1E0
F000
F000
F1E0
F1E0
FFE0
7FC0
ENDCHAR
STARTCHAR D
ENCODING 68
SWIDTH 600 0
DWIDTH 12 0
BBX 11 10 0 0
BITMAP
FF80
FFC0
F3E0
F1E0
F1E0
F1E0
F1E0
F3E0
FFC0
FF80
ENDCHAR
STARTCHAR E
ENCODING 69
SWIDTH 600 0
DWIDTH 12 0
BBX 11 10 0 0
BITMAP
7FE0
FFE0
F000
F000
FE00
FE00
F000
F000
FFE0
7FE0
ENDCHAR
STARTCHAR F
ENCODING 70
SWIDTH 600 0
DWIDTH 12 0
BBX 11 10 0 0
BITMAP
7FE0
FFE0
F000
F000
FE00
FE00
F000
F000
F000
F000
ENDCHAR
STARTCHAR G
ENCODING 71
SWIDTH 600 0
DWIDTH 12 0
BBX 11 10 0 0
BITMAP
7FE0
FFE0
F000
F000
F7C0
F7E0
F1E0
F1E0
FFE0
7FC0
ENDCHAR
STARTCHAR H
ENCODING 72
SWIDTH 600 0
DWIDTH 12 0
BBX 11 10 0 0
BITMAP
F1E0
F1E0
F1E0
F1E0
FFE0
FFE0
F1E0
F1E0
F1E0
F1E0
ENDCHAR
STARTCHAR I
ENCODING 73
SWIDTH 550 0
DWIDTH 11 0
BBX 10 10 0 0
BITMAP
FFC0
FFC0
1E00
1E00
1E00
1E00
1E00
1E00
FFC0
FFC0
ENDCHAR
STARTCHAR J
ENCODING 74
SWIDTH 600 0
DWIDTH 12 0
BBX 11 10 0 0
BITMAP
01E0
01E0
01E0
01E0
01E0
01E0
F1E0
F1E0
FFE0
7FC0
ENDCHAR
STARTCHAR K
ENCODING 75
SWIDTH 600 0
DWIDTH 12 0
BBX 11 10 0 0
BITMAP
F1E0
F3E0
F7C0
FF80
FF00
FF00
FF80
F7C0
F3E0
F1E0
ENDCHAR
STARTCHAR L
ENCODING 76
SWIDTH 600 0
DWIDTH 12 0
BBX 11 10 0 0
BITMAP
F000
F000
F000
F000
F000
F000
F000
F000
FFE0
FFE0
ENDCHAR
STARTCHAR M
ENCODING 77
SWIDTH 700 0
DWIDTH 14 0
BBX 13 10 0 0
BITMAP
F078
F8F8
FDF8
FFF8
FFF8
F778
F278
F078
F078
F078
ENDCHAR
STARTCHAR N
ENCODING 78
SWIDTH 600 0
DWIDTH 12 0
BBX 11 10 0 0
BITMAP
F1E0
F9E0
FDE0
FFE0
FFE0
F7E0
F3E0
F1E0
F1E0
F1E0
ENDCHAR
STARTCHAR O
ENCODING 79
SWIDTH 600 0
DWIDTH 12 0
BBX 11 10 0 0
BITMAP
7FC0
FFE0
F1E0
F1E0
F1E0
F1E0
F1E0
F1E0
FFE0
7FC0
ENDCHAR
STARTCHAR P
ENCODING 80
SWIDTH 600 0
DWIDTH 12 0
BBX 11 10 0 0
BITMAP
FFC0
FFE0
F1E0
F1E0
FFE0
FFC0
F000
F000
F000
F000
ENDCHAR
STARTCHAR Q
ENCODING 81
SWIDTH 600 0
DWIDTH 12 0
BBX 11 12 0 -2
BITMAP
7FC0
FFE0
F1E0
F1E0
F1E0
F1E0
F1E0
F1E0
FFE0
7FC0
0E00
0E00
ENDCHAR
STARTCHAR R
ENCODING 82
SWIDTH 600 0
DWIDTH 12 0
BBX 11 10 0 0
BITMAP
FFC0
FFE0
F1E0
F1E0
FFC0
FFC0
F1E0
F1E0
F1E0
F1E0
ENDCHAR
STARTCHAR S
ENCODING 83
SWIDTH 600 0
DWIDTH 12 0
BBX 11 10 0 0
BITMAP
7FE0
FFE0
F000
F000
FFC0
7FE0
01E0
01E0
FFE0
FFC0
ENDCHAR
STARTCHAR T
ENCODING 84
SWIDTH 550 0
DWIDTH 11 0
BBX 10 10 0 0
BITMAP
FFC0
FFC0
1E00
1E00
1E00
1E00
1E00
1E00
1E00
1E00
ENDCHAR
STARTCHAR U
ENCODING 85
SWIDTH 600 0
DWIDTH 12 0
BBX 11 10 0 0
BITMAP
F1E0
F1E0
F1E0
F1E0
F1E0
F1E0
F1E0
F1E0
FFE0
7FC0
ENDCHAR
STARTCHAR V
ENCODING 86
SWIDTH 600 0
DWIDTH 12 0
BBX 11 10 0 0
BITMAP
F1E0
F1E0
F1E0
F1E0
F1E0
F3E0
F7C0
FF80
FF00
FE00
ENDCHAR
STARTCHAR W
ENCODING 87
SWIDTH 700 0
DWIDTH 14 0
BBX 13 10 0 0
BITMAP
F078
F078
F078
F278
F778
FFF8
FFF8
FDF8
F8F8
F078
ENDCHAR
STARTCHAR X
ENCODING 88
SWIDTH 600 0
DWIDTH 12 0
BBX 11 10 0 0
BITMAP
E0E0
F1E0
FBE0
7FC0
3F80
3F80
7FC0
FBE0
F1E0
E0E0
ENDCHAR
STARTCHAR Y
ENCODING 89
SWIDTH 650 0
DWIDTH 13 0
BBX 12 10 0 0
BITMAP
F0F0
F0F0
F0F0
F9F0
7FE0
3FC0
0F00
0F00
0F00
0F00
ENDCHAR
STARTCHAR Z
ENCODING 90
SWIDTH 600 0
DWIDTH 12 0
BBX 11 10 0 0
BITMAP
FFE0
FFE0
03E0
07C0
0F80
1F00
3E00
7C00
FFE0
FFE0
ENDCHAR
STARTCHAR bracketleft
ENCODING 91
SWIDTH 400 0
DWIDTH 8 0
BBX 7 10 0 0
BITMAP
FE
FE
F0
F0
F0
F0
F0
F0
FE
FE
ENDCHAR
STARTCHAR backslash
ENCODING 92
SWIDTH 650 0
DWIDTH 13 0
BBX 12 10 0 0
BITMAP
F000
F800
7C00
3E00
1F00
0F80
07C0
03E0
01F0
00F0
ENDCHAR
STARTCHAR bracketright
ENCODING 93
SWIDTH 400 0
DWIDTH 8 0
BBX 7 10 0 0
BITMAP
FE
FE
1E
1E
1E
1E
1E
1E
FE
FE
ENDCHAR
STARTCHAR asciicircum
ENCODING 94
SWIDTH 500 0
DWIDTH 10 0
BBX 9 5 0 5
BITMAP
1C00
3E00
7F00
F780
E380
ENDCHAR
STARTCHAR underscore
ENCODING 95
SWIDTH 600 0
DWIDTH 12 0
BBX 11 2 0 -3
BITMAP
FFE0
FFE0
ENDCHAR
STARTCHAR quoteleft.001
ENCODING 96
SWIDTH 600 0
DWIDTH 12 0
BBX 4 4 3 11
BITMAP
C0
E0
70
30
ENDCHAR
STARTCHAR a
ENCODING 97
SWIDTH 600 0
DWIDTH 12 0
BBX 11 10 0 0
BITMAP
7FC0
FFE0
F1E0
F1E0
FFE0
FFE0
F1E0
F1E0
F1E0
F1E0
ENDCHAR
STARTCHAR b
ENCODING 98
SWIDTH 600 0
DWIDTH 12 0
BBX 11 10 0 0
BITMAP
FFC0
FFE0
F1E0
F1E0
FFC0
FFC0
F1E0
F1E0
FFE0
FFC0
ENDCHAR
STARTCHAR c
ENCODING 99
SWIDTH 600 0
DWIDTH 12 0
BBX 11 10 0 0
BITMAP
7FC0
FFE0
F1E0
F1E0
F000
F000
F1E0
F1E0
FFE0
7FC0
ENDCHAR
STARTCHAR d
ENCODING 100
SWIDTH 600 0
DWIDTH 12 0
BBX 11 10 0 0
BITMAP
FF80
FFC0
F3E0
F1E0
F1E0
F1E0
F1E0
F3E0
FFC0
FF80
ENDCHAR
STARTCHAR e
ENCODING 101
SWIDTH 600 0
DWIDTH 12 0
BBX 11 10 0 0
BITMAP
7FE0
FFE0
F000
F000
FE00
FE00
F000
F000
FFE0
7FE0
ENDCHAR
STARTCHAR f
ENCODING 102
SWIDTH 600 0
DWIDTH 12 0
BBX 11 10 0 0
BITMAP
7FE0
FFE0
F000
F000
FE00
FE00
F000
F000
F000
F000
ENDCHAR
STARTCHAR g
ENCODING 103
SWIDTH 600 0
DWIDTH 12 0
BBX 11 10 0 0
BITMAP
7FE0
FFE0
F000
F000
F7C0
F7E0
F1E0
F1E0
FFE0
7FC0
ENDCHAR
STARTCHAR h
ENCODING 104
SWIDTH 600 0
DWIDTH 12 0
BBX 11 10 0 0
BITMAP
F1E0
F1E0
F1E0
F1E0
FFE0
FFE0
F1E0
F1E0
F1E0
F1E0
ENDCHAR
STARTCHAR i
ENCODING 105
SWIDTH 550 0
DWIDTH 11 0
BBX 10 10 0 0
BITMAP
FFC0
FFC0
1E00
1E00
1E00
1E00
1E00
1E00
FFC0
FFC0
ENDCHAR
STARTCHAR j
ENCODING 106
SWIDTH 600 0
DWIDTH 12 0
BBX 11 10 0 0
BITMAP
01E0
01E0
01E0
01E0
01E0
01E0
F1E0
F1E0
FFE0
7FC0
ENDCHAR
STARTCHAR k
ENCODING 107
SWIDTH 600 0
DWIDTH 12 0
BBX 11 10 0 0
BITMAP
F1E0
F3E0
F7C0
FF80
FF00
FF00
FF80
F7C0
F3E0
F1E0
ENDCHAR
STARTCHAR l
ENCODING 108
SWIDTH 600 0
DWIDTH 12 0
BBX 11 10 0 0
BITMAP
F000
F000
F000
F000
F000
F000
F000
F000
FFE0
FFE0
ENDCHAR
STARTCHAR m
ENCODING 109
SWIDTH 700 0
DWIDTH 14 0
BBX 13 10 0 0
BITMAP
F078
F8F8
FDF8
FFF8
FFF8
F778
F278
F078
F078
F078
ENDCHAR
STARTCHAR n
ENCODING 110
SWIDTH 600 0
DWIDTH 12 0
BBX 11 10 0 0
BITMAP
F1E0
F9E0
FDE0
FFE0
FFE0
F7E0
F3E0
F1E0
F1E0
F1E0
ENDCHAR
STARTCHAR o
ENCODING 111
SWIDTH 600 0
DWIDTH 12 0
BBX 11 10 0 0
BITMAP
7FC0
FFE0
F1E0
F1E0
F1E0
F1E0
F1E0
F1E0
FFE0
7FC0
ENDCHAR
STARTCHAR p
ENCODING 112
SWIDTH 600 0
DWIDTH 12 0
BBX 11 10 0 0
BITMAP
FFC0
FFE0
F1E0
F1E0
FFE0
FFC0
F000
F000
F000
F000
ENDCHAR
STARTCHAR q
ENCODING 113
SWIDTH 600 0
DWIDTH 12 0
BBX 11 12 0 -2
BITMAP
7FC0
FFE0
F1E0
F1E0
F1E0
F1E0
F1E0
F1E0
FFE0
7FC0
0E00
0E00
ENDCHAR
STARTCHAR r
ENCODING 114
SWIDTH 600 0
DWIDTH 12 0
BBX 11 10 0 0
BITMAP
FFC0
FFE0
F1E0
F1E0
FFC0
FFC0
F1E0
F1E0
F1E0
F1E0
ENDCHAR
STARTCHAR s
ENCODING 115
SWIDTH 600 0
DWIDTH 12 0
BBX 11 10 0 0
BITMAP
7FE0
FFE0
F000
F000
FFC0
7FE0
01E0
01E0
FFE0
FFC0
ENDCHAR
STARTCHAR t
ENCODING 116
SWIDTH 550 0
DWIDTH 11 0
BBX 10 10 0 0
BITMAP
FFC0
FFC0
1E00
1E00
1E00
1E00
1E00
1E00
1E00
1E00
ENDCHAR
STARTCHAR u
ENCODING 117
SWIDTH 600 0
DWIDTH 12 0
BBX 11 10 0 0
BITMAP
F1E0
F1E0
F1E0
F1E0
F1E0
F1E0
F1E0
F1E0
FFE0
7FC0
ENDCHAR
STARTCHAR v
ENCODING 118
SWIDTH 600 0
DWIDTH 12 0
BBX 11 10 0 0
BITMAP
F1E0
F1E0
F1E0
F1E0
F1E0
F3E0
F7C0
FF80
FF00
FE00
ENDCHAR
STARTCHAR w
ENCODING 119
SWIDTH 700 0
DWIDTH 14 0
BBX 13 10 0 0
BITMAP
F078
F078
F078
F278
F778
FFF8
FFF8
FDF8
F8F8
F078
ENDCHAR
STARTCHAR x
ENCODING 120
SWIDTH 600 0
DWIDTH 12 0
BBX 11 10 0 0
BITMAP
E0E0
F1E0
FBE0
7FC0
3F80
3F80
7FC0
FBE0
F1E0
E0E0
ENDCHAR
STARTCHAR y
ENCODING 121
SWIDTH 650 0
DWIDTH 13 0
BBX 12 10 0 0
BITMAP
F0F0
F0F0
F0F0
F9F0
7FE0
3FC0
0F00
0F00
0F00
0F00
ENDCHAR
STARTCHAR z
ENCODING 122
SWIDTH 600 0
DWIDTH 12 0
BBX 11 10 0 0
BITMAP
FFE0
FFE0
03E0
07C0
0F80
1F00
3E00
7C00
FFE0
FFE0
ENDCHAR
STARTCHAR braceleft
ENCODING 123
SWIDTH 450 0
DWIDTH 9 0
BBX 8 10 0 0
BITMAP
3F
7F
78
78
F0
F0
78
78
7F
3F
ENDCHAR
STARTCHAR bar
ENCODING 124
SWIDTH 200 0
DWIDTH 4 0
BBX 3 12 0 -1
BITMAP
E0
E0
E0
E0
E0
E0
E0
E0
E0
E0
E0
E0
ENDCHAR
STARTCHAR braceright
ENCODING 125
SWIDTH 450 0
DWIDTH 9 0
BBX 8 10 0 0
BITMAP
FC
FE
1E
1E
0F
0F
1E
1E
FE
FC
ENDCHAR
STARTCHAR asciitilde
ENCODING 126
SWIDTH 750 0
DWIDTH 15 0
BBX 14 6 0 2
BITMAP
3E3C
7F3C
FFBC
F7FC
F3F8
F1F0
ENDCHAR
STARTCHAR exclamdown
ENCODING 161
SWIDTH 250 0
DWIDTH 5 0
BBX 4 10 0 0
BITMAP
F0
F0
00
F0
F0
F0
F0
F0
F0
F0
ENDCHAR
STARTCHAR cent
ENCODING 162
SWIDTH 600 0
DWIDTH 12 0
BBX 11 14 0 -2
BITMAP
0E00
0E00
7FC0
FFE0
F1E0
F1E0
F000
F000
F1E0
F1E0
FFE0
7FC0
0E00
0E00
ENDCHAR
STARTCHAR sterling
ENCODING 163
SWIDTH 650 0
DWIDTH 13 0
BBX 12 10 0 0
BITMAP
1FE0
3FF0
7CF0
7860
FC00
FC00
7800
78F0
FFF0
FFC0
ENDCHAR
STARTCHAR currency
ENCODING 164
SWIDTH 500 0
DWIDTH 11 0
BBX 10 10 0 0
BITMAP
C0C0
DEC0
3F00
7F80
7380
7380
7F80
3F00
DEC0
C0C0
ENDCHAR
STARTCHAR yen
ENCODING 165
SWIDTH 650 0
DWIDTH 13 0
BBX 12 10 0 0
BITMAP
F0F0
F0F0
F0F0
F9F0
7FE0
3FC0
0F00
7FE0
7FE0
0F00
ENDCHAR
STARTCHAR brokenbar
ENCODING 166
SWIDTH 200 0
DWIDTH 4 0
BBX 3 12 0 -1
BITMAP
E0
E0
E0
E0
E0
00
00
E0
E0
E0
E0
E0
ENDCHAR
STARTCHAR section
ENCODING 167
SWIDTH 600 0
DWIDTH 12 0
BBX 11 14 0 -2
BITMAP
7FE0
FFE0
F000
F000
FFC0
FFE0
F1E0
F1E0
FFE0
7FE0
01E0
01E0
FFE0
FFC0
ENDCHAR
STARTCHAR dieresis
ENCODING 168
SWIDTH 600 0
DWIDTH 12 0
BBX 9 3 1 12
BITMAP
E380
E380
E380
ENDCHAR
STARTCHAR copyright
ENCODING 169
SWIDTH 750 0
DWIDTH 15 0
BBX 14 10 0 0
BITMAP
7FF8
FFFC
F03C
F3BC
F63C
F63C
F3BC
F03C
FFFC
7FF8
ENDCHAR
STARTCHAR ordfeminine
ENCODING 170
SWIDTH 350 0
DWIDTH 7 0
BBX 6 5 0 5
BITMAP
FC
0C
FC
CC
FC
ENDCHAR
STARTCHAR guillemotleft
ENCODING 171
SWIDTH 550 0
DWIDTH 11 0
BBX 10 8 0 1
BITMAP
18C0
39C0
7380
E700
E700
7380
39C0
18C0
ENDCHAR
STARTCHAR logicalnot
ENCODING 172
SWIDTH 400 0
DWIDTH 8 0
BBX 7 4 0 2
BITMAP
FE
FE
0E
0E
ENDCHAR
STARTCHAR sfthyphen
ENCODING 173
SWIDTH 250 0
DWIDTH 5 0
BBX 4 2 0 4
BITMAP
F0
F0
ENDCHAR
STARTCHAR registered
ENCODING 174
SWIDTH 750 0
DWIDTH 15 0
BBX 14 10 0 0
BITMAP
7FF8
FFFC
F03C
F7BC
F6BC
F73C
F6BC
F03C
FFFC
7FF8
ENDCHAR
STARTCHAR macron
ENCODING 175
SWIDTH 600 0
DWIDTH 12 0
BBX 11 2 0 11
BITMAP
FFE0
FFE0
ENDCHAR
STARTCHAR degree
ENCODING 176
SWIDTH 600 0
DWIDTH 12 0
BBX 7 4 2 11
BITMAP
FE
C6
C6
FE
ENDCHAR
STARTCHAR plusminus
ENCODING 177
SWIDTH 600 0
DWIDTH 12 0
BBX 11 10 0 0
BITMAP
0E00
0E00
FFE0
FFE0
0E00
0E00
0000
0000
FFE0
FFE0
ENDCHAR
STARTCHAR twosuperior
ENCODING 178
SWIDTH 350 0
DWIDTH 7 0
BBX 6 5 0 5
BITMAP
FC
0C
FC
C0
FC
ENDCHAR
STARTCHAR threesuperior
ENCODING 179
SWIDTH 350 0
DWIDTH 7 0
BBX 6 5 0 5
BITMAP
FC
0C
FC
0C
FC
ENDCHAR
STARTCHAR acute
ENCODING 180
SWIDTH 600 0
DWIDTH 12 0
BBX 4 4 4 11
BITMAP
30
70
E0
C0
ENDCHAR
STARTCHAR mu
ENCODING 181
SWIDTH 600 0
DWIDTH 12 0
BBX 11 12 0 -2
BITMAP
F1E0
F1E0
F1E0
F1E0
F1E0
F1E0
F1E0
F1E0
FFE0
FFC0
F000
F000
ENDCHAR
STARTCHAR paragraph
ENCODING 182
SWIDTH 450 0
DWIDTH 9 0
BBX 8 10 0 0
BITMAP
7F
FF
F6
F6
F6
76
36
36
36
36
ENDCHAR
STARTCHAR periodcentered
ENCODING 183
SWIDTH 250 0
DWIDTH 5 0
BBX 4 4 0 3
BITMAP
F0
F0
F0
F0
ENDCHAR
STARTCHAR cedilla
ENCODING 184
SWIDTH 600 0
DWIDTH 12 0
BBX 4 3 3 -3
BITMAP
70
70
E0
ENDCHAR
STARTCHAR onesuperior
ENCODING 185
SWIDTH 150 0
DWIDTH 3 0
BBX 2 5 0 5
BITMAP
C0
C0
C0
C0
C0
ENDCHAR
STARTCHAR ordmasculine
ENCODING 186
SWIDTH 350 0
DWIDTH 7 0
BBX 6 5 0 5
BITMAP
FC
CC
CC
CC
FC
ENDCHAR
STARTCHAR guillemotright
ENCODING 187
SWIDTH 550 0
DWIDTH 11 0
BBX 10 8 0 1
BITMAP
C600
E700
7380
39C0
39C0
7380
E700
C600
ENDCHAR
STARTCHAR onequarter
ENCODING 188
SWIDTH 650 0
DWIDTH 13 0
BBX 12 10 0 0
BITMAP
60F0
E1F0
63E0
67C0
0F80
1F00
3EB0
7CB0
F8F0
F030
ENDCHAR
STARTCHAR onehalf
ENCODING 189
SWIDTH 650 0
DWIDTH 13 0
BBX 12 10 0 0
BITMAP
60F0
E1F0
63E0
67C0
0F80
1F00
3EF0
7C30
F8C0
F0F0
ENDCHAR
STARTCHAR threequarters
ENCODING 190
SWIDTH 650 0
DWIDTH 13 0
BBX 12 10 0 0
BITMAP
F0F0
71F0
33E0
F7C0
0F80
1F00
3EB0
7CB0
F8F0
F030
ENDCHAR
STARTCHAR questiondown
ENCODING 191
SWIDTH 600 0
DWIDTH 12 0
BBX 11 10 0 0
BITMAP
0E00
0E00
0000
0E00
7E00
FC00
F1E0
F1E0
FFE0
7FC0
ENDCHAR
STARTCHAR Agrave
ENCODING 192
SWIDTH 600 0
DWIDTH 12 0
BBX 11 15 0 0
BITMAP
1800
1C00
0E00
0600
0000
7FC0
FFE0
F1E0
F1E0
FFE0
FFE0
F1E0
F1E0
F1E0
F1E0
ENDCHAR
STARTCHAR Aacute
ENCODING 193
SWIDTH 600 0
DWIDTH 12 0
BBX 11 15 0 0
BITMAP
0300
0700
0E00
0C00
0000
7FC0
FFE0
F1E0
F1E0
FFE0
FFE0
F1E0
F1E0
F1E0
F1E0
ENDCHAR
STARTCHAR Acircumflex
ENCODING 194
SWIDTH 600 0
DWIDTH 12 0
BBX 11 15 0 0
BITMAP
0400
0E00
1B00
3180
0000
7FC0
FFE0
F1E0
F1E0
FFE0
FFE0
F1E0
F1E0
F1E0
F1E0
ENDCHAR
STARTCHAR Atilde
ENCODING 195
SWIDTH 600 0
DWIDTH 12 0
BBX 11 15 0 0
BITMAP
1980
3D80
3780
3300
0000
7FC0
FFE0
F1E0
F1E0
FFE0
FFE0
F1E0
F1E0
F1E0
F1E0
ENDCHAR
STARTCHAR Adieresis
ENCODING 196
SWIDTH 600 0
DWIDTH 12 0
BBX 11 15 0 0
BITMAP
71C0
71C0
71C0
0000
0000
7FC0
FFE0
F1E0
F1E0
FFE0
FFE0
F1E0
F1E0
F1E0
F1E0
ENDCHAR
STARTCHAR Aring
ENCODING 197
SWIDTH 600 0
DWIDTH 12 0
BBX 11 15 0 0
BITMAP
3F80
3180
3180
3F80
0000
7FC0
FFE0
F1E0
F1E0
FFE0
FFE0
F1E0
F1E0
F1E0
F1E0
ENDCHAR
STARTCHAR AE
ENCODING 198
SWIDTH 950 0
DWIDTH 19 0
BBX 18 10 0 0
BITMAP
7FFFC0
FFFFC0
F1E000
F1E000
FFFC00
FFFC00
F1E000
F1E000
F1FFC0
F1FFC0
ENDCHAR
STARTCHAR Ccedilla
ENCODING 199
SWIDTH 600 0
DWIDTH 12 0
BBX 11 13 0 -3
BITMAP
7FC0
FFE0
F1E0
F1E0
F000
F000
F1E0
F1E0
FFE0
7FC0
0E00
0E00
1C00
ENDCHAR
STARTCHAR Egrave
ENCODING 200
SWIDTH 600 0
DWIDTH 12 0
BBX 11 15 0 0
BITMAP
1800
1C00
0E00
0600
0000
7FE0
FFE0
F000
F000
FE00
FE00
F000
F000
FFE0
7FE0
ENDCHAR
STARTCHAR Eacute
ENCODING 201
SWIDTH 600 0
DWIDTH 12 0
BBX 11 15 0 0
BITMAP
0300
0700
0E00
0C00
0000
7FE0
FFE0
F000
F000
FE00
FE00
F000
F000
FFE0
7FE0
ENDCHAR
STARTCHAR Ecircumflex
ENCODING 202
SWIDTH 600 0
DWIDTH 12 0
BBX 11 15 0 0
BITMAP
0400
0E00
1B00
3180
0000
7FE0
FFE0
F000
F000
FE00
FE00
F000
F000
FFE0
7FE0
ENDCHAR
STARTCHAR Edieresis
ENCODING 203
SWIDTH 600 0
DWIDTH 12 0
BBX 11 15 0 0
BITMAP
71C0
71C0
71C0
0000
0000
7FE0
FFE0
F000
F000
FE00
FE00
F000
F000
FFE0
7FE0
ENDCHAR
STARTCHAR Igrave
ENCODING 204
SWIDTH 550 0
DWIDTH 11 0
BBX 10 15 0 0
BITMAP
1800
1C00
0E00
0600
0000
FFC0
FFC0
1E00
1E00
1E00
1E00
1E00
1E00
FFC0
FFC0
ENDCHAR
STARTCHAR Iacute
ENCODING 205
SWIDTH 550 0
DWIDTH 11 0
BBX 10 15 0 0
BITMAP
0600
0E00
1C00
1800
0000
FFC0
FFC0
1E00
1E00
1E00
1E00
1E00
1E00
FFC0
FFC0
ENDCHAR
STARTCHAR Icircumflex
ENCODING 206
SWIDTH 550 0
DWIDTH 11 0
BBX 10 15 0 0
BITMAP
0C00
1E00
3300
6180
0000
FFC0
FFC0
1E00
1E00
1E00
1E00
1E00
1E00
FFC0
FFC0
ENDCHAR
STARTCHAR Idieresis
ENCODING 207
SWIDTH 550 0
DWIDTH 11 0
BBX 10 15 0 0
BITMAP
7380
7380
7380
0000
0000
FFC0
FFC0
1E00
1E00
1E00
1E00
1E00
1E00
FFC0
FFC0
ENDCHAR
STARTCHAR Eth
ENCODING 208
SWIDTH 600 0
DWIDTH 12 0
BBX 12 10 -1 0
BITMAP
7FC0
7FE0
79F0
78F0
FCF0
FCF0
78F0
79F0
7FE0
7FC0
ENDCHAR
STARTCHAR Ntilde
ENCODING 209
SWIDTH 600 0
DWIDTH 12 0
BBX 11 15 0 0
BITMAP
1980
3D80
3780
3300
0000
F1E0
F9E0
FDE0
FFE0
FFE0
F7E0
F3E0
F1E0
F1E0
F1E0
ENDCHAR
STARTCHAR Ograve
ENCODING 210
SWIDTH 600 0
DWIDTH 12 0
BBX 11 15 0 0
BITMAP
1800
1C00
0E00
0600
0000
7FC0
FFE0
F1E0
F1E0
F1E0
F1E0
F1E0
F1E0
FFE0
7FC0
ENDCHAR
STARTCHAR Oacute
ENCODING 211
SWIDTH 600 0
DWIDTH 12 0
BBX 11 15 0 0
BITMAP
0300
0700
0E00
0C00
0000
7FC0
FFE0
F1E0
F1E0
F1E0
F1E0
F1E0
F1E0
FFE0
7FC0
ENDCHAR
STARTCHAR Ocircumflex
ENCODING 212
SWIDTH 600 0
DWIDTH 12 0
BBX 11 15 0 0
BITMAP
0400
0E00
1B00
3180
0000
7FC0
FFE0
F1E0
F1E0
F1E0
F1E0
F1E0
F1E0
FFE0
7FC0
ENDCHAR
STARTCHAR Otilde
ENCODING 213
SWIDTH 600 0
DWIDTH 12 0
BBX 11 15 0 0
BITMAP
1980
3D80
3780
3300
0000
7FC0
FFE0
F1E0
F1E0
F1E0
F1E0
F1E0
F1E0
FFE0
7FC0
ENDCHAR
STARTCHAR Odieresis
ENCODING 214
SWIDTH 600 0
DWIDTH 12 0
BBX 11 15 0 0
BITMAP
71C0
71C0
71C0
0000
0000
7FC0
FFE0
F1E0
F1E0
F1E0
F1E0
F1E0
F1E0
FFE0
7FC0
ENDCHAR
STARTCHAR multiply
ENCODING 215
SWIDTH 450 0
DWIDTH 9 0
BBX 8 8 0 1
BITMAP
C3
E7
7E
3C
3C
7E
E7
C3
ENDCHAR
STARTCHAR Oslash
ENCODING 216
SWIDTH 600 0
DWIDTH 12 0
BBX 11 14 0 -2
BITMAP
0060
00E0
7FC0
FFE0
F3E0
F7E0
F7E0
FDE0
FDE0
F9E0
FFE0
7FC0
E000
C000
ENDCHAR
STARTCHAR Ugrave
ENCODING 217
SWIDTH 600 0
DWIDTH 12 0
BBX 11 15 0 0
BITMAP
1800
1C00
0E00
0600
0000
F1E0
F1E0
F1E0
F1E0
F1E0
F1E0
F1E0
F1E0
FFE0
7FC0
ENDCHAR
STARTCHAR Uacute
ENCODING 218
SWIDTH 600 0
DWIDTH 12 0
BBX 11 15 0 0
BITMAP
0300
0700
0E00
0C00
0000
F1E0
F1E0
F1E0
F1E0
F1E0
F1E0
F1E0
F1E0
FFE0
7FC0
ENDCHAR
STARTCHAR Ucircumflex
ENCODING 219
SWIDTH 600 0
DWIDTH 12 0
BBX 11 15 0 0
BITMAP
0400
0E00
1B00
3180
0000
F1E0
F1E0
F1E0
F1E0
F1E0
F1E0
F1E0
F1E0
FFE0
7FC0
ENDCHAR
STARTCHAR Udieresis
ENCODING 220
SWIDTH 600 0
DWIDTH 12 0
BBX 11 15 0 0
BITMAP
71C0
71C0
71C0
0000
0000
F1E0
F1E0
F1E0
F1E0
F1E0
F1E0
F1E0
F1E0
FFE0
7FC0
ENDCHAR
STARTCHAR Yacute
ENCODING 221
SWIDTH 650 0
DWIDTH 13 0
BBX 12 15 0 0
BITMAP
0300
0700
0E00
0C00
0000
F0F0
F0F0
F0F0
F9F0
7FE0
3FC0
0F00
0F00
0F00
0F00
ENDCHAR
STARTCHAR Thorn
ENCODING 222
SWIDTH 600 0
DWIDTH 12 0
BBX 11 10 0 0
BITMAP
F000
F000
FFC0
FFE0
F1E0
F1E0
FFE0
FFC0
F000
F000
ENDCHAR
STARTCHAR germandbls
ENCODING 223
SWIDTH 600 0
DWIDTH 12 0
BBX 11 10 0 0
BITMAP
7FC0
FFE0
F1E0
F1E0
F7C0
F7C0
F1E0
F1E0
F7E0
77C0
ENDCHAR
STARTCHAR agrave
ENCODING 224
SWIDTH 600 0
DWIDTH 12 0
BBX 11 15 0 0
BITMAP
1800
1C00
0E00
0600
0000
7FC0
FFE0
F1E0
F1E0
FFE0
FFE0
F1E0
F1E0
F1E0
F1E0
ENDCHAR
STARTCHAR aacute
ENCODING 225
SWIDTH 600 0
DWIDTH 12 0
BBX 11 15 0 0
BITMAP
0300
0700
0E00
0C00
0000
7FC0
FFE0
F1E0
F1E0
FFE0
FFE0
F1E0
F1E0
F1E0
F1E0
ENDCHAR
STARTCHAR acircumflex
ENCODING 226
SWIDTH 600 0
DWIDTH 12 0
BBX 11 15 0 0
BITMAP
0400
0E00
1B00
3180
0000
7FC0
FFE0
F1E0
F1E0
FFE0
FFE0
F1E0
F1E0
F1E0
F1E0
ENDCHAR
STARTCHAR atilde
ENCODING 227
SWIDTH 600 0
DWIDTH 12 0
BBX 11 15 0 0
BITMAP
1980
3D80
3780
3300
0000
7FC0
FFE0
F1E0
F1E0
FFE0
FFE0
F1E0
F1E0
F1E0
F1E0
ENDCHAR
STARTCHAR adieresis
ENCODING 228
SWIDTH 600 0
DWIDTH 12 0
BBX 11 15 0 0
BITMAP
71C0
71C0
71C0
0000
0000
7FC0
FFE0
F1E0
F1E0
FFE0
FFE0
F1E0
F1E0
F1E0
F1E0
ENDCHAR
STARTCHAR aring
ENCODING 229
SWIDTH 600 0
DWIDTH 12 0
BBX 11 15 0 0
BITMAP
3F80
3180
3180
3F80
0000
7FC0
FFE0
F1E0
F1E0
FFE0
FFE0
F1E0
F1E0
F1E0
F1E0
ENDCHAR
STARTCHAR ae
ENCODING 230
SWIDTH 950 0
DWIDTH 19 0
BBX 18 10 0 0
BITMAP
7FFFC0
FFFFC0
F1E000
F1E000
FFFC00
FFFC00
F1E000
F1E000
F1FFC0
F1FFC0
ENDCHAR
STARTCHAR ccedilla
ENCODING 231
SWIDTH 600 0
DWIDTH 12 0
BBX 11 13 0 -3
BITMAP
7FC0
FFE0
F1E0
F1E0
F000
F000
F1E0
F1E0
FFE0
7FC0
0E00
0E00
1C00
ENDCHAR
STARTCHAR egrave
ENCODING 232
SWIDTH 600 0
DWIDTH 12 0
BBX 11 15 0 0
BITMAP
1800
1C00
0E00
0600
0000
7FE0
FFE0
F000
F000
FE00
FE00
F000
F000
FFE0
7FE0
ENDCHAR
STARTCHAR eacute
ENCODING 233
SWIDTH 600 0
DWIDTH 12 0
BBX 11 15 0 0
BITMAP
0300
0700
0E00
0C00
0000
7FE0
FFE0
F000
F000
FE00
FE00
F000
F000
FFE0
7FE0
ENDCHAR
STARTCHAR ecircumflex
ENCODING 234
SWIDTH 600 0
DWIDTH 12 0
BBX 11 15 0 0
BITMAP
0400
0E00
1B00
3180
0000
7FE0
FFE0
F000
F000
FE00
FE00
F000
F000
FFE0
7FE0
ENDCHAR
STARTCHAR edieresis
ENCODING 235
SWIDTH 600 0
DWIDTH 12 0
BBX 11 15 0 0
BITMAP
71C0
71C0
71C0
0000
0000
7FE0
FFE0
F000
F000
FE00
FE00
F000
F000
FFE0
7FE0
ENDCHAR
STARTCHAR igrave
ENCODING 236
SWIDTH 550 0
DWIDTH 11 0
BBX 10 15 0 0
BITMAP
1800
1C00
0E00
0600
0000
FFC0
FFC0
1E00
1E00
1E00
1E00
1E00
1E00
FFC0
FFC0
ENDCHAR
STARTCHAR iacute
ENCODING 237
SWIDTH 550 0
DWIDTH 11 0
BBX 10 15 0 0
BITMAP
0600
0E00
1C00
1800
0000
FFC0
FFC0
1E00
1E00
1E00
1E00
1E00
1E00
FFC0
FFC0
ENDCHAR
STARTCHAR icircumflex
ENCODING 238
SWIDTH 550 0
DWIDTH 11 0
BBX 10 15 0 0
BITMAP
0C00
1E00
3300
6180
0000
FFC0
FFC0
1E00
1E00
1E00
1E00
1E00
1E00
FFC0
FFC0
ENDCHAR
STARTCHAR idieresis
ENCODING 239
SWIDTH 550 0
DWIDTH 11 0
BBX 10 15 0 0
BITMAP
7380
7380
7380
0000
0000
FFC0
FFC0
1E00
1E00
1E00
1E00
1E00
1E00
FFC0
FFC0
ENDCHAR
STARTCHAR eth
ENCODING 240
SWIDTH 600 0
DWIDTH 12 0
BBX 12 10 -1 0
BITMAP
7FC0
7FE0
79F0
78F0
FCF0
FCF0
78F0
79F0
7FE0
7FC0
ENDCHAR
STARTCHAR ntilde
ENCODING 241
SWIDTH 600 0
DWIDTH 12 0
BBX 11 15 0 0
BITMAP
1980
3D80
3780
3300
0000
F1E0
F9E0
FDE0
FFE0
FFE0
F7E0
F3E0
F1E0
F1E0
F1E0
ENDCHAR
STARTCHAR ograve
ENCODING 242
SWIDTH 600 0
DWIDTH 12 0
BBX 11 15 0 0
BITMAP
1800
1C00
0E00
0600
0000
7FC0
FFE0
F1E0
F1E0
F1E0
F1E0
F1E0
F1E0
FFE0
7FC0
ENDCHAR
STARTCHAR oacute
ENCODING 243
SWIDTH 600 0
DWIDTH 12 0
BBX 11 15 0 0
BITMAP
0300
0700
0E00
0C00
0000
7FC0
FFE0
F1E0
F1E0
F1E0
F1E0
F1E0
F1E0
FFE0
7FC0
ENDCHAR
STARTCHAR ocircumflex
ENCODING 244
SWIDTH 600 0
DWIDTH 12 0
BBX 11 15 0 0
BITMAP
0400
0E00
1B00
3180
0000
7FC0
FFE0
F1E0
F1E0
F1E0
F1E0
F1E0
F1E0
FFE0
7FC0
ENDCHAR
STARTCHAR otilde
ENCODING 245
SWIDTH 600 0
DWIDTH 12 0
BBX 11 15 0 0
BITMAP
1980
3D80
3780
3300
0000
7FC0
FFE0
F1E0
F1E0
F1E0
F1E0
F1E0
F1E0
FFE0
7FC0
ENDCHAR
STARTCHAR odieresis
ENCODING 246
SWIDTH 600 0
DWIDTH 12 0
BBX 11 15 0 0
BITMAP
71C0
71C0
71C0
0000
0000
7FC0
FFE0
F1E0
F1E0
F1E0
F1E0
F1E0
F1E0
FFE0
7FC0
ENDCHAR
STARTCHAR divide
ENCODING 247
SWIDTH 600 0
DWIDTH 12 0
BBX 11 10 0 0
BITMAP
0E00
0E00
0E00
0000
FFE0
FFE0
0000
0E00
0E00
0E00
ENDCHAR
STARTCHAR oslash
ENCODING 248
SWIDTH 600 0
DWIDTH 12 0
BBX 11 14 0 -2
BITMAP
0060
00E0
7FC0
FFE0
F3E0
F7E0
F7E0
FDE0
FDE0
F9E0
FFE0
7FC0
E000
C000
ENDCHAR
STARTCHAR ugrave
ENCODING 249
SWIDTH 600 0
DWIDTH 12 0
BBX 11 15 0 0
BITMAP
1800
1C00
0E00
0600
0000
F1E0
F1E0
F1E0
F1E0
F1E0
F1E0
F1E0
F1E0
FFE0
7FC0
ENDCHAR
STARTCHAR uacute
ENCODING 250
SWIDTH 600 0
DWIDTH 12 0
BBX 11 15 0 0
BITMAP
0300
0700
0E00
0C00
0000
F1E0
F1E0
F1E0
F1E0
F1E0
F1E0
F1E0
F1E0
FFE0
7FC0
ENDCHAR
STARTCHAR ucircumflex
ENCODING 251
SWIDTH 600 0
DWIDTH 12 0
BBX 11 15 0 0
BITMAP
0400
0E00
1B00
3180
0000
F1E0
F1E0
F1E0
F1E0
F1E0
F1E0
F1E0
F1E0
FFE0
7FC0
ENDCHAR
STARTCHAR udieresis
ENCODING 252
SWIDTH 600 0
DWIDTH 12 0
BBX 11 15 0 0
BITMAP
71C0
71C0
71C0
0000
0000
F1E0
F1E0
F1E0
F1E0
F1E0
F1E0
F1E0
F1E0
FFE0
7FC0
ENDCHAR
STARTCHAR yacute
ENCODING 253
SWIDTH 650 0
DWIDTH 13 0
BBX 12 15 0 0
BITMAP
0300
0700
0E00
0C00
0000
F0F0
F0F0
F0F0
F9F0
7FE0
3FC0
0F00
0F00
0F00
0F00
ENDCHAR
STARTCHAR thorn
ENCODING 254
SWIDTH 600 0
DWIDTH 12 0
BBX 11 10 0 0
BITMAP
F000
F000
FFC0
FFE0
F1E0
F1E0
FFE0
FFC0
F000
F000
ENDCHAR
STARTCHAR Ydieresis
ENCODING 255
SWIDTH 650 0
DWIDTH 13 0
BBX 12 15 0 0
BITMAP
39C0
39C0
39C0
0000
0000
F0F0
F0F0
F0F0
F9F0
7FE0
3FC0
0F00
0F00
0F00
0F00
ENDCHAR
STARTCHAR Amacron
ENCODING 256
SWIDTH 600 0
DWIDTH 12 0
BBX 11 14 0 0
BITMAP
FFE0
FFE0
0000
0000
7FC0
FFE0
F1E0
F1E0
FFE0
FFE0
F1E0
F1E0
F1E0
F1E0
ENDCHAR
STARTCHAR amacron
ENCODING 257
SWIDTH 600 0
DWIDTH 12 0
BBX 11 14 0 0
BITMAP
FFE0
FFE0
0000
0000
7FC0
FFE0
F1E0
F1E0
FFE0
FFE0
F1E0
F1E0
F1E0
F1E0
ENDCHAR
STARTCHAR Abreve
ENCODING 258
SWIDTH 600 0
DWIDTH 12 0
BBX 11 14 0 0
BITMAP
3180
3F80
1F00
0000
7FC0
FFE0
F1E0
F1E0
FFE0
FFE0
F1E0
F1E0
F1E0
F1E0
ENDCHAR
STARTCHAR abreve
ENCODING 259
SWIDTH 600 0
DWIDTH 12 0
BBX 11 14 0 0
BITMAP
3180
3F80
1F00
0000
7FC0
FFE0
F1E0
F1E0
FFE0
FFE0
F1E0
F1E0
F1E0
F1E0
ENDCHAR
STARTCHAR Aogonek
ENCODING 260
SWIDTH 600 0
DWIDTH 12 0
BBX 11 12 0 -2
BITMAP
7FC0
FFE0
F1E0
F1E0
FFE0
FFE0
F1E0
F1E0
F1E0
F1E0
01C0
00E0
ENDCHAR
STARTCHAR aogonek
ENCODING 261
SWIDTH 600 0
DWIDTH 12 0
BBX 11 12 0 -2
BITMAP
7FC0
FFE0
F1E0
F1E0
FFE0
FFE0
F1E0
F1E0
F1E0
F1E0
01C0
00E0
ENDCHAR
STARTCHAR Cacute
ENCODING 262
SWIDTH 600 0
DWIDTH 12 0
BBX 11 15 0 0
BITMAP
0300
0700
0E00
0C00
0000
7FC0
FFE0
F1E0
F1E0
F000
F000
F1E0
F1E0
FFE0
7FC0
ENDCHAR
STARTCHAR cacute
ENCODING 263
SWIDTH 600 0
DWIDTH 12 0
BBX 11 15 0 0
BITMAP
0300
0700
0E00
0C00
0000
7FC0
FFE0
F1E0
F1E0
F000
F000
F1E0
F1E0
FFE0
7FC0
ENDCHAR
STARTCHAR Ccircumflex
ENCODING 264
SWIDTH 600 0
DWIDTH 12 0
BBX 11 15 0 0
BITMAP
0400
0E00
1B00
3180
0000
7FC0
FFE0
F1E0
F1E0
F000
F000
F1E0
F1E0
FFE0
7FC0
ENDCHAR
STARTCHAR ccircumflex
ENCODING 265
SWIDTH 600 0
DWIDTH 12 0
BBX 11 15 0 0
BITMAP
0400
0E00
1B00
3180
0000
7FC0
FFE0
F1E0
F1E0
F000
F000
F1E0
F1E0
FFE0
7FC0
ENDCHAR
STARTCHAR Cdot
ENCODING 266
SWIDTH 600 0
DWIDTH 12 0
BBX 11 15 0 0
BITMAP
0E00
0E00
0E00
0000
0000
7FC0
FFE0
F1E0
F1E0
F000
F000
F1E0
F1E0
FFE0
7FC0
ENDCHAR
STARTCHAR cdot
ENCODING 267
SWIDTH 600 0
DWIDTH 12 0
BBX 11 15 0 0
BITMAP
0E00
0E00
0E00
0000
0000
7FC0
FFE0
F1E0
F1E0
F000
F000
F1E0
F1E0
FFE0
7FC0
ENDCHAR
STARTCHAR Ccaron
ENCODING 268
SWIDTH 600 0
DWIDTH 12 0
BBX 11 15 0 0
BITMAP
3180
1B00
0E00
0400
0000
7FC0
FFE0
F1E0
F1E0
F000
F000
F1E0
F1E0
FFE0
7FC0
ENDCHAR
STARTCHAR ccaron
ENCODING 269
SWIDTH 600 0
DWIDTH 12 0
BBX 11 15 0 0
BITMAP
3180
1B00
0E00
0400
0000
7FC0
FFE0
F1E0
F1E0
F000
F000
F1E0
F1E0
FFE0
7FC0
ENDCHAR
STARTCHAR Dcaron
ENCODING 270
SWIDTH 600 0
DWIDTH 12 0
BBX 11 15 0 0
BITMAP
3180
1B00
0E00
0400
0000
FF80
FFC0
F3E0
F1E0
F1E0
F1E0
F1E0
F3E0
FFC0
FF80
ENDCHAR
STARTCHAR dcaron
ENCODING 271
SWIDTH 600 0
DWIDTH 12 0
BBX 11 15 0 0
BITMAP
3180
1B00
0E00
0400
0000
FF80
FFC0
F3E0
F1E0
F1E0
F1E0
F1E0
F3E0
FFC0
FF80
ENDCHAR
STARTCHAR Dcroat
ENCODING 272
SWIDTH 600 0
DWIDTH 12 0
BBX 12 10 -1 0
BITMAP
7FC0
7FE0
79F0
78F0
FCF0
FCF0
78F0
79F0
7FE0
7FC0
ENDCHAR
STARTCHAR dcroat
ENCODING 273
SWIDTH 600 0
DWIDTH 12 0
BBX 12 10 -1 0
BITMAP
7FC0
7FE0
79F0
78F0
FCF0
FCF0
78F0
79F0
7FE0
7FC0
ENDCHAR
STARTCHAR Emacron
ENCODING 274
SWIDTH 600 0
DWIDTH 12 0
BBX 11 14 0 0
BITMAP
FFE0
FFE0
0000
0000
7FE0
FFE0
F000
F000
FE00
FE00
F000
F000
FFE0
7FE0
ENDCHAR
STARTCHAR emacron
ENCODING 275
SWIDTH 600 0
DWIDTH 12 0
BBX 11 14 0 0
BITMAP
FFE0
FFE0
0000
0000
7FE0
FFE0
F000
F000
FE00
FE00
F000
F000
FFE0
7FE0
ENDCHAR
STARTCHAR Ebreve
ENCODING 276
SWIDTH 600 0
DWIDTH 12 0
BBX 11 14 0 0
BITMAP
3180
3F80
1F00
0000
7FE0
FFE0
F000
F000
FE00
FE00
F000
F000
FFE0
7FE0
ENDCHAR
STARTCHAR ebreve
ENCODING 277
SWIDTH 600 0
DWIDTH 12 0
BBX 11 14 0 0
BITMAP
3180
3F80
1F00
0000
7FE0
FFE0
F000
F000
FE00
FE00
F000
F000
FFE0
7FE0
ENDCHAR
STARTCHAR Edot
ENCODING 278
SWIDTH 600 0
DWIDTH 12 0
BBX 11 15 0 0
BITMAP
0E00
0E00
0E00
0000
0000
7FE0
FFE0
F000
F000
FE00
FE00
F000
F000
FFE0
7FE0
ENDCHAR
STARTCHAR edot
ENCODING 279
SWIDTH 600 0
DWIDTH 12 0
BBX 11 15 0 0
BITMAP
0E00
0E00
0E00
0000
0000
7FE0
FFE0
F000
F000
FE00
FE00
F000
F000
FFE0
7FE0
ENDCHAR
STARTCHAR Eogonek
ENCODING 280
SWIDTH 600 0
DWIDTH 12 0
BBX 11 12 0 -2
BITMAP
7FE0
FFE0
F000
F000
FE00
FE00
F000
F000
FFE0
7FE0
01C0
00E0
ENDCHAR
STARTCHAR eogonek
ENCODING 281
SWIDTH 600 0
DWIDTH 12 0
BBX 11 12 0 -2
BITMAP
7FE0
FFE0
F000
F000
FE00
FE00
F000
F000
FFE0
7FE0
01C0
00E0
ENDCHAR
STARTCHAR Ecaron
ENCODING 282
SWIDTH 600 0
DWIDTH 12 0
BBX 11 15 0 0
BITMAP
3180
1B00
0E00
0400
0000
7FE0
FFE0
F000
F000
FE00
FE00
F000
F000
FFE0
7FE0
ENDCHAR
STARTCHAR ecaron
ENCODING 283
SWIDTH 600 0
DWIDTH 12 0
BBX 11 15 0 0
BITMAP
3180
1B00
0E00
0400
0000
7FE0
FFE0
F000
F000
FE00
FE00
F000
F000
FFE0
7FE0
ENDCHAR
STARTCHAR Gcircumflex
ENCODING 284
SWIDTH 600 0
DWIDTH 12 0
BBX 11 15 0 0
BITMAP
0400
0E00
1B00
3180
0000
7FE0
FFE0
F000
F000
F7C0
F7E0
F1E0
F1E0
FFE0
7FC0
ENDCHAR
STARTCHAR gcircumflex
ENCODING 285
SWIDTH 600 0
DWIDTH 12 0
BBX 11 15 0 0
BITMAP
0400
0E00
1B00
3180
0000
7FE0
FFE0
F000
F000
F7C0
F7E0
F1E0
F1E0
FFE0
7FC0
ENDCHAR
STARTCHAR Gbreve
ENCODING 286
SWIDTH 600 0
DWIDTH 12 0
BBX 11 14 0 0
BITMAP
3180
3F80
1F00
0000
7FE0
FFE0
F000
F000
F7C0
F7E0
F1E0
F1E0
FFE0
7FC0
ENDCHAR
STARTCHAR gbreve
ENCODING 287
SWIDTH 600 0
DWIDTH 12 0
BBX 11 14 0 0
BITMAP
3180
3F80
1F00
0000
7FE0
FFE0
F000
F000
F7C0
F7E0
F1E0
F1E0
FFE0
7FC0
ENDCHAR
STARTCHAR Gdot
ENCODING 288
SWIDTH 600 0
DWIDTH 12 0
BBX 11 15 0 0
BITMAP
0E00
0E00
0E00
0000
0000
7FE0
FFE0
F000
F000
F7C0
F7E0
F1E0
F1E0
FFE0
7FC0
ENDCHAR
STARTCHAR gdot
ENCODING 289
SWIDTH 600 0
DWIDTH 12 0
BBX 11 15 0 0
BITMAP
0E00
0E00
0E00
0000
0000
7FE0
FFE0
F000
F000
F7C0
F7E0
F1E0
F1E0
FFE0
7FC0
ENDCHAR
STARTCHAR Gcedilla
ENCODING 290
SWIDTH 600 0
DWIDTH 12 0
BBX 11 13 0 -3
BITMAP
7FE0
FFE0
F000
F000
F7C0
F7E0
F1E0
F1E0
FFE0
7FC0
0E00
0E00
1C00
ENDCHAR
STARTCHAR gcedilla
ENCODING 291
SWIDTH 600 0
DWIDTH 12 0
BBX 11 13 0 -3
BITMAP
7FE0
FFE0
F000
F000
F7C0
F7E0
F1E0
F1E0
FFE0
7FC0
0E00
0E00
1C00
ENDCHAR
STARTCHAR Hcircumflex
ENCODING 292
SWIDTH 600 0
DWIDTH 12 0
BBX 11 15 0 0
BITMAP
0400
0E00
1B00
3180
0000
F1E0
F1E0
F1E0
F1E0
FFE0
FFE0
F1E0
F1E0
F1E0
F1E0
ENDCHAR
STARTCHAR hcircumflex
ENCODING 293
SWIDTH 600 0
DWIDTH 12 0
BBX 11 15 0 0
BITMAP
0400
0E00
1B00
3180
0000
F1E0
F1E0
F1E0
F1E0
FFE0
FFE0
F1E0
F1E0
F1E0
F1E0
ENDCHAR
STARTCHAR Hbar
ENCODING 294
SWIDTH 650 0
DWIDTH 13 0
BBX 13 10 -1 0
BITMAP
78F0
FFF8
FFF8
78F0
7FF0
7FF0
78F0
78F0
78F0
78F0
ENDCHAR
STARTCHAR hbar
ENCODING 295
SWIDTH 650 0
DWIDTH 13 0
BBX 13 10 -1 0
BITMAP
78F0
FFF8
FFF8
78F0
7FF0
7FF0
78F0
78F0
78F0
78F0
ENDCHAR
STARTCHAR Itilde
ENCODING 296
SWIDTH 550 0
DWIDTH 11 0
BBX 10 15 0 0
BITMAP
3980
7D80
6F80
6700
0000
FFC0
FFC0
1E00
1E00
1E00
1E00
1E00
1E00
FFC0
FFC0
ENDCHAR
STARTCHAR itilde
ENCODING 297
SWIDTH 550 0
DWIDTH 11 0
BBX 10 15 0 0
BITMAP
3980
7D80
6F80
6700
0000
FFC0
FFC0
1E00
1E00
1E00
1E00
1E00
1E00
FFC0
FFC0
ENDCHAR
STARTCHAR Imacron
ENCODING 298
SWIDTH 550 0
DWIDTH 11 0
BBX 10 14 0 0
BITMAP
FFC0
FFC0
0000
0000
FFC0
FFC0
1E00
1E00
1E00
1E00
1E00
1E00
FFC0
FFC0
ENDCHAR
STARTCHAR imacron
ENCODING 299
SWIDTH 550 0
DWIDTH 11 0
BBX 10 14 0 0
BITMAP
FFC0
FFC0
0000
0000
FFC0
FFC0
1E00
1E00
1E00
1E00
1E00
1E00
FFC0
FFC0
ENDCHAR
STARTCHAR Ibreve
ENCODING 300
SWIDTH 550 0
DWIDTH 11 0
BBX 10 14 0 0
BITMAP
6180
7F80
3F00
0000
FFC0
FFC0
1E00
1E00
1E00
1E00
1E00
1E00
FFC0
FFC0
ENDCHAR
STARTCHAR ibreve
ENCODING 301
SWIDTH 550 0
DWIDTH 11 0
BBX 10 14 0 0
BITMAP
6180
7F80
3F00
0000
FFC0
FFC0
1E00
1E00
1E00
1E00
1E00
1E00
FFC0
FFC0
ENDCHAR
STARTCHAR Iogonek
ENCODING 302
SWIDTH 550 0
DWIDTH 11 0
BBX 10 12 0 -2
BITMAP
FFC0
FFC0
1E00
1E00
1E00
1E00
1E00
1E00
FFC0
FFC0
1E00
0F00
ENDCHAR
STARTCHAR iogonek
ENCODING 303
SWIDTH 550 0
DWIDTH 11 0
BBX 10 12 0 -2
BITMAP
FFC0
FFC0
1E00
1E00
1E00
1E00
1E00
1E00
FFC0
FFC0
1E00
0F00
ENDCHAR
STARTCHAR Idotaccent
ENCODING 304
SWIDTH 550 0
DWIDTH 11 0
BBX 10 15 0 0
BITMAP
1E00
1E00
1E00
0000
0000
FFC0
FFC0
1E00
1E00
1E00
1E00
1E00
1E00
FFC0
FFC0
ENDCHAR
STARTCHAR dotlessi
ENCODING 305
SWIDTH 550 0
DWIDTH 11 0
BBX 10 10 0 0
BITMAP
FFC0
FFC0
1E00
1E00
1E00
1E00
1E00
1E00
FFC0
FFC0
ENDCHAR
STARTCHAR IJ
ENCODING 306
SWIDTH 600 0
DWIDTH 12 0
BBX 11 10 0 0
BITMAP
F1E0
F1E0
F1E0
F1E0
F1E0
F1E0
01E0
F1E0
FFE0
7FC0
ENDCHAR
STARTCHAR ij
ENCODING 307
SWIDTH 600 0
DWIDTH 12 0
BBX 11 10 0 0
BITMAP
F1E0
F1E0
F1E0
F1E0
F1E0
F1E0
01E0
F1E0
FFE0
7FC0
ENDCHAR
STARTCHAR Jcircumflex
ENCODING 308
SWIDTH 600 0
DWIDTH 12 0
BBX 11 15 0 0
BITMAP
0400
0E00
1B00
3180
0000
01E0
01E0
01E0
01E0
01E0
01E0
F1E0
F1E0
FFE0
7FC0
ENDCHAR
STARTCHAR jcircumflex
ENCODING 309
SWIDTH 600 0
DWIDTH 12 0
BBX 11 15 0 0
BITMAP
0400
0E00
1B00
3180
0000
01E0
01E0
01E0
01E0
01E0
01E0
F1E0
F1E0
FFE0
7FC0
ENDCHAR
STARTCHAR Kcedilla
ENCODING 310
SWIDTH 600 0
DWIDTH 12 0
BBX 11 13 0 -3
BITMAP
F1E0
F3E0
F7C0
FF80
FF00
FF00
FF80
F7C0
F3E0
F1E0
0E00
0E00
1C00
ENDCHAR
STARTCHAR kcedilla
ENCODING 311
SWIDTH 600 0
DWIDTH 12 0
BBX 11 13 0 -3
BITMAP
F1E0
F3E0
F7C0
FF80
FF00
FF00
FF80
F7C0
F3E0
F1E0
0E00
0E00
1C00
ENDCHAR
STARTCHAR kgreenlandic
ENCODING 312
SWIDTH 600 0
DWIDTH 12 0
BBX 11 10 0 0
BITMAP
F1E0
F3E0
F7C0
FF80
FF00
FF00
FF80
F7C0
F3E0
F1E0
ENDCHAR
STARTCHAR Lacute
ENCODING 313
SWIDTH 600 0
DWIDTH 12 0
BBX 11 15 0 0
BITMAP
0300
0700
0E00
0C00
0000
F000
F000
F000
F000
F000
F000
F000
F000
FFE0
FFE0
ENDCHAR
STARTCHAR lacute
ENCODING 314
SWIDTH 600 0
DWIDTH 12 0
BBX 11 15 0 0
BITMAP
0300
0700
0E00
0C00
0000
F000
F000
F000
F000
F000
F000
F000
F000
FFE0
FFE0
ENDCHAR
STARTCHAR Lcedilla
ENCODING 315
SWIDTH 600 0
DWIDTH 12 0
BBX 11 13 0 -3
BITMAP
F000
F000
F000
F000
F000
F000
F000
F000
FFE0
FFE0
0E00
0E00
1C00
ENDCHAR
STARTCHAR lcedilla
ENCODING 316
SWIDTH 600 0
DWIDTH 12 0
BBX 11 13 0 -3
BITMAP
F000
F000
F000
F000
F000
F000
F000
F000
FFE0
FFE0
0E00
0E00
1C00
ENDCHAR
STARTCHAR Lcaron
ENCODING 317
SWIDTH 600 0
DWIDTH 12 0
BBX 11 10 0 0
BITMAP
F380
F380
F380
F380
F000
F000
F000
F000
FFE0
FFE0
ENDCHAR
STARTCHAR lcaron
ENCODING 318
SWIDTH 600 0
DWIDTH 12 0
BBX 11 10 0 0
BITMAP
F380
F380
F380
F380
F000
F000
F000
F000
FFE0
FFE0
ENDCHAR
STARTCHAR Ldot
ENCODING 319
SWIDTH 600 0
DWIDTH 12 0
BBX 11 10 0 0
BITMAP
F000
F000
F380
F380
F380
F000
F000
F000
FFE0
FFE0
ENDCHAR
STARTCHAR ldot
ENCODING 320
SWIDTH 600 0
DWIDTH 12 0
BBX 11 10 0 0
BITMAP
F000
F000
F380
F380
F380
F000
F000
F000
FFE0
FFE0
ENDCHAR
STARTCHAR Lslash
ENCODING 321
SWIDTH 650 0
DWIDTH 13 0
BBX 12 10 0 0
BITMAP
7800
7800
7B00
7F00
7E00
7C00
F800
F800
7FF0
7FF0
ENDCHAR
STARTCHAR lslash
ENCODING 322
SWIDTH 650 0
DWIDTH 13 0
BBX 12 10 0 0
BITMAP
7800
7800
7B00
7F00
7E00
7C00
F800
F800
7FF0
7FF0
ENDCHAR
STARTCHAR Nacute
ENCODING 323
SWIDTH 600 0
DWIDTH 12 0
BBX 11 15 0 0
BITMAP
0300
0700
0E00
0C00
0000
F1E0
F9E0
FDE0
FFE0
FFE0
F7E0
F3E0
F1E0
F1E0
F1E0
ENDCHAR
STARTCHAR nacute
ENCODING 324
SWIDTH 600 0
DWIDTH 12 0
BBX 11 15 0 0
BITMAP
0300
0700
0E00
0C00
0000
F1E0
F9E0
FDE0
FFE0
FFE0
F7E0
F3E0
F1E0
F1E0
F1E0
ENDCHAR
STARTCHAR Ncedilla
ENCODING 325
SWIDTH 600 0
DWIDTH 12 0
BBX 11 13 0 -3
BITMAP
F1E0
F9E0
FDE0
FFE0
FFE0
F7E0
F3E0
F1E0
F1E0
F1E0
0E00
0E00
1C00
ENDCHAR
STARTCHAR ncedilla
ENCODING 326
SWIDTH 600 0
DWIDTH 12 0
BBX 11 13 0 -3
BITMAP
F1E0
F9E0
FDE0
FFE0
FFE0
F7E0
F3E0
F1E0
F1E0
F1E0
0E00
0E00
1C00
ENDCHAR
STARTCHAR Ncaron
ENCODING 327
SWIDTH 600 0
DWIDTH 12 0
BBX 11 15 0 0
BITMAP
3180
1B00
0E00
0400
0000
F1E0
F9E0
FDE0
FFE0
FFE0
F7E0
F3E0
F1E0
F1E0
F1E0
ENDCHAR
STARTCHAR ncaron
ENCODING 328
SWIDTH 600 0
DWIDTH 12 0
BBX 11 15 0 0
BITMAP
3180
1B00
0E00
0400
0000
F1E0
F9E0
FDE0
FFE0
FFE0
F7E0
F3E0
F1E0
F1E0
F1E0
ENDCHAR
STARTCHAR napostrophe
ENCODING 329
SWIDTH 600 0
DWIDTH 12 0
BBX 11 14 0 0
BITMAP
0E00
0E00
0600
0000
F1E0
F9E0
FDE0
FFE0
FFE0
F7E0
F3E0
F1E0
F1E0
F1E0
ENDCHAR
STARTCHAR Eng
ENCODING 330
SWIDTH 600 0
DWIDTH 12 0
BBX 11 12 0 -2
BITMAP
F1E0
F9E0
FDE0
FFE0
FFE0
F7E0
F3E0
F1E0
F1E0
F1E0
01E0
03C0
ENDCHAR
STARTCHAR eng
ENCODING 331
SWIDTH 600 0
DWIDTH 12 0
BBX 11 12 0 -2
BITMAP
F1E0
F9E0
FDE0
FFE0
FFE0
F7E0
F3E0
F1E0
F1E0
F1E0
01E0
03C0
ENDCHAR
STARTCHAR Omacron
ENCODING 332
SWIDTH 600 0
DWIDTH 12 0
BBX 11 14 0 0
BITMAP
FFE0
FFE0
0000
0000
7FC0
FFE0
F1E0
F1E0
F1E0
F1E0
F1E0
F1E0
FFE0
7FC0
ENDCHAR
STARTCHAR omacron
ENCODING 333
SWIDTH 600 0
DWIDTH 12 0
BBX 11 14 0 0
BITMAP
FFE0
FFE0
0000
0000
7FC0
FFE0
F1E0
F1E0
F1E0
F1E0
F1E0
F1E0
FFE0
7FC0
ENDCHAR
STARTCHAR Obreve
ENCODING 334
SWIDTH 600 0
DWIDTH 12 0
BBX 11 14 0 0
BITMAP
3180
3F80
1F00
0000
7FC0
FFE0
F1E0
F1E0
F1E0
F1E0
F1E0
F1E0
FFE0
7FC0
ENDCHAR
STARTCHAR obreve
ENCODING 335
SWIDTH 600 0
DWIDTH 12 0
BBX 11 14 0 0
BITMAP
3180
3F80
1F00
0000
7FC0
FFE0
F1E0
F1E0
F1E0
F1E0
F1E0
F1E0
FFE0
7FC0
ENDCHAR
STARTCHAR Odblacute
ENCODING 336
SWIDTH 600 0
DWIDTH 12 0
BBX 11 15 0 0
BITMAP
0C60
1CE0
39C0
3180
0000
7FC0
FFE0
F1E0
F1E0
F1E0
F1E0
F1E0
F1E0
FFE0
7FC0
ENDCHAR
STARTCHAR odblacute
ENCODING 337
SWIDTH 600 0
DWIDTH 12 0
BBX 11 15 0 0
BITMAP
0C60
1CE0
39C0
3180
0000
7FC0
FFE0
F1E0
F1E0
F1E0
F1E0
F1E0
F1E0
FFE0
7FC0
ENDCHAR
STARTCHAR OE
ENCODING 338
SWIDTH 950 0
DWIDTH 19 0
BBX 18 10 0 0
BITMAP
7FFFC0
FFFFC0
F1E000
F1E000
F1FC00
F1FC00
F1E000
F1E000
FFFFC0
7FFFC0
ENDCHAR
STARTCHAR oe
ENCODING 339
SWIDTH 950 0
DWIDTH 19 0
BBX 18 10 0 0
BITMAP
7FFFC0
FFFFC0
F1E000
F1E000
F1FC00
F1FC00
F1E000
F1E000
FFFFC0
7FFFC0
ENDCHAR
STARTCHAR Racute
ENCODING 340
SWIDTH 600 0
DWIDTH 12 0
BBX 11 15 0 0
BITMAP
0300
0700
0E00
0C00
0000
FFC0
FFE0
F1E0
F1E0
FFC0
FFC0
F1E0
F1E0
F1E0
F1E0
ENDCHAR
STARTCHAR racute
ENCODING 341
SWIDTH 600 0
DWIDTH 12 0
BBX 11 15 0 0
BITMAP
0300
0700
0E00
0C00
0000
FFC0
FFE0
F1E0
F1E0
FFC0
FFC0
F1E0
F1E0
F1E0
F1E0
ENDCHAR
STARTCHAR Rcedilla
ENCODING 342
SWIDTH 600 0
DWIDTH 12 0
BBX 11 13 0 -3
BITMAP
FFC0
FFE0
F1E0
F1E0
FFC0
FFC0
F1E0
F1E0
F1E0
F1E0
0E00
0E00
1C00
ENDCHAR
STARTCHAR rcedilla
ENCODING 343
SWIDTH 600 0
DWIDTH 12 0
BBX 11 13 0 -3
BITMAP
FFC0
FFE0
F1E0
F1E0
FFC0
FFC0
F1E0
F1E0
F1E0
F1E0
0E00
0E00
1C00
ENDCHAR
STARTCHAR Rcaron
ENCODING 344
SWIDTH 600 0
DWIDTH 12 0
BBX 11 15 0 0
BITMAP
3180
1B00
0E00
0400
0000
FFC0
FFE0
F1E0
F1E0
FFC0
FFC0
F1E0
F1E0
F1E0
F1E0
ENDCHAR
STARTCHAR rcaron
ENCODING 345
SWIDTH 600 0
DWIDTH 12 0
BBX 11 15 0 0
BITMAP
3180
1B00
0E00
0400
0000
FFC0
FFE0
F1E0
F1E0
FFC0
FFC0
F1E0
F1E0
F1E0
F1E0
ENDCHAR
STARTCHAR Sacute
ENCODING 346
SWIDTH 600 0
DWIDTH 12 0
BBX 11 15 0 0
BITMAP
0300
0700
0E00
0C00
0000
7FE0
FFE0
F000
F000
FFC0
7FE0
01E0
01E0
FFE0
FFC0
ENDCHAR
STARTCHAR sacute
ENCODING 347
SWIDTH 600 0
DWIDTH 12 0
BBX 11 15 0 0
BITMAP
0300
0700
0E00
0C00
0000
7FE0
FFE0
F000
F000
FFC0
7FE0
01E0
01E0
FFE0
FFC0
ENDCHAR
STARTCHAR Scircumflex
ENCODING 348
SWIDTH 600 0
DWIDTH 12 0
BBX 11 15 0 0
BITMAP
0400
0E00
1B00
3180
0000
7FE0
FFE0
F000
F000
FFC0
7FE0
01E0
01E0
FFE0
FFC0
ENDCHAR
STARTCHAR scircumflex
ENCODING 349
SWIDTH 600 0
DWIDTH 12 0
BBX 11 15 0 0
BITMAP
0400
0E00
1B00
3180
0000
7FE0
FFE0
F000
F000
FFC0
7FE0
01E0
01E0
FFE0
FFC0
ENDCHAR
STARTCHAR Scedilla
ENCODING 350
SWIDTH 600 0
DWIDTH 12 0
BBX 11 13 0 -3
BITMAP
7FE0
FFE0
F000
F000
FFC0
7FE0
01E0
01E0
FFE0
FFC0
0E00
0E00
1C00
ENDCHAR
STARTCHAR scedilla
ENCODING 351
SWIDTH 600 0
DWIDTH 12 0
BBX 11 13 0 -3
BITMAP
7FE0
FFE0
F000
F000
FFC0
7FE0
01E0
01E0
FFE0
FFC0
0E00
0E00
1C00
ENDCHAR
STARTCHAR Scaron
ENCODING 352
SWIDTH 600 0
DWIDTH 12 0
BBX 11 15 0 0
BITMAP
3180
1B00
0E00
0400
0000
7FE0
FFE0
F000
F000
FFC0
7FE0
01E0
01E0
FFE0
FFC0
ENDCHAR
STARTCHAR scaron
ENCODING 353
SWIDTH 600 0
DWIDTH 12 0
BBX 11 15 0 0
BITMAP
3180
1B00
0E00
0400
0000
7FE0
FFE0
F000
F000
FFC0
7FE0
01E0
01E0
FFE0
FFC0
ENDCHAR
STARTCHAR Tcedilla
ENCODING 354
SWIDTH 550 0
DWIDTH 11 0
BBX 10 13 0 -3
BITMAP
FFC0
FFC0
1E00
1E00
1E00
1E00
1E00
1E00
1E00
1E00
0000
1E00
3C00
ENDCHAR
STARTCHAR tcedilla
ENCODING 355
SWIDTH 550 0
DWIDTH 11 0
BBX 10 13 0 -3
BITMAP
FFC0
FFC0
1E00
1E00
1E00
1E00
1E00
1E00
1E00
1E00
0000
1E00
3C00
ENDCHAR
STARTCHAR Tcaron
ENCODING 356
SWIDTH 550 0
DWIDTH 11 0
BBX 10 15 0 0
BITMAP
6180
3300
1E00
0C00
0000
FFC0
FFC0
1E00
1E00
1E00
1E00
1E00
1E00
1E00
1E00
ENDCHAR
STARTCHAR tcaron
ENCODING 357
SWIDTH 550 0
DWIDTH 11 0
BBX 10 15 0 0
BITMAP
6180
3300
1E00
0C00
0000
FFC0
FFC0
1E00
1E00
1E00
1E00
1E00
1E00
1E00
1E00
ENDCHAR
STARTCHAR Tbar
ENCODING 358
SWIDTH 550 0
DWIDTH 11 0
BBX 10 10 0 0
BITMAP
FFC0
FFC0
1E00
1E00
7F80
7F80
1E00
1E00
1E00
1E00
ENDCHAR
STARTCHAR tbar
ENCODING 359
SWIDTH 550 0
DWIDTH 11 0
BBX 10 10 0 0
BITMAP
FFC0
FFC0
1E00
1E00
7F80
7F80
1E00
1E00
1E00
1E00
ENDCHAR
STARTCHAR Utilde
ENCODING 360
SWIDTH 600 0
DWIDTH 12 0
BBX 11 15 0 0
BITMAP
1980
3D80
3780
3300
0000
F1E0
F1E0
F1E0
F1E0
F1E0
F1E0
F1E0
F1E0
FFE0
7FC0
ENDCHAR
STARTCHAR utilde
ENCODING 361
SWIDTH 600 0
DWIDTH 12 0
BBX 11 15 0 0
BITMAP
1980
3D80
3780
3300
0000
F1E0
F1E0
F1E0
F1E0
F1E0
F1E0
F1E0
F1E0
FFE0
7FC0
ENDCHAR
STARTCHAR Umacron
ENCODING 362
SWIDTH 600 0
DWIDTH 12 0
BBX 11 14 0 0
BITMAP
FFE0
FFE0
0000
0000
F1E0
F1E0
F1E0
F1E0
F1E0
F1E0
F1E0
F1E0
FFE0
7FC0
ENDCHAR
STARTCHAR umacron
ENCODING 363
SWIDTH 600 0
DWIDTH 12 0
BBX 11 14 0 0
BITMAP
FFE0
FFE0
0000
0000
F1E0
F1E0
F1E0
F1E0
F1E0
F1E0
F1E0
F1E0
FFE0
7FC0
ENDCHAR
STARTCHAR Ubreve
ENCODING 364
SWIDTH 600 0
DWIDTH 12 0
BBX 11 14 0 0
BITMAP
3180
3F80
1F00
0000
F1E0
F1E0
F1E0
F1E0
F1E0
F1E0
F1E0
F1E0
FFE0
7FC0
ENDCHAR
STARTCHAR ubreve
ENCODING 365
SWIDTH 600 0
DWIDTH 12 0
BBX 11 14 0 0
BITMAP
3180
3F80
1F00
0000
F1E0
F1E0
F1E0
F1E0
F1E0
F1E0
F1E0
F1E0
FFE0
7FC0
ENDCHAR
STARTCHAR Uring
ENCODING 366
SWIDTH 600 0
DWIDTH 12 0
BBX 11 15 0 0
BITMAP
3F80
3180
3180
3F80
0000
F1E0
F1E0
F1E0
F1E0
F1E0
F1E0
F1E0
F1E0
FFE0
7FC0
ENDCHAR
STARTCHAR uring
ENCODING 367
SWIDTH 600 0
DWIDTH 12 0
BBX 11 15 0 0
BITMAP
3F80
3180
3180
3F80
0000
F1E0
F1E0
F1E0
F1E0
F1E0
F1E0
F1E0
F1E0
FFE0
7FC0
ENDCHAR
STARTCHAR Udblacute
ENCODING 368
SWIDTH 600 0
DWIDTH 12 0
BBX 11 15 0 0
BITMAP
0C60
1CE0
39C0
3180
0000
F1E0
F1E0
F1E0
F1E0
F1E0
F1E0
F1E0
F1E0
FFE0
7FC0
ENDCHAR
STARTCHAR udblacute
ENCODING 369
SWIDTH 600 0
DWIDTH 12 0
BBX 11 15 0 0
BITMAP
0C60
1CE0
39C0
3180
0000
F1E0
F1E0
F1E0
F1E0
F1E0
F1E0
F1E0
F1E0
FFE0
7FC0
ENDCHAR
STARTCHAR Uogonek
ENCODING 370
SWIDTH 600 0
DWIDTH 12 0
BBX 11 12 0 -2
BITMAP
F1E0
F1E0
F1E0
F1E0
F1E0
F1E0
F1E0
F1E0
FFE0
7FC0
0E00
0700
ENDCHAR
STARTCHAR uogonek
ENCODING 371
SWIDTH 600 0
DWIDTH 12 0
BBX 11 12 0 -2
BITMAP
F1E0
F1E0
F1E0
F1E0
F1E0
F1E0
F1E0
F1E0
FFE0
7FC0
0E00
0700
ENDCHAR
STARTCHAR Wcircumflex
ENCODING 372
SWIDTH 700 0
DWIDTH 14 0
BBX 13 15 0 0
BITMAP
0200
0700
0D80
18C0
0000
F078
F078
F078
F278
F778
FFF8
FFF8
FDF8
F8F8
F078
ENDCHAR
STARTCHAR wcircumflex
ENCODING 373
SWIDTH 700 0
DWIDTH 14 0
BBX 13 15 0 0
BITMAP
0200
0700
0D80
18C0
0000
F078
F078
F078
F278
F778
FFF8
FFF8
FDF8
F8F8
F078
ENDCHAR
STARTCHAR Ycircumflex
ENCODING 374
SWIDTH 650 0
DWIDTH 13 0
BBX 12 15 0 0
BITMAP
0600
0F00
1980
30C0
0000
F0F0
F0F0
F0F0
F9F0
7FE0
3FC0
0F00
0F00
0F00
0F00
ENDCHAR
STARTCHAR ycircumflex
ENCODING 375
SWIDTH 650 0
DWIDTH 13 0
BBX 12 15 0 0
BITMAP
0600
0F00
1980
30C0
0000
F0F0
F0F0
F0F0
F9F0
7FE0
3FC0
0F00
0F00
0F00
0F00
ENDCHAR
STARTCHAR Ydieresis.001
ENCODING 376
SWIDTH 650 0
DWIDTH 13 0
BBX 12 15 0 0
BITMAP
39C0
39C0
39C0
0000
0000
F0F0
F0F0
F0F0
F9F0
7FE0
3FC0
0F00
0F00
0F00
0F00
ENDCHAR
STARTCHAR Zacute
ENCODING 377
SWIDTH 600 0
DWIDTH 12 0
BBX 11 15 0 0
BITMAP
0300
0700
0E00
0C00
0000
FFE0
FFE0
03E0
07C0
0F80
1F00
3E00
7C00
FFE0
FFE0
ENDCHAR
STARTCHAR zacute
ENCODING 378
SWIDTH 600 0
DWIDTH 12 0
BBX 11 15 0 0
BITMAP
0300
0700
0E00
0C00
0000
FFE0
FFE0
03E0
07C0
0F80
1F00
3E00
7C00
FFE0
FFE0
ENDCHAR
STARTCHAR Zdot
ENCODING 379
SWIDTH 600 0
DWIDTH 12 0
BBX 11 15 0 0
BITMAP
0E00
0E00
0E00
0000
0000
FFE0
FFE0
03E0
07C0
0F80
1F00
3E00
7C00
FFE0
FFE0
ENDCHAR
STARTCHAR zdot
ENCODING 380
SWIDTH 600 0
DWIDTH 12 0
BBX 11 15 0 0
BITMAP
0E00
0E00
0E00
0000
0000
FFE0
FFE0
03E0
07C0
0F80
1F00
3E00
7C00
FFE0
FFE0
ENDCHAR
STARTCHAR Zcaron
ENCODING 381
SWIDTH 600 0
DWIDTH 12 0
BBX 11 15 0 0
BITMAP
3180
1B00
0E00
0400
0000
FFE0
FFE0
03E0
07C0
0F80
1F00
3E00
7C00
FFE0
FFE0
ENDCHAR
STARTCHAR zcaron
ENCODING 382
SWIDTH 600 0
DWIDTH 12 0
BBX 11 15 0 0
BITMAP
3180
1B00
0E00
0400
0000
FFE0
FFE0
03E0
07C0
0F80
1F00
3E00
7C00
FFE0
FFE0
ENDCHAR
STARTCHAR longs
ENCODING 383
SWIDTH 500 0
DWIDTH 10 0
BBX 9 14 0 -2
BITMAP
1F80
3F80
3C00
3C00
3C00
3C00
3C00
3C00
3C00
3C00
3C00
3C00
FC00
F800
ENDCHAR
STARTCHAR florin
ENCODING 402
SWIDTH 450 0
DWIDTH 9 0
BBX 8 12 0 -2
BITMAP
3F
7F
78
78
FC
FC
78
78
78
78
78
F0
ENDCHAR
STARTCHAR AEacute
ENCODING 508
SWIDTH 950 0
DWIDTH 19 0
BBX 18 15 0 0
BITMAP
006000
00E000
01C000
018000
000000
7FFFC0
FFFFC0
F1E000
F1E000
FFFC00
FFFC00
F1E000
F1E000
F1FFC0
F1FFC0
ENDCHAR
STARTCHAR aeacute
ENCODING 509
SWIDTH 950 0
DWIDTH 19 0
BBX 18 15 0 0
BITMAP
006000
00E000
01C000
018000
000000
7FFFC0
FFFFC0
F1E000
F1E000
FFFC00
FFFC00
F1E000
F1E000
F1FFC0
F1FFC0
ENDCHAR
STARTCHAR Oslashacute
ENCODING 510
SWIDTH 600 0
DWIDTH 12 0
BBX 11 17 0 -2
BITMAP
0300
0700
0E00
0C60
00E0
7FC0
FFE0
F3E0
F7E0
F7E0
FDE0
FDE0
F9E0
FFE0
7FC0
E000
C000
ENDCHAR
STARTCHAR oslashacute
ENCODING 511
SWIDTH 600 0
DWIDTH 12 0
BBX 11 17 0 -2
BITMAP
0300
0700
0E00
0C60
00E0
7FC0
FFE0
F3E0
F7E0
F7E0
FDE0
FDE0
F9E0
FFE0
7FC0
E000
C000
ENDCHAR
STARTCHAR Scommaaccent
ENCODING 536
SWIDTH 600 0
DWIDTH 12 0
BBX 11 13 0 -3
BITMAP
7FE0
FFE0
F000
F000
FFC0
7FE0
01E0
01E0
FFE0
FFC0
0000
0E00
0E00
ENDCHAR
STARTCHAR scommaaccent
ENCODING 537
SWIDTH 600 0
DWIDTH 12 0
BBX 11 13 0 -3
BITMAP
7FE0
FFE0
F000
F000
FFC0
7FE0
01E0
01E0
FFE0
FFC0
0000
0E00
0E00
ENDCHAR
STARTCHAR Tcommabelow
ENCODING 538
SWIDTH 550 0
DWIDTH 11 0
BBX 10 13 0 -3
BITMAP
FFC0
FFC0
1E00
1E00
1E00
1E00
1E00
1E00
1E00
1E00
0000
1E00
1E00
ENDCHAR
STARTCHAR tcommabelow
ENCODING 539
SWIDTH 550 0
DWIDTH 11 0
BBX 10 13 0 -3
BITMAP
FFC0
FFC0
1E00
1E00
1E00
1E00
1E00
1E00
1E00
1E00
0000
1E00
1E00
ENDCHAR
STARTCHAR dotlessj
ENCODING 567
SWIDTH 600 0
DWIDTH 12 0
BBX 11 10 0 0
BITMAP
01E0
01E0
01E0
01E0
01E0
01E0
F1E0
F1E0
FFE0
7FC0
ENDCHAR
STARTCHAR circumflex
ENCODING 710
SWIDTH 600 0
DWIDTH 12 0
BBX 7 4 2 11
BITMAP
10
38
6C
C6
ENDCHAR
STARTCHAR caron
ENCODING 711
SWIDTH 600 0
DWIDTH 12 0
BBX 7 4 2 11
BITMAP
C6
6C
38
10
ENDCHAR
STARTCHAR firsttonechinese
ENCODING 713
SWIDTH 600 0
DWIDTH 12 0
BBX 11 2 0 11
BITMAP
FFE0
FFE0
ENDCHAR
STARTCHAR breve
ENCODING 728
SWIDTH 600 0
DWIDTH 12 0
BBX 7 3 2 11
BITMAP
C6
FE
7C
ENDCHAR
STARTCHAR dotaccent
ENCODING 729
SWIDTH 600 0
DWIDTH 12 0
BBX 3 3 4 11
BITMAP
E0
E0
E0
ENDCHAR
STARTCHAR ring
ENCODING 730
SWIDTH 600 0
DWIDTH 12 0
BBX 7 4 2 11
BITMAP
FE
C6
C6
FE
ENDCHAR
STARTCHAR ogonek
ENCODING 731
SWIDTH 600 0
DWIDTH 12 0
BBX 4 2 4 -2
BITMAP
E0
70
ENDCHAR
STARTCHAR tilde
ENCODING 732
SWIDTH 600 0
DWIDTH 12 0
BBX 7 4 2 11
BITMAP
66
F6
DE
CC
ENDCHAR
STARTCHAR hungarumlaut
ENCODING 733
SWIDTH 600 0
DWIDTH 12 0
BBX 9 4 2 11
BITMAP
3180
7380
E700
C600
ENDCHAR
STARTCHAR gravecmb
ENCODING 768
SWIDTH 600 0
DWIDTH 12 0
BBX 4 4 3 11
BITMAP
C0
E0
70
30
ENDCHAR
STARTCHAR acutecmb
ENCODING 769
SWIDTH 600 0
DWIDTH 12 0
BBX 4 4 4 11
BITMAP
30
70
E0
C0
ENDCHAR
STARTCHAR circumflexcmb
ENCODING 770
SWIDTH 600 0
DWIDTH 12 0
BBX 7 4 2 11
BITMAP
10
38
6C
C6
ENDCHAR
STARTCHAR tildecmb
ENCODING 771
SWIDTH 600 0
DWIDTH 12 0
BBX 7 4 2 11
BITMAP
66
F6
DE
CC
ENDCHAR
STARTCHAR macroncmb
ENCODING 772
SWIDTH 600 0
DWIDTH 12 0
BBX 11 2 0 12
BITMAP
FFE0
FFE0
ENDCHAR
STARTCHAR brevecmb
ENCODING 774
SWIDTH 600 0
DWIDTH 12 0
BBX 7 3 2 11
BITMAP
C6
FE
7C
ENDCHAR
STARTCHAR dotaccentcmb
ENCODING 775
SWIDTH 600 0
DWIDTH 12 0
BBX 3 3 4 12
BITMAP
E0
E0
E0
ENDCHAR
STARTCHAR dieresiscmb
ENCODING 776
SWIDTH 600 0
DWIDTH 12 0
BBX 9 3 1 12
BITMAP
E380
E380
E380
ENDCHAR
STARTCHAR ringcmb
ENCODING 778
SWIDTH 600 0
DWIDTH 12 0
BBX 7 4 2 11
BITMAP
FE
C6
C6
FE
ENDCHAR
STARTCHAR hungarumlautcmb
ENCODING 779
SWIDTH 600 0
DWIDTH 12 0
BBX 9 4 2 11
BITMAP
3180
7380
E700
C600
ENDCHAR
STARTCHAR caroncmb
ENCODING 780
SWIDTH 600 0
DWIDTH 12 0
BBX 7 4 2 11
BITMAP
C6
6C
38
10
ENDCHAR
STARTCHAR uni0326
ENCODING 806
SWIDTH 600 0
DWIDTH 12 0
BBX 3 3 4 -4
BITMAP
E0
60
C0
ENDCHAR
STARTCHAR cedillacmb
ENCODING 807
SWIDTH 600 0
DWIDTH 12 0
BBX 4 3 3 -3
BITMAP
70
70
E0
ENDCHAR
STARTCHAR ogonekcmb
ENCODING 808
SWIDTH 600 0
DWIDTH 12 0
BBX 4 3 4 -3
BITMAP
E0
E0
70
ENDCHAR
STARTCHAR dialytikatonoscmb
ENCODING 836
SWIDTH 600 0
DWIDTH 12 0
BBX 9 4 1 11
BITMAP
0600
0E00
DD80
D980
ENDCHAR
STARTCHAR uni0370
ENCODING 880
SWIDTH 400 0
DWIDTH 8 0
BBX 7 10 0 0
BITMAP
F0
F0
F0
F0
FE
FE
F0
F0
F0
F0
ENDCHAR
STARTCHAR uni0371
ENCODING 881
SWIDTH 400 0
DWIDTH 8 0
BBX 7 10 0 0
BITMAP
F0
F0
F0
F0
FE
FE
F0
F0
F0
F0
ENDCHAR
STARTCHAR uni0372
ENCODING 882
SWIDTH 650 0
DWIDTH 13 0
BBX 12 10 0 0
BITMAP
FFF0
FFF0
EF70
EF70
0F00
0F00
0F00
0F00
0F00
0F00
ENDCHAR
STARTCHAR uni0373
ENCODING 883
SWIDTH 650 0
DWIDTH 13 0
BBX 12 10 0 0
BITMAP
FFF0
FFF0
EF70
EF70
0F00
0F00
0F00
0F00
0F00
0F00
ENDCHAR
STARTCHAR numeralsigngreek
ENCODING 884
SWIDTH 250 0
DWIDTH 5 0
BBX 4 4 0 6
BITMAP
30
70
E0
C0
ENDCHAR
STARTCHAR numeralsignlowergreek
ENCODING 885
SWIDTH 250 0
DWIDTH 5 0
BBX 4 4 0 0
BITMAP
30
70
E0
C0
ENDCHAR
STARTCHAR uni0376
ENCODING 886
SWIDTH 600 0
DWIDTH 12 0
BBX 11 10 0 0
BITMAP
F1E0
F1E0
F1E0
F3E0
F7E0
FFE0
FFE0
FDE0
F9E0
F1E0
ENDCHAR
STARTCHAR uni0377
ENCODING 887
SWIDTH 600 0
DWIDTH 12 0
BBX 11 10 0 0
BITMAP
F1E0
F1E0
F1E0
F3E0
F7E0
FFE0
FFE0
FDE0
F9E0
F1E0
ENDCHAR
STARTCHAR ypogegrammeni
ENCODING 890
SWIDTH 600 0
DWIDTH 12 0
BBX 4 3 4 -3
BITMAP
E0
E0
70
ENDCHAR
STARTCHAR uni037B
ENCODING 891
SWIDTH 600 0
DWIDTH 12 0
BBX 11 10 0 0
BITMAP
7FC0
FFE0
F1E0
F1E0
01E0
01E0
F1E0
F1E0
FFE0
7FC0
ENDCHAR
STARTCHAR uni037C
ENCODING 892
SWIDTH 600 0
DWIDTH 12 0
BBX 11 10 0 0
BITMAP
7FC0
FFE0
F1E0
F1E0
F600
F600
F1E0
F1E0
FFE0
7FC0
ENDCHAR
STARTCHAR uni037D
ENCODING 893
SWIDTH 600 0
DWIDTH 12 0
BBX 11 10 0 0
BITMAP
7FC0
FFE0
F1E0
F1E0
0DE0
0DE0
F1E0
F1E0
FFE0
7FC0
ENDCHAR
STARTCHAR questiongreek
ENCODING 894
SWIDTH 200 0
DWIDTH 4 0
BBX 3 12 0 -2
BITMAP
E0
E0
00
00
00
00
00
00
E0
E0
E0
E0
ENDCHAR
STARTCHAR tonos
ENCODING 900
SWIDTH 600 0
DWIDTH 12 0
BBX 4 4 4 11
BITMAP
30
70
E0
C0
ENDCHAR
STARTCHAR dialytikatonos
ENCODING 901
SWIDTH 600 0
DWIDTH 12 0
BBX 9 4 1 11
BITMAP
0600
0E00
DD80
D980
ENDCHAR
STARTCHAR Alphatonos
ENCODING 902
SWIDTH 600 0
DWIDTH 12 0
BBX 11 15 0 0
BITMAP
0300
0700
0E00
0C00
0000
7FC0
FFE0
F1E0
F1E0
FFE0
FFE0
F1E0
F1E0
F1E0
F1E0
ENDCHAR
STARTCHAR anoteleia
ENCODING 903
SWIDTH 250 0
DWIDTH 5 0
BBX 4 4 0 3
BITMAP
F0
F0
F0
F0
ENDCHAR
STARTCHAR Epsilontonos
ENCODING 904
SWIDTH 600 0
DWIDTH 12 0
BBX 11 15 0 0
BITMAP
0300
0700
0E00
0C00
0000
7FE0
FFE0
F000
F000
FE00
FE00
F000
F000
FFE0
7FE0
ENDCHAR
STARTCHAR Etatonos
ENCODING 905
SWIDTH 600 0
DWIDTH 12 0
BBX 11 15 0 0
BITMAP
0300
0700
0E00
0C00
0000
F1E0
F1E0
F1E0
F1E0
FFE0
FFE0
F1E0
F1E0
F1E0
F1E0
ENDCHAR
STARTCHAR Iotatonos
ENCODING 906
SWIDTH 550 0
DWIDTH 11 0
BBX 10 15 0 0
BITMAP
0600
0E00
1C00
1800
0000
FFC0
FFC0
1E00
1E00
1E00
1E00
1E00
1E00
FFC0
FFC0
ENDCHAR
STARTCHAR Omicrontonos
ENCODING 908
SWIDTH 600 0
DWIDTH 12 0
BBX 11 15 0 0
BITMAP
0300
0700
0E00
0C00
0000
7FC0
FFE0
F1E0
F1E0
F1E0
F1E0
F1E0
F1E0
FFE0
7FC0
ENDCHAR
STARTCHAR Upsilontonos
ENCODING 910
SWIDTH 650 0
DWIDTH 13 0
BBX 12 15 0 0
BITMAP
0180
0380
0700
0600
0000
E070
F0F0
F9F0
7FE0
3FC0
1F80
0F00
0F00
0F00
0F00
ENDCHAR
STARTCHAR Omegatonos
ENCODING 911
SWIDTH 600 0
DWIDTH 12 0
BBX 11 15 0 0
BITMAP
0300
0700
0E00
0C00
0000
7FC0
FFE0
F1E0
F1E0
F1E0
F1E0
F1E0
7BC0
FBE0
FBE0
ENDCHAR
STARTCHAR iotadieresistonos
ENCODING 912
SWIDTH 550 0
DWIDTH 11 0
BBX 10 15 0 0
BITMAP
0600
0E00
DCC0
D8C0
0000
FFC0
FFC0
1E00
1E00
1E00
1E00
1E00
1E00
FFC0
FFC0
ENDCHAR
STARTCHAR Alpha
ENCODING 913
SWIDTH 600 0
DWIDTH 12 0
BBX 11 10 0 0
BITMAP
7FC0
FFE0
F1E0
F1E0
FFE0
FFE0
F1E0
F1E0
F1E0
F1E0
ENDCHAR
STARTCHAR Beta
ENCODING 914
SWIDTH 600 0
DWIDTH 12 0
BBX 11 10 0 0
BITMAP
FFC0
FFE0
F1E0
F1E0
FFC0
FFC0
F1E0
F1E0
FFE0
FFC0
ENDCHAR
STARTCHAR Gamma
ENCODING 915
SWIDTH 600 0
DWIDTH 12 0
BBX 11 10 0 0
BITMAP
FFE0
FFE0
F000
F000
F000
F000
F000
F000
F000
F000
ENDCHAR
STARTCHAR Deltagreek
ENCODING 916
SWIDTH 600 0
DWIDTH 12 0
BBX 11 10 0 0
BITMAP
FF80
FFC0
F3E0
F1E0
F1E0
F1E0
F1E0
F3E0
FFC0
FF80
ENDCHAR
STARTCHAR Epsilon
ENCODING 917
SWIDTH 600 0
DWIDTH 12 0
BBX 11 10 0 0
BITMAP
7FE0
FFE0
F000
F000
FE00
FE00
F000
F000
FFE0
7FE0
ENDCHAR
STARTCHAR Zeta
ENCODING 918
SWIDTH 600 0
DWIDTH 12 0
BBX 11 10 0 0
BITMAP
FFE0
FFE0
03E0
07C0
0F80
1F00
3E00
7C00
FFE0
FFE0
ENDCHAR
STARTCHAR Eta
ENCODING 919
SWIDTH 600 0
DWIDTH 12 0
BBX 11 10 0 0
BITMAP
F1E0
F1E0
F1E0
F1E0
FFE0
FFE0
F1E0
F1E0
F1E0
F1E0
ENDCHAR
STARTCHAR Theta
ENCODING 920
SWIDTH 600 0
DWIDTH 12 0
BBX 11 10 0 0
BITMAP
7FC0
FFE0
F1E0
F1E0
FFE0
FFE0
F1E0
F1E0
FFE0
7FC0
ENDCHAR
STARTCHAR Iota
ENCODING 921
SWIDTH 550 0
DWIDTH 11 0
BBX 10 10 0 0
BITMAP
FFC0
FFC0
1E00
1E00
1E00
1E00
1E00
1E00
FFC0
FFC0
ENDCHAR
STARTCHAR Kappa
ENCODING 922
SWIDTH 600 0
DWIDTH 12 0
BBX 11 10 0 0
BITMAP
F1E0
F3E0
F7C0
FF80
FF00
FF00
FF80
F7C0
F3E0
F1E0
ENDCHAR
STARTCHAR Lambda
ENCODING 923
SWIDTH 600 0
DWIDTH 12 0
BBX 11 10 0 0
BITMAP
0FE0
1FE0
3FE0
7DE0
F9E0
F1E0
F1E0
F1E0
F1E0
F1E0
ENDCHAR
STARTCHAR Mu
ENCODING 924
SWIDTH 700 0
DWIDTH 14 0
BBX 13 10 0 0
BITMAP
F078
F8F8
FDF8
FFF8
FFF8
F778
F278
F078
F078
F078
ENDCHAR
STARTCHAR Nu
ENCODING 925
SWIDTH 600 0
DWIDTH 12 0
BBX 11 10 0 0
BITMAP
F1E0
F9E0
FDE0
FFE0
FFE0
F7E0
F3E0
F1E0
F1E0
F1E0
ENDCHAR
STARTCHAR Xi
ENCODING 926
SWIDTH 600 0
DWIDTH 12 0
BBX 11 10 0 0
BITMAP
FFE0
FFE0
0780
1E00
7FC0
7FC0
0F00
3C00
FFE0
FFE0
ENDCHAR
STARTCHAR Omicron
ENCODING 927
SWIDTH 600 0
DWIDTH 12 0
BBX 11 10 0 0
BITMAP
7FC0
FFE0
F1E0
F1E0
F1E0
F1E0
F1E0
F1E0
FFE0
7FC0
ENDCHAR
STARTCHAR Pi
ENCODING 928
SWIDTH 600 0
DWIDTH 12 0
BBX 11 10 0 0
BITMAP
FFE0
FFE0
F1E0
F1E0
F1E0
F1E0
F1E0
F1E0
F1E0
F1E0
ENDCHAR
STARTCHAR Rho
ENCODING 929
SWIDTH 600 0
DWIDTH 12 0
BBX 11 10 0 0
BITMAP
FFC0
FFE0
F1E0
F1E0
FFE0
FFC0
F000
F000
F000
F000
ENDCHAR
STARTCHAR Sigma
ENCODING 931
SWIDTH 600 0
DWIDTH 12 0
BBX 11 10 0 0
BITMAP
FFE0
FFE0
7800
3C00
1E00
1E00
3C00
7800
FFE0
FFE0
ENDCHAR
STARTCHAR Tau
ENCODING 932
SWIDTH 550 0
DWIDTH 11 0
BBX 10 10 0 0
BITMAP
FFC0
FFC0
1E00
1E00
1E00
1E00
1E00
1E00
1E00
1E00
ENDCHAR
STARTCHAR Upsilon
ENCODING 933
SWIDTH 650 0
DWIDTH 13 0
BBX 12 10 0 0
BITMAP
E070
F0F0
F9F0
7FE0
3FC0
1F80
0F00
0F00
0F00
0F00
ENDCHAR
STARTCHAR Phi
ENCODING 934
SWIDTH 850 0
DWIDTH 17 0
BBX 16 10 0 0
BITMAP
7FFE
FFFF
F3CF
F3CF
F3CF
F3CF
F3CF
FFFF
7FFE
03C0
ENDCHAR
STARTCHAR Chi
ENCODING 935
SWIDTH 600 0
DWIDTH 12 0
BBX 11 10 0 0
BITMAP
E0E0
F1E0
FBE0
7FC0
3F80
3F80
7FC0
FBE0
F1E0
E0E0
ENDCHAR
STARTCHAR Psi
ENCODING 936
SWIDTH 850 0
DWIDTH 17 0
BBX 16 10 0 0
BITMAP
F3CF
F3CF
F3CF
F3CF
F3CF
FFFF
7FFE
03C0
03C0
03C0
ENDCHAR
STARTCHAR Omegagreek
ENCODING 937
SWIDTH 600 0
DWIDTH 12 0
BBX 11 10 0 0
BITMAP
7FC0
FFE0
F1E0
F1E0
F1E0
F1E0
F1E0
7BC0
FBE0
FBE0
ENDCHAR
STARTCHAR Iotadieresis
ENCODING 938
SWIDTH 550 0
DWIDTH 11 0
BBX 10 15 0 0
BITMAP
7380
7380
7380
0000
0000
FFC0
FFC0
1E00
1E00
1E00
1E00
1E00
1E00
FFC0
FFC0
ENDCHAR
STARTCHAR Upsilondieresis
ENCODING 939
SWIDTH 650 0
DWIDTH 13 0
BBX 12 15 0 0
BITMAP
39C0
39C0
39C0
0000
0000
E070
F0F0
F9F0
7FE0
3FC0
1F80
0F00
0F00
0F00
0F00
ENDCHAR
STARTCHAR alphatonos
ENCODING 940
SWIDTH 600 0
DWIDTH 12 0
BBX 11 15 0 0
BITMAP
0300
0700
0E00
0C00
0000
7FC0
FFE0
F1E0
F1E0
FFE0
FFE0
F1E0
F1E0
F1E0
F1E0
ENDCHAR
STARTCHAR epsilontonos
ENCODING 941
SWIDTH 600 0
DWIDTH 12 0
BBX 11 15 0 0
BITMAP
0300
0700
0E00
0C00
0000
7FE0
FFE0
F000
F000
FE00
FE00
F000
F000
FFE0
7FE0
ENDCHAR
STARTCHAR etatonos
ENCODING 942
SWIDTH 600 0
DWIDTH 12 0
BBX 11 15 0 0
BITMAP
0300
0700
0E00
0C00
0000
F1E0
F1E0
F1E0
F1E0
FFE0
FFE0
F1E0
F1E0
F1E0
F1E0
ENDCHAR
STARTCHAR iotatonos
ENCODING 943
SWIDTH 550 0
DWIDTH 11 0
BBX 10 15 0 0
BITMAP
0600
0E00
1C00
1800
0000
FFC0
FFC0
1E00
1E00
1E00
1E00
1E00
1E00
FFC0
FFC0
ENDCHAR
STARTCHAR upsilondieresistonos
ENCODING 944
SWIDTH 650 0
DWIDTH 13 0
BBX 12 15 0 0
BITMAP
0180
0380
0700
0600
0000
E070
F0F0
F9F0
7FE0
3FC0
1F80
0F00
0F00
0F00
0F00
ENDCHAR
STARTCHAR alpha
ENCODING 945
SWIDTH 600 0
DWIDTH 12 0
BBX 11 10 0 0
BITMAP
7FC0
FFE0
F1E0
F1E0
FFE0
FFE0
F1E0
F1E0
F1E0
F1E0
ENDCHAR
STARTCHAR beta
ENCODING 946
SWIDTH 600 0
DWIDTH 12 0
BBX 11 10 0 0
BITMAP
FFC0
FFE0
F1E0
F1E0
FFC0
FFC0
F1E0
F1E0
FFE0
FFC0
ENDCHAR
STARTCHAR gamma
ENCODING 947
SWIDTH 600 0
DWIDTH 12 0
BBX 11 10 0 0
BITMAP
FFE0
FFE0
F000
F000
F000
F000
F000
F000
F000
F000
ENDCHAR
STARTCHAR delta
ENCODING 948
SWIDTH 600 0
DWIDTH 12 0
BBX 11 10 0 0
BITMAP
FF80
FFC0
F3E0
F1E0
F1E0
F1E0
F1E0
F3E0
FFC0
FF80
ENDCHAR
STARTCHAR epsilon
ENCODING 949
SWIDTH 600 0
DWIDTH 12 0
BBX 11 10 0 0
BITMAP
7FE0
FFE0
F000
F000
FE00
FE00
F000
F000
FFE0
7FE0
ENDCHAR
STARTCHAR zeta
ENCODING 950
SWIDTH 600 0
DWIDTH 12 0
BBX 11 10 0 0
BITMAP
FFE0
FFE0
03E0
07C0
0F80
1F00
3E00
7C00
FFE0
FFE0
ENDCHAR
STARTCHAR eta
ENCODING 951
SWIDTH 600 0
DWIDTH 12 0
BBX 11 10 0 0
BITMAP
F1E0
F1E0
F1E0
F1E0
FFE0
FFE0
F1E0
F1E0
F1E0
F1E0
ENDCHAR
STARTCHAR theta
ENCODING 952
SWIDTH 600 0
DWIDTH 12 0
BBX 11 10 0 0
BITMAP
7FC0
FFE0
F1E0
F1E0
FFE0
FFE0
F1E0
F1E0
FFE0
7FC0
ENDCHAR
STARTCHAR iota
ENCODING 953
SWIDTH 550 0
DWIDTH 11 0
BBX 10 10 0 0
BITMAP
FFC0
FFC0
1E00
1E00
1E00
1E00
1E00
1E00
FFC0
FFC0
ENDCHAR
STARTCHAR kappa
ENCODING 954
SWIDTH 600 0
DWIDTH 12 0
BBX 11 10 0 0
BITMAP
F1E0
F3E0
F7C0
FF80
FF00
FF00
FF80
F7C0
F3E0
F1E0
ENDCHAR
STARTCHAR lambda
ENCODING 955
SWIDTH 600 0
DWIDTH 12 0
BBX 11 10 0 0
BITMAP
0FE0
1FE0
3FE0
7DE0
F9E0
F1E0
F1E0
F1E0
F1E0
F1E0
ENDCHAR
STARTCHAR mugreek
ENCODING 956
SWIDTH 700 0
DWIDTH 14 0
BBX 13 10 0 0
BITMAP
F078
F8F8
FDF8
FFF8
FFF8
F778
F278
F078
F078
F078
ENDCHAR
STARTCHAR nu
ENCODING 957
SWIDTH 600 0
DWIDTH 12 0
BBX 11 10 0 0
BITMAP
F1E0
F9E0
FDE0
FFE0
FFE0
F7E0
F3E0
F1E0
F1E0
F1E0
ENDCHAR
STARTCHAR xi
ENCODING 958
SWIDTH 600 0
DWIDTH 12 0
BBX 11 10 0 0
BITMAP
FFE0
FFE0
0780
1E00
7FC0
7FC0
0F00
3C00
FFE0
FFE0
ENDCHAR
STARTCHAR omicron
ENCODING 959
SWIDTH 600 0
DWIDTH 12 0
BBX 11 10 0 0
BITMAP
7FC0
FFE0
F1E0
F1E0
F1E0
F1E0
F1E0
F1E0
FFE0
7FC0
ENDCHAR
STARTCHAR pi
ENCODING 960
SWIDTH 600 0
DWIDTH 12 0
BBX 11 10 0 0
BITMAP
FFE0
FFE0
F1E0
F1E0
F1E0
F1E0
F1E0
F1E0
F1E0
F1E0
ENDCHAR
STARTCHAR rho
ENCODING 961
SWIDTH 600 0
DWIDTH 12 0
BBX 11 10 0 0
BITMAP
FFC0
FFE0
F1E0
F1E0
FFE0
FFC0
F000
F000
F000
F000
ENDCHAR
STARTCHAR sigma1
ENCODING 962
SWIDTH 600 0
DWIDTH 12 0
BBX 11 10 0 0
BITMAP
FFE0
FFE0
7800
3C00
1E00
1E00
3C00
7800
FFE0
FFE0
ENDCHAR
STARTCHAR sigma
ENCODING 963
SWIDTH 600 0
DWIDTH 12 0
BBX 11 10 0 0
BITMAP
FFE0
FFE0
7800
3C00
1E00
1E00
3C00
7800
FFE0
FFE0
ENDCHAR
STARTCHAR tau
ENCODING 964
SWIDTH 550 0
DWIDTH 11 0
BBX 10 10 0 0
BITMAP
FFC0
FFC0
1E00
1E00
1E00
1E00
1E00
1E00
1E00
1E00
ENDCHAR
STARTCHAR upsilon
ENCODING 965
SWIDTH 650 0
DWIDTH 13 0
BBX 12 10 0 0
BITMAP
E070
F0F0
F9F0
7FE0
3FC0
1F80
0F00
0F00
0F00
0F00
ENDCHAR
STARTCHAR phi
ENCODING 966
SWIDTH 850 0
DWIDTH 17 0
BBX 16 10 0 0
BITMAP
7FFE
FFFF
F3CF
F3CF
F3CF
F3CF
F3CF
FFFF
7FFE
03C0
ENDCHAR
STARTCHAR chi
ENCODING 967
SWIDTH 600 0
DWIDTH 12 0
BBX 11 10 0 0
BITMAP
E0E0
F1E0
FBE0
7FC0
3F80
3F80
7FC0
FBE0
F1E0
E0E0
ENDCHAR
STARTCHAR psi
ENCODING 968
SWIDTH 850 0
DWIDTH 17 0
BBX 16 10 0 0
BITMAP
F3CF
F3CF
F3CF
F3CF
F3CF
FFFF
7FFE
03C0
03C0
03C0
ENDCHAR
STARTCHAR omega
ENCODING 969
SWIDTH 600 0
DWIDTH 12 0
BBX 11 10 0 0
BITMAP
7FC0
FFE0
F1E0
F1E0
F1E0
F1E0
F1E0
7BC0
FBE0
FBE0
ENDCHAR
STARTCHAR iotadieresis
ENCODING 970
SWIDTH 550 0
DWIDTH 11 0
BBX 10 15 0 0
BITMAP
7380
7380
7380
0000
0000
FFC0
FFC0
1E00
1E00
1E00
1E00
1E00
1E00
FFC0
FFC0
ENDCHAR
STARTCHAR upsilondieresis
ENCODING 971
SWIDTH 650 0
DWIDTH 13 0
BBX 12 15 0 0
BITMAP
39C0
39C0
39C0
0000
0000
E070
F0F0
F9F0
7FE0
3FC0
1F80
0F00
0F00
0F00
0F00
ENDCHAR
STARTCHAR omicrontonos
ENCODING 972
SWIDTH 600 0
DWIDTH 12 0
BBX 11 15 0 0
BITMAP
0300
0700
0E00
0C00
0000
7FC0
FFE0
F1E0
F1E0
F1E0
F1E0
F1E0
F1E0
FFE0
7FC0
ENDCHAR
STARTCHAR upsilontonos
ENCODING 973
SWIDTH 650 0
DWIDTH 13 0
BBX 12 15 0 0
BITMAP
0180
0380
0700
0600
0000
E070
F0F0
F9F0
7FE0
3FC0
1F80
0F00
0F00
0F00
0F00
ENDCHAR
STARTCHAR omegatonos
ENCODING 974
SWIDTH 600 0
DWIDTH 12 0
BBX 11 15 0 0
BITMAP
0300
0700
0E00
0C00
0000
7FC0
FFE0
F1E0
F1E0
F1E0
F1E0
F1E0
7BC0
FBE0
FBE0
ENDCHAR
STARTCHAR betasymbolgreek
ENCODING 976
SWIDTH 600 0
DWIDTH 12 0
BBX 11 10 0 0
BITMAP
7FC0
FFE0
F1E0
F1E0
FFC0
FFC0
F1E0
F1E0
FFE0
7FC0
ENDCHAR
STARTCHAR theta1
ENCODING 977
SWIDTH 600 0
DWIDTH 12 0
BBX 11 10 0 0
BITMAP
7FC0
FFE0
F1E0
F1E0
FFE0
7FE0
01E0
F1E0
FFE0
7FC0
ENDCHAR
STARTCHAR Upsilon1
ENCODING 978
SWIDTH 650 0
DWIDTH 13 0
BBX 12 10 0 0
BITMAP
F0F0
F0F0
F0F0
F9F0
7FE0
3FC0
0F00
0F00
0F00
0F00
ENDCHAR
STARTCHAR Upsilonacutehooksymbolgreek
ENCODING 979
SWIDTH 650 0
DWIDTH 13 0
BBX 12 15 0 0
BITMAP
0180
0380
0700
0600
0000
E070
F0F0
F9F0
7FE0
3FC0
1F80
0F00
0F00
0F00
0F00
ENDCHAR
STARTCHAR Upsilondieresishooksymbolgreek
ENCODING 980
SWIDTH 650 0
DWIDTH 13 0
BBX 12 15 0 0
BITMAP
39C0
39C0
39C0
0000
0000
E070
F0F0
F9F0
7FE0
3FC0
1F80
0F00
0F00
0F00
0F00
ENDCHAR
STARTCHAR phi1
ENCODING 981
SWIDTH 850 0
DWIDTH 17 0
BBX 16 10 0 0
BITMAP
7FFE
FFFF
F3CF
F3CF
F3CF
F3CF
F3CF
FFFF
7FFE
03C0
ENDCHAR
STARTCHAR omega1
ENCODING 982
SWIDTH 700 0
DWIDTH 14 0
BBX 13 10 0 0
BITMAP
FFF8
FFF8
F078
F278
F778
FFF8
FFF8
FDF8
F8F8
F078
ENDCHAR
STARTCHAR uni03D7
ENCODING 983
SWIDTH 600 0
DWIDTH 12 0
BBX 11 12 0 -2
BITMAP
F1E0
F9E0
FDE0
FFE0
FFE0
F7E0
F3E0
F1E0
F1E0
F1E0
01E0
03C0
ENDCHAR
STARTCHAR uni03D8
ENCODING 984
SWIDTH 600 0
DWIDTH 12 0
BBX 11 12 0 -2
BITMAP
7FC0
FFE0
F1E0
F1E0
F1E0
F1E0
F1E0
F1E0
FFE0
7FC0
0E00
0E00
ENDCHAR
STARTCHAR uni03D9
ENCODING 985
SWIDTH 600 0
DWIDTH 12 0
BBX 11 12 0 -2
BITMAP
7FC0
FFE0
F1E0
F1E0
F1E0
F1E0
F1E0
F1E0
FFE0
7FC0
0E00
0E00
ENDCHAR
STARTCHAR Stigmagreek
ENCODING 986
SWIDTH 600 0
DWIDTH 12 0
BBX 11 13 0 -3
BITMAP
7FC0
FFE0
F1E0
F1E0
F000
F000
F1E0
F1E0
FFE0
7FE0
00E0
00E0
01C0
ENDCHAR
STARTCHAR uni03DB
ENCODING 987
SWIDTH 600 0
DWIDTH 12 0
BBX 11 13 0 -3
BITMAP
7FC0
FFE0
F1E0
F1E0
F000
F000
F1E0
F1E0
FFE0
7FE0
00E0
00E0
01C0
ENDCHAR
STARTCHAR Digammagreek
ENCODING 988
SWIDTH 600 0
DWIDTH 12 0
BBX 11 12 0 -2
BITMAP
7FE0
FFE0
F000
F000
FE00
FE00
F000
F000
F000
F000
F000
F000
ENDCHAR
STARTCHAR uni03DD
ENCODING 989
SWIDTH 600 0
DWIDTH 12 0
BBX 11 12 0 -2
BITMAP
7FE0
FFE0
F000
F000
FE00
FE00
F000
F000
F000
F000
F000
F000
ENDCHAR
STARTCHAR Koppagreek
ENCODING 990
SWIDTH 600 0
DWIDTH 12 0
BBX 11 12 0 -2
BITMAP
7FC0
FFE0
F1E0
F1E0
F1E0
F1E0
F1E0
F1E0
FFE0
7FC0
0E00
0E00
ENDCHAR
STARTCHAR uni03DF
ENCODING 991
SWIDTH 600 0
DWIDTH 12 0
BBX 11 12 0 -2
BITMAP
7FC0
FFE0
F1E0
F1E0
F1E0
F1E0
F1E0
F1E0
FFE0
7FC0
0E00
0E00
ENDCHAR
STARTCHAR Sampigreek
ENCODING 992
SWIDTH 600 0
DWIDTH 12 0
BBX 11 10 0 0
BITMAP
7FC0
FFE0
F1E0
F1E0
0FE0
0FE0
01E0
01E0
07E0
07C0
ENDCHAR
STARTCHAR uni03E1
ENCODING 993
SWIDTH 600 0
DWIDTH 12 0
BBX 11 10 0 0
BITMAP
7FC0
FFE0
F1E0
F1E0
0FE0
0FE0
01E0
01E0
07E0
07C0
ENDCHAR
STARTCHAR Sheicoptic
ENCODING 994
SWIDTH 950 0
DWIDTH 19 0
BBX 18 13 0 -3
BITMAP
F1E3C0
F1E3C0
F1E3C0
F1E3C0
F1E3C0
F1E3C0
F1E3C0
F1E3C0
FFFFC0
7FFFC0
0003C0
0003C0
000780
ENDCHAR
STARTCHAR sheicoptic
ENCODING 995
SWIDTH 950 0
DWIDTH 19 0
BBX 18 13 0 -3
BITMAP
F1E3C0
F1E3C0
F1E3C0
F1E3C0
F1E3C0
F1E3C0
F1E3C0
F1E3C0
FFFFC0
7FFFC0
0003C0
0003C0
000780
ENDCHAR
STARTCHAR Feicoptic
ENCODING 996
SWIDTH 600 0
DWIDTH 12 0
BBX 11 10 0 0
BITMAP
79E0
F1E0
F1E0
F1E0
FFE0
7FE0
01E0
01E0
01E0
01E0
ENDCHAR
STARTCHAR feicoptic
ENCODING 997
SWIDTH 600 0
DWIDTH 12 0
BBX 11 10 0 0
BITMAP
79E0
F1E0
F1E0
F1E0
FFE0
7FE0
01E0
01E0
01E0
01E0
ENDCHAR
STARTCHAR Kheicoptic
ENCODING 998
SWIDTH 600 0
DWIDTH 12 0
BBX 11 12 0 -2
BITMAP
F000
F000
F000
F000
FFC0
FFE0
F1E0
F1E0
F1E0
F1E0
01E0
03C0
ENDCHAR
STARTCHAR kheicoptic
ENCODING 999
SWIDTH 600 0
DWIDTH 12 0
BBX 11 12 0 -2
BITMAP
F000
F000
F000
F000
FFC0
FFE0
F1E0
F1E0
F1E0
F1E0
01E0
03C0
ENDCHAR
STARTCHAR Horicoptic
ENCODING 1000
SWIDTH 600 0
DWIDTH 12 0
BBX 11 10 0 0
BITMAP
7FC0
FFE0
F1E0
01E0
7FE0
FFC0
F000
F000
FFE0
7FE0
ENDCHAR
STARTCHAR horicoptic
ENCODING 1001
SWIDTH 600 0
DWIDTH 12 0
BBX 11 10 0 0
BITMAP
7FC0
FFE0
F1E0
01E0
7FE0
FFC0
F000
F000
FFE0
7FE0
ENDCHAR
STARTCHAR Gangiacoptic
ENCODING 1002
SWIDTH 600 0
DWIDTH 12 0
BBX 11 10 0 0
BITMAP
E0E0
F1E0
FBE0
7FC0
3F80
3F80
7FC0
FBE0
F1E0
FFE0
ENDCHAR
STARTCHAR gangiacoptic
ENCODING 1003
SWIDTH 600 0
DWIDTH 12 0
BBX 11 10 0 0
BITMAP
E0E0
F1E0
FBE0
7FC0
3F80
3F80
7FC0
FBE0
F1E0
FFE0
ENDCHAR
STARTCHAR Shimacoptic
ENCODING 1004
SWIDTH 600 0
DWIDTH 12 0
BBX 11 10 0 0
BITMAP
7FE0
FFE0
F000
F000
FFC0
FFE0
F1E0
F1E0
FFE0
FFE0
ENDCHAR
STARTCHAR shimacoptic
ENCODING 1005
SWIDTH 600 0
DWIDTH 12 0
BBX 11 10 0 0
BITMAP
7FE0
FFE0
F000
F000
FFC0
FFE0
F1E0
F1E0
FFE0
FFE0
ENDCHAR
STARTCHAR Deicoptic
ENCODING 1006
SWIDTH 550 0
DWIDTH 11 0
BBX 10 12 0 0
BITMAP
1E00
1E00
FFC0
FFC0
1E00
1E00
1E00
1E00
1E00
1E00
1E00
1E00
ENDCHAR
STARTCHAR deicoptic
ENCODING 1007
SWIDTH 550 0
DWIDTH 11 0
BBX 10 12 0 0
BITMAP
1E00
1E00
FFC0
FFC0
1E00
1E00
1E00
1E00
1E00
1E00
1E00
1E00
ENDCHAR
STARTCHAR kappasymbolgreek
ENCODING 1008
SWIDTH 600 0
DWIDTH 12 0
BBX 11 10 0 0
BITMAP
F1E0
F3E0
F7C0
FF80
FF00
FF00
FF80
F7C0
F3E0
F1E0
ENDCHAR
STARTCHAR rhosymbolgreek
ENCODING 1009
SWIDTH 600 0
DWIDTH 12 0
BBX 11 10 0 0
BITMAP
FFC0
FFE0
F1E0
F1E0
FFE0
FFC0
F000
F000
F000
F000
ENDCHAR
STARTCHAR sigmalunatesymbolgreek
ENCODING 1010
SWIDTH 600 0
DWIDTH 12 0
BBX 11 10 0 0
BITMAP
7FC0
FFE0
F1E0
F1E0
F000
F000
F1E0
F1E0
FFE0
7FC0
ENDCHAR
STARTCHAR yotgreek
ENCODING 1011
SWIDTH 600 0
DWIDTH 12 0
BBX 11 10 0 0
BITMAP
01E0
01E0
01E0
01E0
01E0
01E0
F1E0
F1E0
FFE0
7FC0
ENDCHAR
STARTCHAR uni03F4
ENCODING 1012
SWIDTH 600 0
DWIDTH 12 0
BBX 11 10 0 0
BITMAP
7FC0
FFE0
F1E0
F1E0
FFE0
FFE0
F1E0
F1E0
FFE0
7FC0
ENDCHAR
STARTCHAR uni03F5
ENCODING 1013
SWIDTH 600 0
DWIDTH 12 0
BBX 11 10 0 0
BITMAP
7FC0
FFE0
F1E0
F1E0
FE00
FE00
F1E0
F1E0
FFE0
7FC0
ENDCHAR
STARTCHAR uni03F6
ENCODING 1014
SWIDTH 600 0
DWIDTH 12 0
BBX 11 10 0 0
BITMAP
7FC0
FFE0
F1E0
F1E0
0FE0
0FE0
F1E0
F1E0
FFE0
7FC0
ENDCHAR
STARTCHAR uni03F7
ENCODING 1015
SWIDTH 600 0
DWIDTH 12 0
BBX 11 10 0 0
BITMAP
F000
F000
FFC0
FFE0
F1E0
F1E0
FFE0
FFC0
F000
F000
ENDCHAR
STARTCHAR uni03F8
ENCODING 1016
SWIDTH 600 0
DWIDTH 12 0
BBX 11 14 0 -2
BITMAP
F000
F000
F000
FFC0
FFE0
F1E0
F1E0
F1E0
F1E0
FFE0
FFC0
F000
F000
F000
ENDCHAR
STARTCHAR uni03F9
ENCODING 1017
SWIDTH 600 0
DWIDTH 12 0
BBX 11 10 0 0
BITMAP
7FC0
FFE0
F1E0
F1E0
F000
F000
F1E0
F1E0
FFE0
7FC0
ENDCHAR
STARTCHAR uni03FA
ENCODING 1018
SWIDTH 700 0
DWIDTH 14 0
BBX 13 12 0 -2
BITMAP
F078
F8F8
FDF8
FFF8
FFF8
F778
F278
F078
F078
F078
F000
F000
ENDCHAR
STARTCHAR uni03FB
ENCODING 1019
SWIDTH 700 0
DWIDTH 14 0
BBX 13 12 0 -2
BITMAP
F078
F8F8
FDF8
FFF8
FFF8
F778
F278
F078
F078
F078
F000
F000
ENDCHAR
STARTCHAR uni03FC
ENCODING 1020
SWIDTH 650 0
DWIDTH 13 0
BBX 12 10 0 0
BITMAP
7FE0
7FF0
78F0
78F0
7FF0
7FE0
7800
FE00
FE00
7800
ENDCHAR
STARTCHAR uni03FD
ENCODING 1021
SWIDTH 600 0
DWIDTH 12 0
BBX 11 10 0 0
BITMAP
7FC0
FFE0
F1E0
F1E0
01E0
01E0
F1E0
F1E0
FFE0
7FC0
ENDCHAR
STARTCHAR uni03FE
ENCODING 1022
SWIDTH 600 0
DWIDTH 12 0
BBX 11 10 0 0
BITMAP
7FC0
FFE0
F1E0
F1E0
F600
F600
F1E0
F1E0
FFE0
7FC0
ENDCHAR
STARTCHAR uni03FF
ENCODING 1023
SWIDTH 600 0
DWIDTH 12 0
BBX 11 10 0 0
BITMAP
7FC0
FFE0
F1E0
F1E0
0DE0
0DE0
F1E0
F1E0
FFE0
7FC0
ENDCHAR
STARTCHAR uni0400
ENCODING 1024
SWIDTH 600 0
DWIDTH 12 0
BBX 11 15 0 0
BITMAP
1800
1C00
0E00
0600
0000
7FE0
FFE0
F000
F000
FE00
FE00
F000
F000
FFE0
7FE0
ENDCHAR
STARTCHAR afii10023
ENCODING 1025
SWIDTH 600 0
DWIDTH 12 0
BBX 11 15 0 0
BITMAP
71C0
71C0
71C0
0000
0000
7FE0
FFE0
F000
F000
FE00
FE00
F000
F000
FFE0
7FE0
ENDCHAR
STARTCHAR afii10051
ENCODING 1026
SWIDTH 700 0
DWIDTH 14 0
BBX 13 10 0 0
BITMAP
FF00
FF00
3C00
3C00
3FF0
3FF8
3C78
3C78
3DF8
3DF0
ENDCHAR
STARTCHAR afii10052
ENCODING 1027
SWIDTH 600 0
DWIDTH 12 0
BBX 11 15 0 0
BITMAP
0300
0700
0E00
0C00
0000
FFE0
FFE0
F000
F000
F000
F000
F000
F000
F000
F000
ENDCHAR
STARTCHAR afii10053
ENCODING 1028
SWIDTH 600 0
DWIDTH 12 0
BBX 11 10 0 0
BITMAP
7FC0
FFE0
F1E0
F1E0
FE00
FE00
F1E0
F1E0
FFE0
7FC0
ENDCHAR
STARTCHAR afii10054
ENCODING 1029
SWIDTH 600 0
DWIDTH 12 0
BBX 11 10 0 0
BITMAP
7FE0
FFE0
F000
F000
FFC0
7FE0
01E0
01E0
FFE0
FFC0
ENDCHAR
STARTCHAR afii10055
ENCODING 1030
SWIDTH 550 0
DWIDTH 11 0
BBX 10 10 0 0
BITMAP
FFC0
FFC0
1E00
1E00
1E00
1E00
1E00
1E00
FFC0
FFC0
ENDCHAR
STARTCHAR afii10056
ENCODING 1031
SWIDTH 550 0
DWIDTH 11 0
BBX 10 15 0 0
BITMAP
7380
7380
7380
0000
0000
FFC0
FFC0
1E00
1E00
1E00
1E00
1E00
1E00
FFC0
FFC0
ENDCHAR
STARTCHAR afii10057
ENCODING 1032
SWIDTH 600 0
DWIDTH 12 0
BBX 11 10 0 0
BITMAP
01E0
01E0
01E0
01E0
01E0
01E0
F1E0
F1E0
FFE0
7FC0
ENDCHAR
STARTCHAR afii10058
ENCODING 1033
SWIDTH 950 0
DWIDTH 19 0
BBX 18 10 0 0
BITMAP
0FE000
1FE000
3FE000
7DE000
F9FF80
F1FFC0
F1E3C0
F1E3C0
F1FFC0
F1FF80
ENDCHAR
STARTCHAR afii10059
ENCODING 1034
SWIDTH 950 0
DWIDTH 19 0
BBX 18 10 0 0
BITMAP
F1E000
F1E000
F1E000
F1E000
FFFF80
FFFFC0
F1E3C0
F1E3C0
F1FFC0
F1FF80
ENDCHAR
STARTCHAR afii10060
ENCODING 1035
SWIDTH 700 0
DWIDTH 14 0
BBX 13 10 0 0
BITMAP
FF00
FF00
3C00
3C00
3FF0
3FF8
3C78
3C78
3C78
3C78
ENDCHAR
STARTCHAR afii10061
ENCODING 1036
SWIDTH 600 0
DWIDTH 12 0
BBX 11 15 0 0
BITMAP
0300
0700
0E00
0C00
0000
F1E0
F3E0
F7C0
FF80
FF00
FF00
FF80
F7C0
F3E0
F1E0
ENDCHAR
STARTCHAR uni040D
ENCODING 1037
SWIDTH 600 0
DWIDTH 12 0
BBX 11 15 0 0
BITMAP
1800
1C00
0E00
0600
0000
F1E0
F1E0
F1E0
F3E0
F7E0
FFE0
FFE0
FDE0
F9E0
F1E0
ENDCHAR
STARTCHAR afii10062
ENCODING 1038
SWIDTH 600 0
DWIDTH 12 0
BBX 11 14 0 0
BITMAP
3180
3F80
1F00
0000
F1E0
F1E0
F1E0
F1E0
FFE0
7FE0
01E0
01E0
FFE0
FFC0
ENDCHAR
STARTCHAR afii10145
ENCODING 1039
SWIDTH 600 0
DWIDTH 12 0
BBX 11 12 0 -2
BITMAP
F1E0
F1E0
F1E0
F1E0
F1E0
F1E0
F1E0
F1E0
FFE0
FFE0
0E00
0E00
ENDCHAR
STARTCHAR Acyrillic
ENCODING 1040
SWIDTH 600 0
DWIDTH 12 0
BBX 11 10 0 0
BITMAP
7FC0
FFE0
F1E0
F1E0
FFE0
FFE0
F1E0
F1E0
F1E0
F1E0
ENDCHAR
STARTCHAR afii10018
ENCODING 1041
SWIDTH 600 0
DWIDTH 12 0
BBX 11 10 0 0
BITMAP
FFE0
FFE0
F000
F000
FFC0
FFE0
F1E0
F1E0
FFE0
FFC0
ENDCHAR
STARTCHAR afii10019
ENCODING 1042
SWIDTH 600 0
DWIDTH 12 0
BBX 11 10 0 0
BITMAP
FFC0
FFE0
F1E0
F1E0
FFC0
FFC0
F1E0
F1E0
FFE0
FFC0
ENDCHAR
STARTCHAR afii10020
ENCODING 1043
SWIDTH 600 0
DWIDTH 12 0
BBX 11 10 0 0
BITMAP
FFE0
FFE0
F000
F000
F000
F000
F000
F000
F000
F000
ENDCHAR
STARTCHAR afii10021
ENCODING 1044
SWIDTH 700 0
DWIDTH 14 0
BBX 13 12 0 -2
BITMAP
3FF0
7FF0
78F0
78F0
78F0
78F0
78F0
78F0
FFF8
FFF8
F078
F078
ENDCHAR
STARTCHAR afii10022
ENCODING 1045
SWIDTH 600 0
DWIDTH 12 0
BBX 11 10 0 0
BITMAP
7FE0
FFE0
F000
F000
FE00
FE00
F000
F000
FFE0
7FE0
ENDCHAR
STARTCHAR afii10024
ENCODING 1046
SWIDTH 950 0
DWIDTH 19 0
BBX 18 10 0 0
BITMAP
79E780
7DEF80
3FFF00
1FFE00
0FFC00
1FFE00
3FFF00
7DEF80
F9E7C0
F1E3C0
ENDCHAR
STARTCHAR afii10025
ENCODING 1047
SWIDTH 600 0
DWIDTH 12 0
BBX 11 10 0 0
BITMAP
FFC0
FFE0
01E0
01E0
0FC0
0FC0
01E0
01E0
FFE0
FFC0
ENDCHAR
STARTCHAR afii10026
ENCODING 1048
SWIDTH 600 0
DWIDTH 12 0
BBX 11 10 0 0
BITMAP
F1E0
F1E0
F1E0
F3E0
F7E0
FFE0
FFE0
FDE0
F9E0
F1E0
ENDCHAR
STARTCHAR afii10027
ENCODING 1049
SWIDTH 600 0
DWIDTH 12 0
BBX 11 14 0 0
BITMAP
3180
3F80
1F00
0000
F1E0
F1E0
F1E0
F3E0
F7E0
FFE0
FFE0
FDE0
F9E0
F1E0
ENDCHAR
STARTCHAR afii10028
ENCODING 1050
SWIDTH 600 0
DWIDTH 12 0
BBX 11 10 0 0
BITMAP
F1E0
F3E0
F7C0
FF80
FF00
FF00
FF80
F7C0
F3E0
F1E0
ENDCHAR
STARTCHAR afii10029
ENCODING 1051
SWIDTH 600 0
DWIDTH 12 0
BBX 11 10 0 0
BITMAP
0FE0
1FE0
3FE0
7DE0
F9E0
F1E0
F1E0
F1E0
F1E0
F1E0
ENDCHAR
STARTCHAR afii10030
ENCODING 1052
SWIDTH 700 0
DWIDTH 14 0
BBX 13 10 0 0
BITMAP
F078
F8F8
FDF8
FFF8
FFF8
F778
F278
F078
F078
F078
ENDCHAR
STARTCHAR afii10031
ENCODING 1053
SWIDTH 600 0
DWIDTH 12 0
BBX 11 10 0 0
BITMAP
F1E0
F1E0
F1E0
F1E0
FFE0
FFE0
F1E0
F1E0
F1E0
F1E0
ENDCHAR
STARTCHAR afii10032
ENCODING 1054
SWIDTH 600 0
DWIDTH 12 0
BBX 11 10 0 0
BITMAP
7FC0
FFE0
F1E0
F1E0
F1E0
F1E0
F1E0
F1E0
FFE0
7FC0
ENDCHAR
STARTCHAR afii10033
ENCODING 1055
SWIDTH 600 0
DWIDTH 12 0
BBX 11 10 0 0
BITMAP
FFE0
FFE0
F1E0
F1E0
F1E0
F1E0
F1E0
F1E0
F1E0
F1E0
ENDCHAR
STARTCHAR afii10034
ENCODING 1056
SWIDTH 600 0
DWIDTH 12 0
BBX 11 10 0 0
BITMAP
FFC0
FFE0
F1E0
F1E0
FFE0
FFC0
F000
F000
F000
F000
ENDCHAR
STARTCHAR afii10035
ENCODING 1057
SWIDTH 600 0
DWIDTH 12 0
BBX 11 10 0 0
BITMAP
7FC0
FFE0
F1E0
F1E0
F000
F000
F1E0
F1E0
FFE0
7FC0
ENDCHAR
STARTCHAR afii10036
ENCODING 1058
SWIDTH 550 0
DWIDTH 11 0
BBX 10 10 0 0
BITMAP
FFC0
FFC0
1E00
1E00
1E00
1E00
1E00
1E00
1E00
1E00
ENDCHAR
STARTCHAR afii10037
ENCODING 1059
SWIDTH 600 0
DWIDTH 12 0
BBX 11 10 0 0
BITMAP
F1E0
F1E0
F1E0
F1E0
FFE0
7FE0
01E0
01E0
FFE0
FFC0
ENDCHAR
STARTCHAR afii10038
ENCODING 1060
SWIDTH 850 0
DWIDTH 17 0
BBX 16 10 0 0
BITMAP
7FFE
FFFF
F3CF
F3CF
F3CF
F3CF
F3CF
FFFF
7FFE
03C0
ENDCHAR
STARTCHAR afii10039
ENCODING 1061
SWIDTH 600 0
DWIDTH 12 0
BBX 11 10 0 0
BITMAP
E0E0
F1E0
FBE0
7FC0
3F80
3F80
7FC0
FBE0
F1E0
E0E0
ENDCHAR
STARTCHAR afii10040
ENCODING 1062
SWIDTH 650 0
DWIDTH 13 0
BBX 12 12 0 -2
BITMAP
F1E0
F1E0
F1E0
F1E0
F1E0
F1E0
F1E0
F1E0
FFF0
FFF0
00F0
00F0
ENDCHAR
STARTCHAR afii10041
ENCODING 1063
SWIDTH 600 0
DWIDTH 12 0
BBX 11 10 0 0
BITMAP
F1E0
F1E0
F1E0
F1E0
FFE0
7FE0
01E0
01E0
01E0
01E0
ENDCHAR
STARTCHAR afii10042
ENCODING 1064
SWIDTH 950 0
DWIDTH 19 0
BBX 18 10 0 0
BITMAP
F1E3C0
F1E3C0
F1E3C0
F1E3C0
F1E3C0
F1E3C0
F1E3C0
F1E3C0
FFFFC0
FFFFC0
ENDCHAR
STARTCHAR afii10043
ENCODING 1065
SWIDTH 1000 0
DWIDTH 20 0
BBX 19 12 0 -2
BITMAP
F1E3C0
F1E3C0
F1E3C0
F1E3C0
F1E3C0
F1E3C0
F1E3C0
F1E3C0
FFFFE0
FFFFE0
0001E0
0001E0
ENDCHAR
STARTCHAR afii10044
ENCODING 1066
SWIDTH 700 0
DWIDTH 14 0
BBX 13 10 0 0
BITMAP
FC00
FC00
3C00
3C00
3FF0
3FF8
3C78
3C78
3FF8
3FF0
ENDCHAR
STARTCHAR afii10045
ENCODING 1067
SWIDTH 850 0
DWIDTH 17 0
BBX 16 10 0 0
BITMAP
F00F
F00F
F00F
F00F
FFCF
FFEF
F1EF
F1EF
FFEF
FFCF
ENDCHAR
STARTCHAR afii10046
ENCODING 1068
SWIDTH 600 0
DWIDTH 12 0
BBX 11 10 0 0
BITMAP
F000
F000
F000
F000
FFC0
FFE0
F1E0
F1E0
FFE0
FFC0
ENDCHAR
STARTCHAR afii10047
ENCODING 1069
SWIDTH 600 0
DWIDTH 12 0
BBX 11 10 0 0
BITMAP
7FC0
FFE0
F1E0
F1E0
0FE0
0FE0
F1E0
F1E0
FFE0
7FC0
ENDCHAR
STARTCHAR afii10048
ENCODING 1070
SWIDTH 900 0
DWIDTH 18 0
BBX 17 10 0 0
BITMAP
F1FF00
F3FF80
F3C780
F3C780
FFC780
FFC780
F3C780
F3C780
F3FF80
F1FF00
ENDCHAR
STARTCHAR afii10049
ENCODING 1071
SWIDTH 600 0
DWIDTH 12 0
BBX 11 10 0 0
BITMAP
7FE0
FFE0
F1E0
F1E0
FFE0
7FE0
3FE0
7DE0
F9E0
F1E0
ENDCHAR
STARTCHAR acyrillic
ENCODING 1072
SWIDTH 600 0
DWIDTH 12 0
BBX 11 10 0 0
BITMAP
7FC0
FFE0
F1E0
F1E0
FFE0
FFE0
F1E0
F1E0
F1E0
F1E0
ENDCHAR
STARTCHAR afii10066
ENCODING 1073
SWIDTH 600 0
DWIDTH 12 0
BBX 11 10 0 0
BITMAP
FFE0
FFE0
F000
F000
FFC0
FFE0
F1E0
F1E0
FFE0
FFC0
ENDCHAR
STARTCHAR afii10067
ENCODING 1074
SWIDTH 600 0
DWIDTH 12 0
BBX 11 10 0 0
BITMAP
FFC0
FFE0
F1E0
F1E0
FFC0
FFC0
F1E0
F1E0
FFE0
FFC0
ENDCHAR
STARTCHAR afii10068
ENCODING 1075
SWIDTH 600 0
DWIDTH 12 0
BBX 11 10 0 0
BITMAP
FFE0
FFE0
F000
F000
F000
F000
F000
F000
F000
F000
ENDCHAR
STARTCHAR afii10069
ENCODING 1076
SWIDTH 700 0
DWIDTH 14 0
BBX 13 12 0 -2
BITMAP
3FF0
7FF0
78F0
78F0
78F0
78F0
78F0
78F0
FFF8
FFF8
F078
F078
ENDCHAR
STARTCHAR afii10070
ENCODING 1077
SWIDTH 600 0
DWIDTH 12 0
BBX 11 10 0 0
BITMAP
7FE0
FFE0
F000
F000
FE00
FE00
F000
F000
FFE0
7FE0
ENDCHAR
STARTCHAR afii10072
ENCODING 1078
SWIDTH 950 0
DWIDTH 19 0
BBX 18 10 0 0
BITMAP
79E780
7DEF80
3FFF00
1FFE00
0FFC00
1FFE00
3FFF00
7DEF80
F9E7C0
F1E3C0
ENDCHAR
STARTCHAR afii10073
ENCODING 1079
SWIDTH 600 0
DWIDTH 12 0
BBX 11 10 0 0
BITMAP
FFC0
FFE0
01E0
01E0
0FC0
0FC0
01E0
01E0
FFE0
FFC0
ENDCHAR
STARTCHAR afii10074
ENCODING 1080
SWIDTH 600 0
DWIDTH 12 0
BBX 11 10 0 0
BITMAP
F1E0
F1E0
F1E0
F3E0
F7E0
FFE0
FFE0
FDE0
F9E0
F1E0
ENDCHAR
STARTCHAR afii10075
ENCODING 1081
SWIDTH 600 0
DWIDTH 12 0
BBX 11 14 0 0
BITMAP
3180
3F80
1F00
0000
F1E0
F1E0
F1E0
F3E0
F7E0
FFE0
FFE0
FDE0
F9E0
F1E0
ENDCHAR
STARTCHAR afii10076
ENCODING 1082
SWIDTH 600 0
DWIDTH 12 0
BBX 11 10 0 0
BITMAP
F1E0
F3E0
F7C0
FF80
FF00
FF00
FF80
F7C0
F3E0
F1E0
ENDCHAR
STARTCHAR afii10077
ENCODING 1083
SWIDTH 600 0
DWIDTH 12 0
BBX 11 10 0 0
BITMAP
0FE0
1FE0
3FE0
7DE0
F9E0
F1E0
F1E0
F1E0
F1E0
F1E0
ENDCHAR
STARTCHAR afii10078
ENCODING 1084
SWIDTH 700 0
DWIDTH 14 0
BBX 13 10 0 0
BITMAP
F078
F8F8
FDF8
FFF8
FFF8
F778
F278
F078
F078
F078
ENDCHAR
STARTCHAR afii10079
ENCODING 1085
SWIDTH 600 0
DWIDTH 12 0
BBX 11 10 0 0
BITMAP
F1E0
F1E0
F1E0
F1E0
FFE0
FFE0
F1E0
F1E0
F1E0
F1E0
ENDCHAR
STARTCHAR afii10080
ENCODING 1086
SWIDTH 600 0
DWIDTH 12 0
BBX 11 10 0 0
BITMAP
7FC0
FFE0
F1E0
F1E0
F1E0
F1E0
F1E0
F1E0
FFE0
7FC0
ENDCHAR
STARTCHAR afii10081
ENCODING 1087
SWIDTH 600 0
DWIDTH 12 0
BBX 11 10 0 0
BITMAP
FFE0
FFE0
F1E0
F1E0
F1E0
F1E0
F1E0
F1E0
F1E0
F1E0
ENDCHAR
STARTCHAR afii10082
ENCODING 1088
SWIDTH 600 0
DWIDTH 12 0
BBX 11 10 0 0
BITMAP
FFC0
FFE0
F1E0
F1E0
FFE0
FFC0
F000
F000
F000
F000
ENDCHAR
STARTCHAR afii10083
ENCODING 1089
SWIDTH 600 0
DWIDTH 12 0
BBX 11 10 0 0
BITMAP
7FC0
FFE0
F1E0
F1E0
F000
F000
F1E0
F1E0
FFE0
7FC0
ENDCHAR
STARTCHAR afii10084
ENCODING 1090
SWIDTH 550 0
DWIDTH 11 0
BBX 10 10 0 0
BITMAP
FFC0
FFC0
1E00
1E00
1E00
1E00
1E00
1E00
1E00
1E00
ENDCHAR
STARTCHAR afii10085
ENCODING 1091
SWIDTH 600 0
DWIDTH 12 0
BBX 11 10 0 0
BITMAP
F1E0
F1E0
F1E0
F1E0
FFE0
7FE0
01E0
01E0
FFE0
FFC0
ENDCHAR
STARTCHAR afii10086
ENCODING 1092
SWIDTH 850 0
DWIDTH 17 0
BBX 16 10 0 0
BITMAP
7FFE
FFFF
F3CF
F3CF
F3CF
F3CF
F3CF
FFFF
7FFE
03C0
ENDCHAR
STARTCHAR afii10087
ENCODING 1093
SWIDTH 600 0
DWIDTH 12 0
BBX 11 10 0 0
BITMAP
E0E0
F1E0
FBE0
7FC0
3F80
3F80
7FC0
FBE0
F1E0
E0E0
ENDCHAR
STARTCHAR afii10088
ENCODING 1094
SWIDTH 650 0
DWIDTH 13 0
BBX 12 12 0 -2
BITMAP
F1E0
F1E0
F1E0
F1E0
F1E0
F1E0
F1E0
F1E0
FFF0
FFF0
00F0
00F0
ENDCHAR
STARTCHAR afii10089
ENCODING 1095
SWIDTH 600 0
DWIDTH 12 0
BBX 11 10 0 0
BITMAP
F1E0
F1E0
F1E0
F1E0
FFE0
7FE0
01E0
01E0
01E0
01E0
ENDCHAR
STARTCHAR afii10090
ENCODING 1096
SWIDTH 950 0
DWIDTH 19 0
BBX 18 10 0 0
BITMAP
F1E3C0
F1E3C0
F1E3C0
F1E3C0
F1E3C0
F1E3C0
F1E3C0
F1E3C0
FFFFC0
FFFFC0
ENDCHAR
STARTCHAR afii10091
ENCODING 1097
SWIDTH 1000 0
DWIDTH 20 0
BBX 19 12 0 -2
BITMAP
F1E3C0
F1E3C0
F1E3C0
F1E3C0
F1E3C0
F1E3C0
F1E3C0
F1E3C0
FFFFE0
FFFFE0
0001E0
0001E0
ENDCHAR
STARTCHAR afii10092
ENCODING 1098
SWIDTH 700 0
DWIDTH 14 0
BBX 13 10 0 0
BITMAP
FC00
FC00
3C00
3C00
3FF0
3FF8
3C78
3C78
3FF8
3FF0
ENDCHAR
STARTCHAR afii10093
ENCODING 1099
SWIDTH 850 0
DWIDTH 17 0
BBX 16 10 0 0
BITMAP
F00F
F00F
F00F
F00F
FFCF
FFEF
F1EF
F1EF
FFEF
FFCF
ENDCHAR
STARTCHAR afii10094
ENCODING 1100
SWIDTH 600 0
DWIDTH 12 0
BBX 11 10 0 0
BITMAP
F000
F000
F000
F000
FFC0
FFE0
F1E0
F1E0
FFE0
FFC0
ENDCHAR
STARTCHAR afii10095
ENCODING 1101
SWIDTH 600 0
DWIDTH 12 0
BBX 11 10 0 0
BITMAP
7FC0
FFE0
F1E0
F1E0
0FE0
0FE0
F1E0
F1E0
FFE0
7FC0
ENDCHAR
STARTCHAR afii10096
ENCODING 1102
SWIDTH 900 0
DWIDTH 18 0
BBX 17 10 0 0
BITMAP
F1FF00
F3FF80
F3C780
F3C780
FFC780
FFC780
F3C780
F3C780
F3FF80
F1FF00
ENDCHAR
STARTCHAR afii10097
ENCODING 1103
SWIDTH 600 0
DWIDTH 12 0
BBX 11 10 0 0
BITMAP
7FE0
FFE0
F1E0
F1E0
FFE0
7FE0
3FE0
7DE0
F9E0
F1E0
ENDCHAR
STARTCHAR uni0450
ENCODING 1104
SWIDTH 600 0
DWIDTH 12 0
BBX 11 15 0 0
BITMAP
1800
1C00
0E00
0600
0000
7FE0
FFE0
F000
F000
FE00
FE00
F000
F000
FFE0
7FE0
ENDCHAR
STARTCHAR afii10071
ENCODING 1105
SWIDTH 600 0
DWIDTH 12 0
BBX 11 15 0 0
BITMAP
71C0
71C0
71C0
0000
0000
7FE0
FFE0
F000
F000
FE00
FE00
F000
F000
FFE0
7FE0
ENDCHAR
STARTCHAR afii10099
ENCODING 1106
SWIDTH 700 0
DWIDTH 14 0
BBX 13 10 0 0
BITMAP
FF00
FF00
3C00
3C00
3FF0
3FF8
3C78
3C78
3DF8
3DF0
ENDCHAR
STARTCHAR afii10100
ENCODING 1107
SWIDTH 600 0
DWIDTH 12 0
BBX 11 15 0 0
BITMAP
0300
0700
0E00
0C00
0000
FFE0
FFE0
F000
F000
F000
F000
F000
F000
F000
F000
ENDCHAR
STARTCHAR afii10101
ENCODING 1108
SWIDTH 600 0
DWIDTH 12 0
BBX 11 10 0 0
BITMAP
7FC0
FFE0
F1E0
F1E0
FE00
FE00
F1E0
F1E0
FFE0
7FC0
ENDCHAR
STARTCHAR afii10102
ENCODING 1109
SWIDTH 600 0
DWIDTH 12 0
BBX 11 10 0 0
BITMAP
7FE0
FFE0
F000
F000
FFC0
7FE0
01E0
01E0
FFE0
FFC0
ENDCHAR
STARTCHAR afii10103
ENCODING 1110
SWIDTH 550 0
DWIDTH 11 0
BBX 10 10 0 0
BITMAP
FFC0
FFC0
1E00
1E00
1E00
1E00
1E00
1E00
FFC0
FFC0
ENDCHAR
STARTCHAR afii10104
ENCODING 1111
SWIDTH 550 0
DWIDTH 11 0
BBX 10 15 0 0
BITMAP
7380
7380
7380
0000
0000
FFC0
FFC0
1E00
1E00
1E00
1E00
1E00
1E00
FFC0
FFC0
ENDCHAR
STARTCHAR afii10105
ENCODING 1112
SWIDTH 600 0
DWIDTH 12 0
BBX 11 10 0 0
BITMAP
01E0
01E0
01E0
01E0
01E0
01E0
F1E0
F1E0
FFE0
7FC0
ENDCHAR
STARTCHAR afii10106
ENCODING 1113
SWIDTH 950 0
DWIDTH 19 0
BBX 18 10 0 0
BITMAP
0FE000
1FE000
3FE000
7DE000
F9FF80
F1FFC0
F1E3C0
F1E3C0
F1FFC0
F1FF80
ENDCHAR
STARTCHAR afii10107
ENCODING 1114
SWIDTH 950 0
DWIDTH 19 0
BBX 18 10 0 0
BITMAP
F1E000
F1E000
F1E000
F1E000
FFFF80
FFFFC0
F1E3C0
F1E3C0
F1FFC0
F1FF80
ENDCHAR
STARTCHAR afii10108
ENCODING 1115
SWIDTH 700 0
DWIDTH 14 0
BBX 13 10 0 0
BITMAP
FF00
FF00
3C00
3C00
3FF0
3FF8
3C78
3C78
3C78
3C78
ENDCHAR
STARTCHAR afii10109
ENCODING 1116
SWIDTH 600 0
DWIDTH 12 0
BBX 11 15 0 0
BITMAP
0300
0700
0E00
0C00
0000
F1E0
F3E0
F7C0
FF80
FF00
FF00
FF80
F7C0
F3E0
F1E0
ENDCHAR
STARTCHAR uni045D
ENCODING 1117
SWIDTH 600 0
DWIDTH 12 0
BBX 11 15 0 0
BITMAP
1800
1C00
0E00
0600
0000
F1E0
F1E0
F1E0
F3E0
F7E0
FFE0
FFE0
FDE0
F9E0
F1E0
ENDCHAR
STARTCHAR afii10110
ENCODING 1118
SWIDTH 600 0
DWIDTH 12 0
BBX 11 14 0 0
BITMAP
3180
3F80
1F00
0000
F1E0
F1E0
F1E0
F1E0
FFE0
7FE0
01E0
01E0
FFE0
FFC0
ENDCHAR
STARTCHAR afii10193
ENCODING 1119
SWIDTH 600 0
DWIDTH 12 0
BBX 11 12 0 -2
BITMAP
F1E0
F1E0
F1E0
F1E0
F1E0
F1E0
F1E0
F1E0
FFE0
FFE0
0E00
0E00
ENDCHAR
STARTCHAR Omegacyrillic
ENCODING 1120
SWIDTH 700 0
DWIDTH 14 0
BBX 13 10 0 0
BITMAP
F078
F078
F078
F278
F778
FFF8
FFF8
FDF8
F8F8
7070
ENDCHAR
STARTCHAR omegacyrillic
ENCODING 1121
SWIDTH 700 0
DWIDTH 14 0
BBX 13 10 0 0
BITMAP
F078
F078
F078
F278
F778
FFF8
FFF8
FDF8
F8F8
7070
ENDCHAR
STARTCHAR afii10146
ENCODING 1122
SWIDTH 700 0
DWIDTH 14 0
BBX 13 10 0 0
BITMAP
3C00
FF00
FF00
3C00
3FF0
3FF8
3C78
3C78
3FF8
3FF0
ENDCHAR
STARTCHAR afii10194
ENCODING 1123
SWIDTH 700 0
DWIDTH 14 0
BBX 13 10 0 0
BITMAP
3C00
FF00
FF00
3C00
3FF0
3FF8
3C78
3C78
3FF8
3FF0
ENDCHAR
STARTCHAR Eiotifiedcyrillic
ENCODING 1124
SWIDTH 900 0
DWIDTH 18 0
BBX 17 10 0 0
BITMAP
F1FF80
F3FF80
F3C000
F3C000
FFF800
FFF800
F3C000
F3C000
F3FF80
F1FF80
ENDCHAR
STARTCHAR eiotifiedcyrillic
ENCODING 1125
SWIDTH 900 0
DWIDTH 18 0
BBX 17 10 0 0
BITMAP
F1FF80
F3FF80
F3C000
F3C000
FFF800
FFF800
F3C000
F3C000
F3FF80
F1FF80
ENDCHAR
STARTCHAR Yuslittlecyrillic
ENCODING 1126
SWIDTH 800 0
DWIDTH 16 0
BBX 15 10 0 0
BITMAP
7FFC
FFFE
F01E
F01E
FFFE
FFFE
F39E
F39E
F39E
F39E
ENDCHAR
STARTCHAR yuslittlecyrillic
ENCODING 1127
SWIDTH 800 0
DWIDTH 16 0
BBX 15 10 0 0
BITMAP
7FFC
FFFE
F01E
F01E
FFFE
FFFE
F39E
F39E
F39E
F39E
ENDCHAR
STARTCHAR Yuslittleiotifiedcyrillic
ENCODING 1128
SWIDTH 1100 0
DWIDTH 22 0
BBX 21 10 0 0
BITMAP
F1FFF0
F3FFF8
F3C078
F3C078
FFFFF8
FFFFF8
F3CE78
F3CE78
F3CE78
F3CE78
ENDCHAR
STARTCHAR yuslittleiotifiedcyrillic
ENCODING 1129
SWIDTH 1100 0
DWIDTH 22 0
BBX 21 10 0 0
BITMAP
F1FFF0
F3FFF8
F3C078
F3C078
FFFFF8
FFFFF8
F3CE78
F3CE78
F3CE78
F3CE78
ENDCHAR
STARTCHAR Yusbigcyrillic
ENCODING 1130
SWIDTH 800 0
DWIDTH 16 0
BBX 15 10 0 0
BITMAP
FFFE
FFFE
F01E
783C
3FF8
3FF8
7BBC
F39E
F39E
F39E
ENDCHAR
STARTCHAR yusbigcyrillic
ENCODING 1131
SWIDTH 800 0
DWIDTH 16 0
BBX 15 10 0 0
BITMAP
FFFE
FFFE
F01E
783C
3FF8
3FF8
7BBC
F39E
F39E
F39E
ENDCHAR
STARTCHAR Yusbigiotifiedcyrillic
ENCODING 1132
SWIDTH 1100 0
DWIDTH 22 0
BBX 21 10 0 0
BITMAP
F3FFF8
F3FFF8
F3C078
F1E0F0
FFFFE0
FFFFE0
F1EEF0
F3CE78
F3CE78
F3CE78
ENDCHAR
STARTCHAR yusbigiotifiedcyrillic
ENCODING 1133
SWIDTH 1100 0
DWIDTH 22 0
BBX 21 10 0 0
BITMAP
F3FFF8
F3FFF8
F3C078
F1E0F0
FFFFE0
FFFFE0
F1EEF0
F3CE78
F3CE78
F3CE78
ENDCHAR
STARTCHAR Ksicyrillic
ENCODING 1134
SWIDTH 600 0
DWIDTH 12 0
BBX 11 15 0 0
BITMAP
3180
1B00
0E00
0400
0000
FFE0
FFE0
0780
1E00
7FC0
7FC0
0F00
3C00
FFE0
FFE0
ENDCHAR
STARTCHAR ksicyrillic
ENCODING 1135
SWIDTH 600 0
DWIDTH 12 0
BBX 11 15 0 0
BITMAP
3180
1B00
0E00
0400
0000
FFE0
FFE0
0780
1E00
7FC0
7FC0
0F00
3C00
FFE0
FFE0
ENDCHAR
STARTCHAR Psicyrillic
ENCODING 1136
SWIDTH 850 0
DWIDTH 17 0
BBX 16 10 0 0
BITMAP
F3CF
F3CF
F3CF
F3CF
F3CF
FFFF
7FFE
03C0
03C0
03C0
ENDCHAR
STARTCHAR psicyrillic
ENCODING 1137
SWIDTH 850 0
DWIDTH 17 0
BBX 16 10 0 0
BITMAP
F3CF
F3CF
F3CF
F3CF
F3CF
FFFF
7FFE
03C0
03C0
03C0
ENDCHAR
STARTCHAR afii10147
ENCODING 1138
SWIDTH 600 0
DWIDTH 12 0
BBX 11 10 0 0
BITMAP
7FC0
FFE0
F1E0
F1E0
FFE0
FFE0
F1E0
F1E0
FFE0
7FC0
ENDCHAR
STARTCHAR afii10195
ENCODING 1139
SWIDTH 600 0
DWIDTH 12 0
BBX 11 10 0 0
BITMAP
7FC0
FFE0
F1E0
F1E0
FFE0
FFE0
F1E0
F1E0
FFE0
7FC0
ENDCHAR
STARTCHAR afii10148
ENCODING 1140
SWIDTH 600 0
DWIDTH 12 0
BBX 11 10 0 0
BITMAP
F1E0
F1E0
F1E0
F1E0
F1E0
F3E0
F7C0
FF80
FF00
FE00
ENDCHAR
STARTCHAR afii10196
ENCODING 1141
SWIDTH 600 0
DWIDTH 12 0
BBX 11 10 0 0
BITMAP
F1E0
F1E0
F1E0
F1E0
F1E0
F3E0
F7C0
FF80
FF00
FE00
ENDCHAR
STARTCHAR Izhitsadblgravecyrillic
ENCODING 1142
SWIDTH 600 0
DWIDTH 12 0
BBX 11 15 0 0
BITMAP
C600
E700
7380
3180
0000
F1E0
F1E0
F1E0
F1E0
F1E0
F3E0
F7C0
FF80
FF00
FE00
ENDCHAR
STARTCHAR izhitsadblgravecyrillic
ENCODING 1143
SWIDTH 600 0
DWIDTH 12 0
BBX 11 15 0 0
BITMAP
C600
E700
7380
3180
0000
F1E0
F1E0
F1E0
F1E0
F1E0
F3E0
F7C0
FF80
FF00
FE00
ENDCHAR
STARTCHAR Ukcyrillic
ENCODING 1144
SWIDTH 600 0
DWIDTH 12 0
BBX 11 10 0 0
BITMAP
F1E0
F1E0
FFE0
7FE0
01E0
7FE0
FFE0
F1E0
FFE0
7FC0
ENDCHAR
STARTCHAR ukcyrillic
ENCODING 1145
SWIDTH 600 0
DWIDTH 12 0
BBX 11 10 0 0
BITMAP
F1E0
F1E0
FFE0
7FE0
01E0
7FE0
FFE0
F1E0
FFE0
7FC0
ENDCHAR
STARTCHAR Omegaroundcyrillic
ENCODING 1146
SWIDTH 600 0
DWIDTH 12 0
BBX 11 12 0 -1
BITMAP
0E00
7FC0
FFE0
FFE0
F1E0
F1E0
F1E0
F1E0
FFE0
FFE0
7FC0
0E00
ENDCHAR
STARTCHAR omegaroundcyrillic
ENCODING 1147
SWIDTH 600 0
DWIDTH 12 0
BBX 11 12 0 -1
BITMAP
0E00
7FC0
FFE0
FFE0
F1E0
F1E0
F1E0
F1E0
FFE0
FFE0
7FC0
0E00
ENDCHAR
STARTCHAR Omegatitlocyrillic
ENCODING 1148
SWIDTH 700 0
DWIDTH 14 0
BBX 13 17 0 0
BITMAP
0200
0700
0D80
18C0
0700
0300
0000
F078
F078
F078
F278
F778
FFF8
FFF8
FDF8
F8F8
7070
ENDCHAR
STARTCHAR omegatitlocyrillic
ENCODING 1149
SWIDTH 700 0
DWIDTH 14 0
BBX 13 17 0 0
BITMAP
0200
0700
0D80
18C0
0700
0300
0000
F078
F078
F078
F278
F778
FFF8
FFF8
FDF8
F8F8
7070
ENDCHAR
STARTCHAR Otcyrillic
ENCODING 1150
SWIDTH 700 0
DWIDTH 14 0
BBX 13 14 0 0
BITMAP
1FC0
1FC0
0700
0700
F078
F078
F078
F278
F778
FFF8
FFF8
FDF8
F8F8
7070
ENDCHAR
STARTCHAR otcyrillic
ENCODING 1151
SWIDTH 700 0
DWIDTH 14 0
BBX 13 14 0 0
BITMAP
1FC0
1FC0
0700
0700
F078
F078
F078
F278
F778
FFF8
FFF8
FDF8
F8F8
7070
ENDCHAR
STARTCHAR Koppacyrillic
ENCODING 1152
SWIDTH 600 0
DWIDTH 12 0
BBX 11 12 0 -2
BITMAP
7FC0
FFE0
F1E0
F1E0
F000
F000
F1E0
F1E0
FFE0
7FE0
01E0
01E0
ENDCHAR
STARTCHAR koppacyrillic
ENCODING 1153
SWIDTH 600 0
DWIDTH 12 0
BBX 11 12 0 -2
BITMAP
7FC0
FFE0
F1E0
F1E0
F000
F000
F1E0
F1E0
FFE0
7FE0
01E0
01E0
ENDCHAR
STARTCHAR uni048A
ENCODING 1162
SWIDTH 600 0
DWIDTH 12 0
BBX 11 16 0 -2
BITMAP
3180
3F80
1F00
0000
F1E0
F1E0
F1E0
F3E0
F7E0
FFE0
FFE0
FDE0
F9E0
F1E0
01E0
03C0
ENDCHAR
STARTCHAR uni048B
ENCODING 1163
SWIDTH 600 0
DWIDTH 12 0
BBX 11 16 0 -2
BITMAP
3180
3F80
1F00
0000
F1E0
F1E0
F1E0
F3E0
F7E0
FFE0
FFE0
FDE0
F9E0
F1E0
01E0
03C0
ENDCHAR
STARTCHAR uni048C
ENCODING 1164
SWIDTH 650 0
DWIDTH 13 0
BBX 12 10 0 0
BITMAP
7800
FC00
FC00
7800
7FE0
7FF0
78F0
78F0
7FF0
7FE0
ENDCHAR
STARTCHAR uni048D
ENCODING 1165
SWIDTH 650 0
DWIDTH 13 0
BBX 12 10 0 0
BITMAP
7800
FC00
FC00
7800
7FE0
7FF0
78F0
78F0
7FF0
7FE0
ENDCHAR
STARTCHAR uni048E
ENCODING 1166
SWIDTH 600 0
DWIDTH 12 0
BBX 11 10 0 0
BITMAP
FFC0
FFE0
F1E0
F1E0
FFE0
FFC0
F380
F1C0
F000
F000
ENDCHAR
STARTCHAR uni048F
ENCODING 1167
SWIDTH 600 0
DWIDTH 12 0
BBX 11 10 0 0
BITMAP
FFC0
FFE0
F1E0
F1E0
FFE0
FFC0
F380
F1C0
F000
F000
ENDCHAR
STARTCHAR afii10050
ENCODING 1168
SWIDTH 600 0
DWIDTH 12 0
BBX 11 12 0 0
BITMAP
01E0
01E0
FFE0
FFE0
F000
F000
F000
F000
F000
F000
F000
F000
ENDCHAR
STARTCHAR afii10098
ENCODING 1169
SWIDTH 600 0
DWIDTH 12 0
BBX 11 12 0 0
BITMAP
01E0
01E0
FFE0
FFE0
F000
F000
F000
F000
F000
F000
F000
F000
ENDCHAR
STARTCHAR Ghestrokecyrillic
ENCODING 1170
SWIDTH 650 0
DWIDTH 13 0
BBX 12 10 0 0
BITMAP
7FF0
7FF0
7800
7800
FE00
FE00
7800
7800
7800
7800
ENDCHAR
STARTCHAR ghestrokecyrillic
ENCODING 1171
SWIDTH 650 0
DWIDTH 13 0
BBX 12 10 0 0
BITMAP
7FF0
7FF0
7800
7800
FE00
FE00
7800
7800
7800
7800
ENDCHAR
STARTCHAR Ghemiddlehookcyrillic
ENCODING 1172
SWIDTH 600 0
DWIDTH 12 0
BBX 11 12 0 -2
BITMAP
FFE0
FFE0
F000
F000
FFC0
FFE0
F1E0
F1E0
F1E0
F1E0
01E0
03C0
ENDCHAR
STARTCHAR ghemiddlehookcyrillic
ENCODING 1173
SWIDTH 600 0
DWIDTH 12 0
BBX 11 12 0 -2
BITMAP
FFE0
FFE0
F000
F000
FFC0
FFE0
F1E0
F1E0
F1E0
F1E0
01E0
03C0
ENDCHAR
STARTCHAR Zhedescendercyrillic
ENCODING 1174
SWIDTH 950 0
DWIDTH 19 0
BBX 18 12 0 -2
BITMAP
79E780
7DEF80
3FFF00
1FFE00
0FFC00
1FFE00
3FFF00
7DEF80
F9E7C0
F1E3C0
0001C0
0001C0
ENDCHAR
STARTCHAR zhedescendercyrillic
ENCODING 1175
SWIDTH 950 0
DWIDTH 19 0
BBX 18 12 0 -2
BITMAP
79E780
7DEF80
3FFF00
1FFE00
0FFC00
1FFE00
3FFF00
7DEF80
F9E7C0
F1E3C0
0001C0
0001C0
ENDCHAR
STARTCHAR Zedescendercyrillic
ENCODING 1176
SWIDTH 600 0
DWIDTH 12 0
BBX 11 13 0 -3
BITMAP
FFC0
FFE0
01E0
01E0
0FC0
0FC0
01E0
01E0
FFE0
FFC0
0E00
0E00
1C00
ENDCHAR
STARTCHAR zedescendercyrillic
ENCODING 1177
SWIDTH 600 0
DWIDTH 12 0
BBX 11 13 0 -3
BITMAP
FFC0
FFE0
01E0
01E0
0FC0
0FC0
01E0
01E0
FFE0
FFC0
0E00
0E00
1C00
ENDCHAR
STARTCHAR Kadescendercyrillic
ENCODING 1178
SWIDTH 600 0
DWIDTH 12 0
BBX 11 12 0 -2
BITMAP
F1E0
F3E0
F7C0
FF80
FF00
FF00
FF80
F7C0
F3E0
F1E0
00E0
00E0
ENDCHAR
STARTCHAR kadescendercyrillic
ENCODING 1179
SWIDTH 600 0
DWIDTH 12 0
BBX 11 12 0 -2
BITMAP
F1E0
F3E0
F7C0
FF80
FF00
FF00
FF80
F7C0
F3E0
F1E0
00E0
00E0
ENDCHAR
STARTCHAR Kaverticalstrokecyrillic
ENCODING 1180
SWIDTH 650 0
DWIDTH 13 0
BBX 12 10 0 0
BITMAP
F0F0
F5F0
F7E0
FFC0
FF80
FF80
FFC0
F7E0
F5F0
F0F0
ENDCHAR
STARTCHAR kaverticalstrokecyrillic
ENCODING 1181
SWIDTH 650 0
DWIDTH 13 0
BBX 12 10 0 0
BITMAP
F0F0
F5F0
F7E0
FFC0
FF80
FF80
FFC0
F7E0
F5F0
F0F0
ENDCHAR
STARTCHAR Kastrokecyrillic
ENCODING 1182
SWIDTH 650 0
DWIDTH 13 0
BBX 12 10 0 0
BITMAP
78F0
FDF0
7BE0
7FC0
7F80
7F80
7FC0
7BE0
79F0
78F0
ENDCHAR
STARTCHAR kastrokecyrillic
ENCODING 1183
SWIDTH 650 0
DWIDTH 13 0
BBX 12 10 0 0
BITMAP
78F0
FDF0
7BE0
7FC0
7F80
7F80
7FC0
7BE0
79F0
78F0
ENDCHAR
STARTCHAR Kabashkircyrillic
ENCODING 1184
SWIDTH 700 0
DWIDTH 14 0
BBX 13 10 0 0
BITMAP
FC78
FCF8
3DF0
3FE0
3FC0
3FC0
3FE0
3DF0
3CF8
3C78
ENDCHAR
STARTCHAR kabashkircyrillic
ENCODING 1185
SWIDTH 700 0
DWIDTH 14 0
BBX 13 10 0 0
BITMAP
FC78
FCF8
3DF0
3FE0
3FC0
3FC0
3FE0
3DF0
3CF8
3C78
ENDCHAR
STARTCHAR Endescendercyrillic
ENCODING 1186
SWIDTH 600 0
DWIDTH 12 0
BBX 11 12 0 -2
BITMAP
F1E0
F1E0
F1E0
F1E0
FFE0
FFE0
F1E0
F1E0
F1E0
F1E0
01E0
01E0
ENDCHAR
STARTCHAR endescendercyrillic
ENCODING 1187
SWIDTH 600 0
DWIDTH 12 0
BBX 11 12 0 -2
BITMAP
F1E0
F1E0
F1E0
F1E0
FFE0
FFE0
F1E0
F1E0
F1E0
F1E0
01E0
01E0
ENDCHAR
STARTCHAR Enghecyrillic
ENCODING 1188
SWIDTH 800 0
DWIDTH 16 0
BBX 15 10 0 0
BITMAP
F1FE
F1FE
F1E0
F1E0
FFE0
FFE0
F1E0
F1E0
F1E0
F1E0
ENDCHAR
STARTCHAR enghecyrillic
ENCODING 1189
SWIDTH 800 0
DWIDTH 16 0
BBX 15 10 0 0
BITMAP
F1FE
F1FE
F1E0
F1E0
FFE0
FFE0
F1E0
F1E0
F1E0
F1E0
ENDCHAR
STARTCHAR Pemiddlehookcyrillic
ENCODING 1190
SWIDTH 850 0
DWIDTH 17 0
BBX 16 13 0 -3
BITMAP
FFE0
FFE0
F1E0
F1FE
F1FF
F1E7
F1E7
F1E7
F1E7
F1E7
0007
0007
000E
ENDCHAR
STARTCHAR pemiddlehookcyrillic
ENCODING 1191
SWIDTH 850 0
DWIDTH 17 0
BBX 16 13 0 -3
BITMAP
FFE0
FFE0
F1E0
F1FE
F1FF
F1E7
F1E7
F1E7
F1E7
F1E7
0007
0007
000E
ENDCHAR
STARTCHAR Haabkhasiancyrillic
ENCODING 1192
SWIDTH 600 0
DWIDTH 12 0
BBX 11 10 0 0
BITMAP
7FE0
FFE0
F000
F1E0
F1E0
F1E0
F1E0
F1E0
FFE0
7FC0
ENDCHAR
STARTCHAR haabkhasiancyrillic
ENCODING 1193
SWIDTH 600 0
DWIDTH 12 0
BBX 11 10 0 0
BITMAP
7FE0
FFE0
F000
F1E0
F1E0
F1E0
F1E0
F1E0
FFE0
7FC0
ENDCHAR
STARTCHAR Esdescendercyrillic
ENCODING 1194
SWIDTH 600 0
DWIDTH 12 0
BBX 11 13 0 -3
BITMAP
7FC0
FFE0
F1E0
F1E0
F000
F000
F1E0
F1E0
FFE0
7FC0
0E00
0E00
1C00
ENDCHAR
STARTCHAR esdescendercyrillic
ENCODING 1195
SWIDTH 600 0
DWIDTH 12 0
BBX 11 13 0 -3
BITMAP
7FC0
FFE0
F1E0
F1E0
F000
F000
F1E0
F1E0
FFE0
7FC0
0E00
0E00
1C00
ENDCHAR
STARTCHAR Tedescendercyrillic
ENCODING 1196
SWIDTH 550 0
DWIDTH 11 0
BBX 10 12 0 -2
BITMAP
FFC0
FFC0
1E00
1E00
1E00
1E00
1E00
1E00
1F00
1F00
0700
0700
ENDCHAR
STARTCHAR tedescendercyrillic
ENCODING 1197
SWIDTH 550 0
DWIDTH 11 0
BBX 10 12 0 -2
BITMAP
FFC0
FFC0
1E00
1E00
1E00
1E00
1E00
1E00
1F00
1F00
0700
0700
ENDCHAR
STARTCHAR Ustraightcyrillic
ENCODING 1198
SWIDTH 650 0
DWIDTH 13 0
BBX 12 10 0 0
BITMAP
F0F0
F0F0
F0F0
F9F0
7FE0
3FC0
0F00
0F00
0F00
0F00
ENDCHAR
STARTCHAR ustraightcyrillic
ENCODING 1199
SWIDTH 650 0
DWIDTH 13 0
BBX 12 10 0 0
BITMAP
F0F0
F0F0
F0F0
F9F0
7FE0
3FC0
0F00
0F00
0F00
0F00
ENDCHAR
STARTCHAR Ustraightstrokecyrillic
ENCODING 1200
SWIDTH 650 0
DWIDTH 13 0
BBX 12 10 0 0
BITMAP
F0F0
F0F0
F0F0
F9F0
7FE0
3FC0
0F00
7FE0
7FE0
0F00
ENDCHAR
STARTCHAR ustraightstrokecyrillic
ENCODING 1201
SWIDTH 650 0
DWIDTH 13 0
BBX 12 10 0 0
BITMAP
F0F0
F0F0
F0F0
F9F0
7FE0
3FC0
0F00
7FE0
7FE0
0F00
ENDCHAR
STARTCHAR Hadescendercyrillic
ENCODING 1202
SWIDTH 650 0
DWIDTH 13 0
BBX 12 12 0 -2
BITMAP
E0E0
F1E0
FBE0
7FC0
3F80
3F80
7FC0
FBE0
F1F0
E0F0
0070
0070
ENDCHAR
STARTCHAR hadescendercyrillic
ENCODING 1203
SWIDTH 650 0
DWIDTH 13 0
BBX 12 12 0 -2
BITMAP
E0E0
F1E0
FBE0
7FC0
3F80
3F80
7FC0
FBE0
F1F0
E0F0
0070
0070
ENDCHAR
STARTCHAR Tetsecyrillic
ENCODING 1204
SWIDTH 750 0
DWIDTH 15 0
BBX 14 12 0 -2
BITMAP
FF78
FF78
3C78
3C78
3C78
3C78
3C78
3C78
3FFC
3FFC
003C
003C
ENDCHAR
STARTCHAR tetsecyrillic
ENCODING 1205
SWIDTH 750 0
DWIDTH 15 0
BBX 14 12 0 -2
BITMAP
FF78
FF78
3C78
3C78
3C78
3C78
3C78
3C78
3FFC
3FFC
003C
003C
ENDCHAR
STARTCHAR Chedescendercyrillic
ENCODING 1206
SWIDTH 650 0
DWIDTH 13 0
BBX 12 12 0 -2
BITMAP
F1E0
F1E0
F1E0
F1E0
FFE0
7FE0
01E0
01E0
01F0
01F0
00F0
00F0
ENDCHAR
STARTCHAR chedescendercyrillic
ENCODING 1207
SWIDTH 650 0
DWIDTH 13 0
BBX 12 12 0 -2
BITMAP
F1E0
F1E0
F1E0
F1E0
FFE0
7FE0
01E0
01E0
01F0
01F0
00F0
00F0
ENDCHAR
STARTCHAR Cheverticalstrokecyrillic
ENCODING 1208
SWIDTH 600 0
DWIDTH 12 0
BBX 11 10 0 0
BITMAP
F1E0
F1E0
F5E0
F5E0
FFE0
7FE0
05E0
05E0
01E0
01E0
ENDCHAR
STARTCHAR cheverticalstrokecyrillic
ENCODING 1209
SWIDTH 600 0
DWIDTH 12 0
BBX 11 10 0 0
BITMAP
F1E0
F1E0
F5E0
F5E0
FFE0
7FE0
05E0
05E0
01E0
01E0
ENDCHAR
STARTCHAR Shhacyrillic
ENCODING 1210
SWIDTH 600 0
DWIDTH 12 0
BBX 11 10 0 0
BITMAP
F000
F000
F000
FFC0
FFE0
F1E0
F1E0
F1E0
F1E0
F1E0
ENDCHAR
STARTCHAR shhacyrillic
ENCODING 1211
SWIDTH 600 0
DWIDTH 12 0
BBX 11 10 0 0
BITMAP
F000
F000
F000
FFC0
FFE0
F1E0
F1E0
F1E0
F1E0
F1E0
ENDCHAR
STARTCHAR Cheabkhasiancyrillic
ENCODING 1212
SWIDTH 600 0
DWIDTH 12 0
BBX 11 10 0 0
BITMAP
7FC0
FFE0
F1E0
F1E0
FFE0
FFE0
F000
F000
FFE0
7FE0
ENDCHAR
STARTCHAR cheabkhasiancyrillic
ENCODING 1213
SWIDTH 600 0
DWIDTH 12 0
BBX 11 10 0 0
BITMAP
7FC0
FFE0
F1E0
F1E0
FFE0
FFE0
F000
F000
FFE0
7FE0
ENDCHAR
STARTCHAR Chedescenderabkhasiancyrillic
ENCODING 1214
SWIDTH 600 0
DWIDTH 12 0
BBX 11 13 0 -3
BITMAP
7FC0
FFE0
F1E0
F1E0
FFE0
FFE0
F000
F000
FFE0
7FE0
0E00
0E00
1C00
ENDCHAR
STARTCHAR chedescenderabkhasiancyrillic
ENCODING 1215
SWIDTH 600 0
DWIDTH 12 0
BBX 11 13 0 -3
BITMAP
7FC0
FFE0
F1E0
F1E0
FFE0
FFE0
F000
F000
FFE0
7FE0
0E00
0E00
1C00
ENDCHAR
STARTCHAR palochkacyrillic
ENCODING 1216
SWIDTH 550 0
DWIDTH 11 0
BBX 10 10 0 0
BITMAP
FFC0
FFC0
1E00
1E00
1E00
1E00
1E00
1E00
FFC0
FFC0
ENDCHAR
STARTCHAR Zhebrevecyrillic
ENCODING 1217
SWIDTH 950 0
DWIDTH 19 0
BBX 18 14 0 0
BITMAP
061800
07F800
03F000
000000
79E780
7DEF80
3FFF00
1FFE00
0FFC00
1FFE00
3FFF00
7DEF80
F9E7C0
F1E3C0
ENDCHAR
STARTCHAR zhebrevecyrillic
ENCODING 1218
SWIDTH 950 0
DWIDTH 19 0
BBX 18 14 0 0
BITMAP
061800
07F800
03F000
000000
79E780
7DEF80
3FFF00
1FFE00
0FFC00
1FFE00
3FFF00
7DEF80
F9E7C0
F1E3C0
ENDCHAR
STARTCHAR Kahookcyrillic
ENCODING 1219
SWIDTH 600 0
DWIDTH 12 0
BBX 11 13 0 -3
BITMAP
F1E0
F3E0
F7C0
FF80
FF00
FF00
FF80
F7C0
F3E0
F1E0
00E0
00E0
01C0
ENDCHAR
STARTCHAR kahookcyrillic
ENCODING 1220
SWIDTH 600 0
DWIDTH 12 0
BBX 11 13 0 -3
BITMAP
F1E0
F3E0
F7C0
FF80
FF00
FF00
FF80
F7C0
F3E0
F1E0
00E0
00E0
01C0
ENDCHAR
STARTCHAR uni04C5
ENCODING 1221
SWIDTH 600 0
DWIDTH 12 0
BBX 11 12 0 -2
BITMAP
0FE0
1FE0
3FE0
7DE0
F9E0
F1E0
F1E0
F1E0
F1E0
F1E0
01E0
03C0
ENDCHAR
STARTCHAR uni04C6
ENCODING 1222
SWIDTH 600 0
DWIDTH 12 0
BBX 11 12 0 -2
BITMAP
0FE0
1FE0
3FE0
7DE0
F9E0
F1E0
F1E0
F1E0
F1E0
F1E0
01E0
03C0
ENDCHAR
STARTCHAR Enhookcyrillic
ENCODING 1223
SWIDTH 600 0
DWIDTH 12 0
BBX 11 13 0 -3
BITMAP
F1E0
F1E0
F1E0
F1E0
FFE0
FFE0
F1E0
F1E0
F1E0
F1E0
01E0
01E0
03C0
ENDCHAR
STARTCHAR enhookcyrillic
ENCODING 1224
SWIDTH 600 0
DWIDTH 12 0
BBX 11 13 0 -3
BITMAP
F1E0
F1E0
F1E0
F1E0
FFE0
FFE0
F1E0
F1E0
F1E0
F1E0
01E0
01E0
03C0
ENDCHAR
STARTCHAR uni04C9
ENCODING 1225
SWIDTH 600 0
DWIDTH 12 0
BBX 11 12 0 -2
BITMAP
F1E0
F1E0
F1E0
F1E0
FFE0
FFE0
F1E0
F1E0
F1E0
F1E0
01E0
03C0
ENDCHAR
STARTCHAR uni04CA
ENCODING 1226
SWIDTH 600 0
DWIDTH 12 0
BBX 11 12 0 -2
BITMAP
F1E0
F1E0
F1E0
F1E0
FFE0
FFE0
F1E0
F1E0
F1E0
F1E0
01E0
03C0
ENDCHAR
STARTCHAR Chekhakassiancyrillic
ENCODING 1227
SWIDTH 600 0
DWIDTH 12 0
BBX 11 12 0 -2
BITMAP
F1E0
F1E0
F1E0
F1E0
FFE0
7FE0
01E0
01E0
03E0
03E0
03C0
03C0
ENDCHAR
STARTCHAR chekhakassiancyrillic
ENCODING 1228
SWIDTH 600 0
DWIDTH 12 0
BBX 11 12 0 -2
BITMAP
F1E0
F1E0
F1E0
F1E0
FFE0
7FE0
01E0
01E0
03E0
03E0
03C0
03C0
ENDCHAR
STARTCHAR uni04CD
ENCODING 1229
SWIDTH 700 0
DWIDTH 14 0
BBX 13 12 0 -2
BITMAP
F078
F8F8
FDF8
FFF8
FFF8
F778
F278
F078
F078
F078
0078
00F0
ENDCHAR
STARTCHAR uni04CE
ENCODING 1230
SWIDTH 700 0
DWIDTH 14 0
BBX 13 12 0 -2
BITMAP
F078
F8F8
FDF8
FFF8
FFF8
F778
F278
F078
F078
F078
0078
00F0
ENDCHAR
STARTCHAR uni04CF
ENCODING 1231
SWIDTH 550 0
DWIDTH 11 0
BBX 10 10 0 0
BITMAP
FFC0
FFC0
1E00
1E00
1E00
1E00
1E00
1E00
FFC0
FFC0
ENDCHAR
STARTCHAR Abrevecyrillic
ENCODING 1232
SWIDTH 600 0
DWIDTH 12 0
BBX 11 14 0 0
BITMAP
3180
3F80
1F00
0000
7FC0
FFE0
F1E0
F1E0
FFE0
FFE0
F1E0
F1E0
F1E0
F1E0
ENDCHAR
STARTCHAR abrevecyrillic
ENCODING 1233
SWIDTH 600 0
DWIDTH 12 0
BBX 11 14 0 0
BITMAP
3180
3F80
1F00
0000
7FC0
FFE0
F1E0
F1E0
FFE0
FFE0
F1E0
F1E0
F1E0
F1E0
ENDCHAR
STARTCHAR Adieresiscyrillic
ENCODING 1234
SWIDTH 600 0
DWIDTH 12 0
BBX 11 15 0 0
BITMAP
71C0
71C0
71C0
0000
0000
7FC0
FFE0
F1E0
F1E0
FFE0
FFE0
F1E0
F1E0
F1E0
F1E0
ENDCHAR
STARTCHAR adieresiscyrillic
ENCODING 1235
SWIDTH 600 0
DWIDTH 12 0
BBX 11 15 0 0
BITMAP
71C0
71C0
71C0
0000
0000
7FC0
FFE0
F1E0
F1E0
FFE0
FFE0
F1E0
F1E0
F1E0
F1E0
ENDCHAR
STARTCHAR Aiecyrillic
ENCODING 1236
SWIDTH 950 0
DWIDTH 19 0
BBX 18 10 0 0
BITMAP
7FFFC0
FFFFC0
F1E000
F1E000
FFFC00
FFFC00
F1E000
F1E000
F1FFC0
F1FFC0
ENDCHAR
STARTCHAR aiecyrillic
ENCODING 1237
SWIDTH 950 0
DWIDTH 19 0
BBX 18 10 0 0
BITMAP
7FFFC0
FFFFC0
F1E000
F1E000
FFFC00
FFFC00
F1E000
F1E000
F1FFC0
F1FFC0
ENDCHAR
STARTCHAR Iebrevecyrillic
ENCODING 1238
SWIDTH 600 0
DWIDTH 12 0
BBX 11 14 0 0
BITMAP
3180
3F80
1F00
0000
7FE0
FFE0
F000
F000
FE00
FE00
F000
F000
FFE0
7FE0
ENDCHAR
STARTCHAR iebrevecyrillic
ENCODING 1239
SWIDTH 600 0
DWIDTH 12 0
BBX 11 14 0 0
BITMAP
3180
3F80
1F00
0000
7FE0
FFE0
F000
F000
FE00
FE00
F000
F000
FFE0
7FE0
ENDCHAR
STARTCHAR Schwacyrillic
ENCODING 1240
SWIDTH 600 0
DWIDTH 12 0
BBX 11 10 0 0
BITMAP
FFC0
FFE0
01E0
01E0
FFE0
FFE0
F1E0
F1E0
FFE0
7FC0
ENDCHAR
STARTCHAR afii10846
ENCODING 1241
SWIDTH 600 0
DWIDTH 12 0
BBX 11 10 0 0
BITMAP
FFC0
FFE0
01E0
01E0
FFE0
FFE0
F1E0
F1E0
FFE0
7FC0
ENDCHAR
STARTCHAR Schwadieresiscyrillic
ENCODING 1242
SWIDTH 600 0
DWIDTH 12 0
BBX 11 15 0 0
BITMAP
71C0
71C0
71C0
0000
0000
FFC0
FFE0
01E0
01E0
FFE0
FFE0
F1E0
F1E0
FFE0
7FC0
ENDCHAR
STARTCHAR schwadieresiscyrillic
ENCODING 1243
SWIDTH 600 0
DWIDTH 12 0
BBX 11 15 0 0
BITMAP
71C0
71C0
71C0
0000
0000
FFC0
FFE0
01E0
01E0
FFE0
FFE0
F1E0
F1E0
FFE0
7FC0
ENDCHAR
STARTCHAR Zhedieresiscyrillic
ENCODING 1244
SWIDTH 950 0
DWIDTH 19 0
BBX 18 15 0 0
BITMAP
073800
073800
073800
000000
000000
79E780
7DEF80
3FFF00
1FFE00
0FFC00
1FFE00
3FFF00
7DEF80
F9E7C0
F1E3C0
ENDCHAR
STARTCHAR zhedieresiscyrillic
ENCODING 1245
SWIDTH 950 0
DWIDTH 19 0
BBX 18 15 0 0
BITMAP
073800
073800
073800
000000
000000
79E780
7DEF80
3FFF00
1FFE00
0FFC00
1FFE00
3FFF00
7DEF80
F9E7C0
F1E3C0
ENDCHAR
STARTCHAR Zedieresiscyrillic
ENCODING 1246
SWIDTH 600 0
DWIDTH 12 0
BBX 11 15 0 0
BITMAP
71C0
71C0
71C0
0000
0000
FFC0
FFE0
01E0
01E0
0FC0
0FC0
01E0
01E0
FFE0
FFC0
ENDCHAR
STARTCHAR zedieresiscyrillic
ENCODING 1247
SWIDTH 600 0
DWIDTH 12 0
BBX 11 15 0 0
BITMAP
71C0
71C0
71C0
0000
0000
FFC0
FFE0
01E0
01E0
0FC0
0FC0
01E0
01E0
FFE0
FFC0
ENDCHAR
STARTCHAR Dzeabkhasiancyrillic
ENCODING 1248
SWIDTH 600 0
DWIDTH 12 0
BBX 11 10 0 0
BITMAP
FFE0
FFE0
03C0
0780
0FE0
0FE0
01E0
01E0
FFE0
FFC0
ENDCHAR
STARTCHAR dzeabkhasiancyrillic
ENCODING 1249
SWIDTH 600 0
DWIDTH 12 0
BBX 11 10 0 0
BITMAP
FFE0
FFE0
03C0
0780
0FE0
0FE0
01E0
01E0
FFE0
FFC0
ENDCHAR
STARTCHAR Imacroncyrillic
ENCODING 1250
SWIDTH 600 0
DWIDTH 12 0
BBX 11 14 0 0
BITMAP
FFE0
FFE0
0000
0000
F1E0
F1E0
F1E0
F3E0
F7E0
FFE0
FFE0
FDE0
F9E0
F1E0
ENDCHAR
STARTCHAR imacroncyrillic
ENCODING 1251
SWIDTH 600 0
DWIDTH 12 0
BBX 11 14 0 0
BITMAP
FFE0
FFE0
0000
0000
F1E0
F1E0
F1E0
F3E0
F7E0
FFE0
FFE0
FDE0
F9E0
F1E0
ENDCHAR
STARTCHAR Idieresiscyrillic
ENCODING 1252
SWIDTH 600 0
DWIDTH 12 0
BBX 11 15 0 0
BITMAP
71C0
71C0
71C0
0000
0000
F1E0
F1E0
F1E0
F3E0
F7E0
FFE0
FFE0
FDE0
F9E0
F1E0
ENDCHAR
STARTCHAR idieresiscyrillic
ENCODING 1253
SWIDTH 600 0
DWIDTH 12 0
BBX 11 15 0 0
BITMAP
71C0
71C0
71C0
0000
0000
F1E0
F1E0
F1E0
F3E0
F7E0
FFE0
FFE0
FDE0
F9E0
F1E0
ENDCHAR
STARTCHAR Odieresiscyrillic
ENCODING 1254
SWIDTH 600 0
DWIDTH 12 0
BBX 11 15 0 0
BITMAP
71C0
71C0
71C0
0000
0000
7FC0
FFE0
F1E0
F1E0
F1E0
F1E0
F1E0
F1E0
FFE0
7FC0
ENDCHAR
STARTCHAR odieresiscyrillic
ENCODING 1255
SWIDTH 600 0
DWIDTH 12 0
BBX 11 15 0 0
BITMAP
71C0
71C0
71C0
0000
0000
7FC0
FFE0
F1E0
F1E0
F1E0
F1E0
F1E0
F1E0
FFE0
7FC0
ENDCHAR
STARTCHAR Obarredcyrillic
ENCODING 1256
SWIDTH 600 0
DWIDTH 12 0
BBX 11 10 0 0
BITMAP
7FC0
FFE0
F1E0
F1E0
FFE0
FFE0
F1E0
F1E0
FFE0
7FC0
ENDCHAR
STARTCHAR obarredcyrillic
ENCODING 1257
SWIDTH 600 0
DWIDTH 12 0
BBX 11 10 0 0
BITMAP
7FC0
FFE0
F1E0
F1E0
FFE0
FFE0
F1E0
F1E0
FFE0
7FC0
ENDCHAR
STARTCHAR Obarreddieresiscyrillic
ENCODING 1258
SWIDTH 600 0
DWIDTH 12 0
BBX 11 15 0 0
BITMAP
71C0
71C0
71C0
0000
0000
7FC0
FFE0
F1E0
F1E0
FFE0
FFE0
F1E0
F1E0
FFE0
7FC0
ENDCHAR
STARTCHAR obarreddieresiscyrillic
ENCODING 1259
SWIDTH 600 0
DWIDTH 12 0
BBX 11 15 0 0
BITMAP
71C0
71C0
71C0
0000
0000
7FC0
FFE0
F1E0
F1E0
FFE0
FFE0
F1E0
F1E0
FFE0
7FC0
ENDCHAR
STARTCHAR uni04EC
ENCODING 1260
SWIDTH 600 0
DWIDTH 12 0
BBX 11 15 0 0
BITMAP
71C0
71C0
71C0
0000
0000
7FC0
FFE0
F1E0
F1E0
0FE0
0FE0
F1E0
F1E0
FFE0
7FC0
ENDCHAR
STARTCHAR uni04ED
ENCODING 1261
SWIDTH 600 0
DWIDTH 12 0
BBX 11 15 0 0
BITMAP
71C0
71C0
71C0
0000
0000
7FC0
FFE0
F1E0
F1E0
0FE0
0FE0
F1E0
F1E0
FFE0
7FC0
ENDCHAR
STARTCHAR Umacroncyrillic
ENCODING 1262
SWIDTH 600 0
DWIDTH 12 0
BBX 11 14 0 0
BITMAP
FFE0
FFE0
0000
0000
F1E0
F1E0
F1E0
F1E0
FFE0
7FE0
01E0
01E0
FFE0
FFC0
ENDCHAR
STARTCHAR umacroncyrillic
ENCODING 1263
SWIDTH 600 0
DWIDTH 12 0
BBX 11 14 0 0
BITMAP
FFE0
FFE0
0000
0000
F1E0
F1E0
F1E0
F1E0
FFE0
7FE0
01E0
01E0
FFE0
FFC0
ENDCHAR
STARTCHAR Udieresiscyrillic
ENCODING 1264
SWIDTH 600 0
DWIDTH 12 0
BBX 11 15 0 0
BITMAP
71C0
71C0
71C0
0000
0000
F1E0
F1E0
F1E0
F1E0
FFE0
7FE0
01E0
01E0
FFE0
FFC0
ENDCHAR
STARTCHAR udieresiscyrillic
ENCODING 1265
SWIDTH 600 0
DWIDTH 12 0
BBX 11 15 0 0
BITMAP
71C0
71C0
71C0
0000
0000
F1E0
F1E0
F1E0
F1E0
FFE0
7FE0
01E0
01E0
FFE0
FFC0
ENDCHAR
STARTCHAR Uhungarumlautcyrillic
ENCODING 1266
SWIDTH 600 0
DWIDTH 12 0
BBX 11 15 0 0
BITMAP
0C60
1CE0
39C0
3180
0000
F1E0
F1E0
F1E0
F1E0
FFE0
7FE0
01E0
01E0
FFE0
FFC0
ENDCHAR
STARTCHAR uhungarumlautcyrillic
ENCODING 1267
SWIDTH 600 0
DWIDTH 12 0
BBX 11 15 0 0
BITMAP
0C60
1CE0
39C0
3180
0000
F1E0
F1E0
F1E0
F1E0
FFE0
7FE0
01E0
01E0
FFE0
FFC0
ENDCHAR
STARTCHAR Chedieresiscyrillic
ENCODING 1268
SWIDTH 600 0
DWIDTH 12 0
BBX 11 15 0 0
BITMAP
71C0
71C0
71C0
0000
0000
F1E0
F1E0
F1E0
F1E0
FFE0
7FE0
01E0
01E0
01E0
01E0
ENDCHAR
STARTCHAR chedieresiscyrillic
ENCODING 1269
SWIDTH 600 0
DWIDTH 12 0
BBX 11 15 0 0
BITMAP
71C0
71C0
71C0
0000
0000
F1E0
F1E0
F1E0
F1E0
FFE0
7FE0
01E0
01E0
01E0
01E0
ENDCHAR
STARTCHAR uni04F6
ENCODING 1270
SWIDTH 600 0
DWIDTH 12 0
BBX 11 12 0 -2
BITMAP
FFE0
FFE0
F000
F000
F000
F000
F000
F000
F800
F800
7800
7800
ENDCHAR
STARTCHAR uni04F7
ENCODING 1271
SWIDTH 600 0
DWIDTH 12 0
BBX 11 12 0 -2
BITMAP
FFE0
FFE0
F000
F000
F000
F000
F000
F000
F800
F800
7800
7800
ENDCHAR
STARTCHAR Yerudieresiscyrillic
ENCODING 1272
SWIDTH 850 0
DWIDTH 17 0
BBX 16 15 0 0
BITMAP
0E70
0E70
0E70
0000
0000
F00F
F00F
F00F
F00F
FFCF
FFEF
F1EF
F1EF
FFEF
FFCF
ENDCHAR
STARTCHAR yerudieresiscyrillic
ENCODING 1273
SWIDTH 850 0
DWIDTH 17 0
BBX 16 15 0 0
BITMAP
0E70
0E70
0E70
0000
0000
F00F
F00F
F00F
F00F
FFCF
FFEF
F1EF
F1EF
FFEF
FFCF
ENDCHAR
STARTCHAR uni04FA
ENCODING 1274
SWIDTH 650 0
DWIDTH 13 0
BBX 12 13 0 -3
BITMAP
7FF0
7FF0
7800
7800
FE00
FE00
7800
7800
7C00
7C00
3C00
3C00
7800
ENDCHAR
STARTCHAR uni04FB
ENCODING 1275
SWIDTH 650 0
DWIDTH 13 0
BBX 12 13 0 -3
BITMAP
7FF0
7FF0
7800
7800
FE00
FE00
7800
7800
7C00
7C00
3C00
3C00
7800
ENDCHAR
STARTCHAR uni04FC
ENCODING 1276
SWIDTH 650 0
DWIDTH 13 0
BBX 12 13 0 -3
BITMAP
E0E0
F1E0
FBE0
7FC0
3F80
3F80
7FC0
FBE0
F1F0
E0F0
0070
0070
00E0
ENDCHAR
STARTCHAR uni04FD
ENCODING 1277
SWIDTH 650 0
DWIDTH 13 0
BBX 12 13 0 -3
BITMAP
E0E0
F1E0
FBE0
7FC0
3F80
3F80
7FC0
FBE0
F1F0
E0F0
0070
0070
00E0
ENDCHAR
STARTCHAR uni04FE
ENCODING 1278
SWIDTH 600 0
DWIDTH 12 0
BBX 11 10 0 0
BITMAP
E0E0
F1E0
FBE0
7FC0
FFE0
FFE0
7FC0
FBE0
F1E0
E0E0
ENDCHAR
STARTCHAR uni04FF
ENCODING 1279
SWIDTH 600 0
DWIDTH 12 0
BBX 11 10 0 0
BITMAP
E0E0
F1E0
FBE0
7FC0
FFE0
FFE0
7FC0
FBE0
F1E0
E0E0
ENDCHAR
STARTCHAR uni0500
ENCODING 1280
SWIDTH 600 0
DWIDTH 12 0
BBX 11 10 0 0
BITMAP
01E0
01E0
01E0
01E0
7FE0
FFE0
F1E0
F1E0
FFE0
7FE0
ENDCHAR
STARTCHAR uni0501
ENCODING 1281
SWIDTH 600 0
DWIDTH 12 0
BBX 11 10 0 0
BITMAP
01E0
01E0
01E0
01E0
7FE0
FFE0
F1E0
F1E0
FFE0
7FE0
ENDCHAR
STARTCHAR uni0502
ENCODING 1282
SWIDTH 800 0
DWIDTH 16 0
BBX 15 10 0 0
BITMAP
01E0
01E0
01E0
01E0
7FEE
FFEE
F1EE
F1EE
FFFE
7FFC
ENDCHAR
STARTCHAR uni0503
ENCODING 1283
SWIDTH 800 0
DWIDTH 16 0
BBX 15 10 0 0
BITMAP
01E0
01E0
01E0
01E0
7FEE
FFEE
F1EE
F1EE
FFFE
7FFC
ENDCHAR
STARTCHAR uni0504
ENCODING 1284
SWIDTH 800 0
DWIDTH 16 0
BBX 15 10 0 0
BITMAP
FFC0
FFE0
01E0
01E0
0FCE
0FCE
01EE
01EE
01FE
00FC
ENDCHAR
STARTCHAR uni0505
ENCODING 1285
SWIDTH 800 0
DWIDTH 16 0
BBX 15 10 0 0
BITMAP
FFC0
FFE0
01E0
01E0
0FCE
0FCE
01EE
01EE
01FE
00FC
ENDCHAR
STARTCHAR uni0506
ENCODING 1286
SWIDTH 650 0
DWIDTH 13 0
BBX 12 12 0 -2
BITMAP
FFC0
FFE0
01E0
01E0
0FC0
0FC0
01E0
01E0
01F0
01F0
00F0
00F0
ENDCHAR
STARTCHAR uni0507
ENCODING 1287
SWIDTH 650 0
DWIDTH 13 0
BBX 12 12 0 -2
BITMAP
FFC0
FFE0
01E0
01E0
0FC0
0FC0
01E0
01E0
01F0
01F0
00F0
00F0
ENDCHAR
STARTCHAR uni0508
ENCODING 1288
SWIDTH 800 0
DWIDTH 16 0
BBX 15 10 0 0
BITMAP
0FE0
1FE0
3FE0
7DE0
F9EE
F1EE
F1EE
F1EE
F1FE
F0FC
ENDCHAR
STARTCHAR uni0509
ENCODING 1289
SWIDTH 800 0
DWIDTH 16 0
BBX 15 10 0 0
BITMAP
0FE0
1FE0
3FE0
7DE0
F9EE
F1EE
F1EE
F1EE
F1FE
F0FC
ENDCHAR
STARTCHAR uni050A
ENCODING 1290
SWIDTH 800 0
DWIDTH 16 0
BBX 15 10 0 0
BITMAP
F1E0
F1E0
F1E0
F1E0
FFEE
FFEE
F1EE
F1EE
F1FE
F0FC
ENDCHAR
STARTCHAR uni050B
ENCODING 1291
SWIDTH 800 0
DWIDTH 16 0
BBX 15 10 0 0
BITMAP
F1E0
F1E0
F1E0
F1E0
FFEE
FFEE
F1EE
F1EE
F1FE
F0FC
ENDCHAR
STARTCHAR uni050C
ENCODING 1292
SWIDTH 600 0
DWIDTH 12 0
BBX 11 10 0 0
BITMAP
7FE0
FFE0
F000
F000
F7C0
F7E0
F1E0
F1E0
FFE0
7FC0
ENDCHAR
STARTCHAR uni050D
ENCODING 1293
SWIDTH 600 0
DWIDTH 12 0
BBX 11 10 0 0
BITMAP
7FE0
FFE0
F000
F000
F7C0
F7E0
F1E0
F1E0
FFE0
7FC0
ENDCHAR
STARTCHAR uni050E
ENCODING 1294
SWIDTH 600 0
DWIDTH 12 0
BBX 11 10 0 0
BITMAP
FFC0
FFC0
1E00
1E00
1EE0
1EE0
1EE0
1EE0
1FE0
0FC0
ENDCHAR
STARTCHAR uni050F
ENCODING 1295
SWIDTH 600 0
DWIDTH 12 0
BBX 11 10 0 0
BITMAP
FFC0
FFC0
1E00
1E00
1EE0
1EE0
1EE0
1EE0
1FE0
0FC0
ENDCHAR
STARTCHAR uni0510
ENCODING 1296
SWIDTH 600 0
DWIDTH 12 0
BBX 11 10 0 0
BITMAP
7FE0
FFE0
F000
F000
7E00
7E00
F000
F000
FFE0
7FE0
ENDCHAR
STARTCHAR uni0511
ENCODING 1297
SWIDTH 600 0
DWIDTH 12 0
BBX 11 10 0 0
BITMAP
7FE0
FFE0
F000
F000
7E00
7E00
F000
F000
FFE0
7FE0
ENDCHAR
STARTCHAR uni0512
ENCODING 1298
SWIDTH 600 0
DWIDTH 12 0
BBX 11 13 0 -3
BITMAP
0FE0
1FE0
3FE0
7DE0
F9E0
F1E0
F1E0
F1E0
F1E0
F1E0
01E0
01E0
03C0
ENDCHAR
STARTCHAR uni0513
ENCODING 1299
SWIDTH 600 0
DWIDTH 12 0
BBX 11 13 0 -3
BITMAP
0FE0
1FE0
3FE0
7DE0
F9E0
F1E0
F1E0
F1E0
F1E0
F1E0
01E0
01E0
03C0
ENDCHAR
STARTCHAR uni0514
ENCODING 1300
SWIDTH 950 0
DWIDTH 19 0
BBX 18 10 0 0
BITMAP
0FC1C0
1FE3C0
3FF7C0
7CFF80
F87F00
F07F00
F0FF80
F1F7C0
F1E3C0
F1C1C0
ENDCHAR
STARTCHAR uni0515
ENCODING 1301
SWIDTH 950 0
DWIDTH 19 0
BBX 18 10 0 0
BITMAP
0FC1C0
1FE3C0
3FF7C0
7CFF80
F87F00
F07F00
F0FF80
F1F7C0
F1E3C0
F1C1C0
ENDCHAR
STARTCHAR uni0516
ENCODING 1302
SWIDTH 950 0
DWIDTH 19 0
BBX 18 10 0 0
BITMAP
FFC1C0
FFE3C0
F1F7C0
F1FF80
FFFF00
FFFF00
F0FF80
F1F7C0
F1E3C0
F1C1C0
ENDCHAR
STARTCHAR uni0517
ENCODING 1303
SWIDTH 950 0
DWIDTH 19 0
BBX 18 10 0 0
BITMAP
FFC1C0
FFE3C0
F1F7C0
F1FF80
FFFF00
FFFF00
F0FF80
F1F7C0
F1E3C0
F1C1C0
ENDCHAR
STARTCHAR uni0518
ENCODING 1304
SWIDTH 950 0
DWIDTH 19 0
BBX 18 10 0 0
BITMAP
7FFFC0
FFFFC0
F1E000
F1E000
FFFC00
7FFC00
3FE000
7DE000
F9FFC0
F1FFC0
ENDCHAR
STARTCHAR uni0519
ENCODING 1305
SWIDTH 950 0
DWIDTH 19 0
BBX 18 10 0 0
BITMAP
7FFFC0
FFFFC0
F1E000
F1E000
FFFC00
7FFC00
3FE000
7DE000
F9FFC0
F1FFC0
ENDCHAR
STARTCHAR uni051A
ENCODING 1306
SWIDTH 600 0
DWIDTH 12 0
BBX 11 12 0 -2
BITMAP
7FC0
FFE0
F1E0
F1E0
F1E0
F1E0
F1E0
F1E0
FFE0
7FC0
0E00
0E00
ENDCHAR
STARTCHAR uni051B
ENCODING 1307
SWIDTH 600 0
DWIDTH 12 0
BBX 11 12 0 -2
BITMAP
7FC0
FFE0
F1E0
F1E0
F1E0
F1E0
F1E0
F1E0
FFE0
7FC0
0E00
0E00
ENDCHAR
STARTCHAR uni051C
ENCODING 1308
SWIDTH 700 0
DWIDTH 14 0
BBX 13 10 0 0
BITMAP
F078
F078
F078
F278
F778
FFF8
FFF8
FDF8
F8F8
F078
ENDCHAR
STARTCHAR uni051D
ENCODING 1309
SWIDTH 700 0
DWIDTH 14 0
BBX 13 10 0 0
BITMAP
F078
F078
F078
F278
F778
FFF8
FFF8
FDF8
F8F8
F078
ENDCHAR
STARTCHAR uni051E
ENCODING 1310
SWIDTH 600 0
DWIDTH 12 0
BBX 11 10 0 0
BITMAP
F1E0
F7E0
F7C0
FFC0
FF00
FF00
FF80
F7C0
F3E0
F1E0
ENDCHAR
STARTCHAR uni051F
ENCODING 1311
SWIDTH 600 0
DWIDTH 12 0
BBX 11 10 0 0
BITMAP
F1E0
F7E0
F7C0
FFC0
FF00
FF00
FF80
F7C0
F3E0
F1E0
ENDCHAR
STARTCHAR uni0520
ENCODING 1312
SWIDTH 850 0
DWIDTH 17 0
BBX 16 13 0 -3
BITMAP
0FE0
1FE0
3FE0
7DFE
F9FF
F1E7
F1E7
F1E7
F1E7
F1E7
0007
001F
001E
ENDCHAR
STARTCHAR uni0521
ENCODING 1313
SWIDTH 850 0
DWIDTH 17 0
BBX 16 13 0 -3
BITMAP
0FE0
1FE0
3FE0
7DFE
F9FF
F1E7
F1E7
F1E7
F1E7
F1E7
0007
001F
001E
ENDCHAR
STARTCHAR uni0522
ENCODING 1314
SWIDTH 850 0
DWIDTH 17 0
BBX 16 13 0 -3
BITMAP
F1E0
F1E0
F1E0
F1FE
FFFF
FFE7
F1E7
F1E7
F1E7
F1E7
0007
001F
001E
ENDCHAR
STARTCHAR uni0523
ENCODING 1315
SWIDTH 850 0
DWIDTH 17 0
BBX 16 13 0 -3
BITMAP
F1E0
F1E0
F1E0
F1FE
FFFF
FFE7
F1E7
F1E7
F1E7
F1E7
0007
001F
001E
ENDCHAR
STARTCHAR uni0524
ENCODING 1316
SWIDTH 650 0
DWIDTH 13 0
BBX 12 12 0 -2
BITMAP
FFE0
FFE0
F1E0
F1E0
F1E0
F1E0
F1E0
F1E0
F1F0
F1F0
00F0
00F0
ENDCHAR
STARTCHAR uni0525
ENCODING 1317
SWIDTH 650 0
DWIDTH 13 0
BBX 12 12 0 -2
BITMAP
FFE0
FFE0
F1E0
F1E0
F1E0
F1E0
F1E0
F1E0
F1F0
F1F0
00F0
00F0
ENDCHAR
STARTCHAR uni0526
ENCODING 1318
SWIDTH 650 0
DWIDTH 13 0
BBX 12 12 0 -2
BITMAP
F000
F000
F000
F000
FFC0
FFE0
F1E0
F1E0
F1F0
F1F0
00F0
00F0
ENDCHAR
STARTCHAR uni0527
ENCODING 1319
SWIDTH 650 0
DWIDTH 13 0
BBX 12 12 0 -2
BITMAP
F000
F000
F000
F000
FFC0
FFE0
F1E0
F1E0
F1F0
F1F0
00F0
00F0
ENDCHAR
STARTCHAR afii57799
ENCODING 1456
SWIDTH 0 0
DWIDTH 0 0
BBX 3 3 4 -4
BITMAP
E0
00
E0
ENDCHAR
STARTCHAR afii57801
ENCODING 1457
SWIDTH 0 0
DWIDTH 0 0
BBX 11 3 0 -4
BITMAP
EEE0
0000
38E0
ENDCHAR
STARTCHAR afii57800
ENCODING 1458
SWIDTH 0 0
DWIDTH 0 0
BBX 7 3 2 -4
BITMAP
EE
00
0E
ENDCHAR
STARTCHAR afii57802
ENCODING 1459
SWIDTH 0 0
DWIDTH 0 0
BBX 7 3 2 -4
BITMAP
EE
40
0E
ENDCHAR
STARTCHAR afii57793
ENCODING 1460
SWIDTH 0 0
DWIDTH 0 0
BBX 3 2 4 -3
BITMAP
E0
E0
ENDCHAR
STARTCHAR afii57794
ENCODING 1461
SWIDTH 0 0
DWIDTH 0 0
BBX 7 1 2 -2
BITMAP
EE
ENDCHAR
STARTCHAR afii57795
ENCODING 1462
SWIDTH 0 0
DWIDTH 0 0
BBX 7 3 2 -4
BITMAP
EE
00
38
ENDCHAR
STARTCHAR afii57798
ENCODING 1463
SWIDTH 0 0
DWIDTH 0 0
BBX 3 1 4 -2
BITMAP
E0
ENDCHAR
STARTCHAR afii57797
ENCODING 1464
SWIDTH 0 0
DWIDTH 0 0
BBX 3 2 4 -3
BITMAP
E0
40
ENDCHAR
STARTCHAR afii57806
ENCODING 1465
SWIDTH 0 0
DWIDTH 0 0
BBX 3 3 4 12
BITMAP
E0
E0
E0
ENDCHAR
STARTCHAR afii57796
ENCODING 1467
SWIDTH 0 0
DWIDTH 0 0
BBX 9 3 1 -4
BITMAP
E000
1C00
0380
ENDCHAR
STARTCHAR afii57807
ENCODING 1468
SWIDTH 0 0
DWIDTH 0 0
BBX 2 2 3 4
BITMAP
C0
C0
ENDCHAR
STARTCHAR afii57839
ENCODING 1469
SWIDTH 0 0
DWIDTH 0 0
BBX 1 3 10 -4
BITMAP
80
80
80
ENDCHAR
STARTCHAR afii57645
ENCODING 1470
SWIDTH 600 0
DWIDTH 12 0
BBX 11 2 0 8
BITMAP
FFE0
FFE0
ENDCHAR
STARTCHAR afii57841
ENCODING 1471
SWIDTH 0 0
DWIDTH 0 0
BBX 11 2 0 12
BITMAP
FFE0
FFE0
ENDCHAR
STARTCHAR afii57842
ENCODING 1472
SWIDTH 200 0
DWIDTH 4 0
BBX 3 11 0 0
BITMAP
E0
E0
E0
E0
E0
E0
E0
E0
E0
E0
E0
ENDCHAR
STARTCHAR afii57804
ENCODING 1473
SWIDTH 0 0
DWIDTH 0 0
BBX 2 2 8 12
BITMAP
C0
C0
ENDCHAR
STARTCHAR afii57803
ENCODING 1474
SWIDTH 0 0
DWIDTH 0 0
BBX 2 2 1 12
BITMAP
C0
C0
ENDCHAR
STARTCHAR afii57658
ENCODING 1475
SWIDTH 200 0
DWIDTH 4 0
BBX 3 10 0 0
BITMAP
E0
E0
00
00
00
00
00
00
E0
E0
ENDCHAR
STARTCHAR afii57664
ENCODING 1488
SWIDTH 600 0
DWIDTH 12 0
BBX 11 10 0 0
BITMAP
E1E0
F1E0
F9E0
7FE0
3FC0
7F80
F7C0
F3E0
F1E0
F0E0
ENDCHAR
STARTCHAR afii57665
ENCODING 1489
SWIDTH 700 0
DWIDTH 14 0
BBX 13 10 0 0
BITMAP
FFE0
FFF0
00F0
00F0
00F0
00F0
00F0
00F0
FFF8
FFF8
ENDCHAR
STARTCHAR afii57666
ENCODING 1490
SWIDTH 550 0
DWIDTH 11 0
BBX 10 10 0 0
BITMAP
FF80
FFC0
03C0
07C0
0FC0
1FC0
3FC0
7FC0
FBC0
F3C0
ENDCHAR
STARTCHAR afii57667
ENCODING 1491
SWIDTH 550 0
DWIDTH 11 0
BBX 10 10 0 0
BITMAP
FFC0
FFC0
0380
0780
0780
0780
0780
0780
0780
0780
ENDCHAR
STARTCHAR afii57668
ENCODING 1492
SWIDTH 600 0
DWIDTH 12 0
BBX 11 10 0 0
BITMAP
FFC0
FFE0
01E0
01E0
F1E0
F1E0
F1E0
F1E0
F1E0
F1E0
ENDCHAR
STARTCHAR afii57669
ENCODING 1493
SWIDTH 400 0
DWIDTH 8 0
BBX 7 10 0 0
BITMAP
FC
FE
1E
1E
1E
1E
1E
1E
1E
1E
ENDCHAR
STARTCHAR afii57670
ENCODING 1494
SWIDTH 550 0
DWIDTH 11 0
BBX 10 10 0 0
BITMAP
FFC0
FFC0
1E00
1E00
1E00
1E00
1E00
1E00
1E00
1E00
ENDCHAR
STARTCHAR afii57671
ENCODING 1495
SWIDTH 600 0
DWIDTH 12 0
BBX 11 10 0 0
BITMAP
FFC0
FFE0
F1E0
F1E0
F1E0
F1E0
F1E0
F1E0
F1E0
F1E0
ENDCHAR
STARTCHAR afii57672
ENCODING 1496
SWIDTH 650 0
DWIDTH 13 0
BBX 12 10 0 0
BITMAP
F1E0
F3F0
F7F0
F7F0
F7F0
F6F0
F0F0
F0F0
FFF0
FFE0
ENDCHAR
STARTCHAR afii57673
ENCODING 1497
SWIDTH 250 0
DWIDTH 5 0
BBX 4 6 0 4
BITMAP
F0
F0
F0
F0
F0
F0
ENDCHAR
STARTCHAR afii57674
ENCODING 1498
SWIDTH 550 0
DWIDTH 11 0
BBX 10 12 0 -2
BITMAP
FF80
FFC0
03C0
03C0
03C0
03C0
03C0
03C0
03C0
03C0
03C0
03C0
ENDCHAR
STARTCHAR afii57675
ENCODING 1499
SWIDTH 600 0
DWIDTH 12 0
BBX 11 10 0 0
BITMAP
FFC0
FFE0
01E0
01E0
01E0
01E0
01E0
01E0
FFE0
FFC0
ENDCHAR
STARTCHAR afii57676
ENCODING 1500
SWIDTH 600 0
DWIDTH 12 0
BBX 11 12 0 0
BITMAP
F000
F000
FFE0
FFE0
01E0
01E0
01E0
01E0
03E0
07C0
0F80
0F00
ENDCHAR
STARTCHAR afii57677
ENCODING 1501
SWIDTH 600 0
DWIDTH 12 0
BBX 11 10 0 0
BITMAP
FFC0
FFE0
3FE0
7DE0
F9E0
F1E0
F1E0
F1E0
FFE0
FFE0
ENDCHAR
STARTCHAR afii57678
ENCODING 1502
SWIDTH 600 0
DWIDTH 12 0
BBX 11 10 0 0
BITMAP
EFC0
FFE0
FFE0
7DE0
F9E0
F1E0
F1E0
F1E0
F7E0
F7E0
ENDCHAR
STARTCHAR afii57679
ENCODING 1503
SWIDTH 400 0
DWIDTH 8 0
BBX 7 12 0 -2
BITMAP
FC
FE
1E
1E
1E
1E
1E
1E
1E
1E
1E
1E
ENDCHAR
STARTCHAR afii57680
ENCODING 1504
SWIDTH 400 0
DWIDTH 8 0
BBX 7 10 0 0
BITMAP
FC
FE
1E
1E
1E
1E
1E
1E
FE
FE
ENDCHAR
STARTCHAR afii57681
ENCODING 1505
SWIDTH 600 0
DWIDTH 12 0
BBX 11 10 0 0
BITMAP
FFC0
FFE0
3FE0
7DE0
F9E0
F1E0
F1E0
F1E0
FFE0
7FC0
ENDCHAR
STARTCHAR afii57682
ENCODING 1506
SWIDTH 650 0
DWIDTH 13 0
BBX 12 10 0 0
BITMAP
78F0
78F0
78F0
78F0
78F0
78F0
78F0
78F0
FFF0
FFE0
ENDCHAR
STARTCHAR afii57683
ENCODING 1507
SWIDTH 600 0
DWIDTH 12 0
BBX 11 12 0 -2
BITMAP
FFC0
FFE0
F1E0
F1E0
FDE0
7DE0
01E0
01E0
01E0
01E0
01E0
01E0
ENDCHAR
STARTCHAR afii57684
ENCODING 1508
SWIDTH 600 0
DWIDTH 12 0
BBX 11 10 0 0
BITMAP
FFC0
FFE0
F1E0
F1E0
FDE0
7DE0
01E0
01E0
FFE0
FFC0
ENDCHAR
STARTCHAR afii57685
ENCODING 1509
SWIDTH 650 0
DWIDTH 13 0
BBX 12 12 0 -2
BITMAP
E070
F0F0
F9F0
7FE0
3FC0
1F80
0F00
0F00
0F00
0F00
0F00
0F00
ENDCHAR
STARTCHAR afii57686
ENCODING 1510
SWIDTH 600 0
DWIDTH 12 0
BBX 11 10 0 0
BITMAP
E0E0
F1E0
FBE0
7FC0
3F80
1F00
0F80
07C0
FFE0
FFE0
ENDCHAR
STARTCHAR afii57687
ENCODING 1511
SWIDTH 600 0
DWIDTH 12 0
BBX 11 12 0 -2
BITMAP
FFC0
FFE0
01E0
01E0
F1E0
F1E0
F3E0
F7C0
F780
F700
F000
F000
ENDCHAR
STARTCHAR afii57688
ENCODING 1512
SWIDTH 550 0
DWIDTH 11 0
BBX 10 10 0 0
BITMAP
FF80
FFC0
03C0
03C0
03C0
03C0
03C0
03C0
03C0
03C0
ENDCHAR
STARTCHAR afii57689
ENCODING 1513
SWIDTH 750 0
DWIDTH 15 0
BBX 14 10 0 0
BITMAP
F7BC
F7BC
F7BC
F7BC
FFBC
FF3C
FE3C
F03C
FFFC
7FF8
ENDCHAR
STARTCHAR afii57690
ENCODING 1514
SWIDTH 650 0
DWIDTH 13 0
BBX 12 10 0 0
BITMAP
FFE0
FFF0
78F0
78F0
78F0
78F0
78F0
78F0
F8F0
F8F0
ENDCHAR
STARTCHAR uni05F3
ENCODING 1523
SWIDTH 200 0
DWIDTH 4 0
BBX 3 6 0 4
BITMAP
E0
E0
E0
E0
E0
E0
ENDCHAR
STARTCHAR uni05F4
ENCODING 1524
SWIDTH 400 0
DWIDTH 8 0
BBX 7 6 0 4
BITMAP
EE
EE
EE
EE
EE
EE
ENDCHAR
STARTCHAR Wgrave
ENCODING 7808
SWIDTH 700 0
DWIDTH 14 0
BBX 13 15 0 0
BITMAP
0C00
0E00
0700
0300
0000
F078
F078
F078
F278
F778
FFF8
FFF8
FDF8
F8F8
F078
ENDCHAR
STARTCHAR wgrave
ENCODING 7809
SWIDTH 700 0
DWIDTH 14 0
BBX 13 15 0 0
BITMAP
0C00
0E00
0700
0300
0000
F078
F078
F078
F278
F778
FFF8
FFF8
FDF8
F8F8
F078
ENDCHAR
STARTCHAR Wacute
ENCODING 7810
SWIDTH 700 0
DWIDTH 14 0
BBX 13 15 0 0
BITMAP
0180
0380
0700
0600
0000
F078
F078
F078
F278
F778
FFF8
FFF8
FDF8
F8F8
F078
ENDCHAR
STARTCHAR wacute
ENCODING 7811
SWIDTH 700 0
DWIDTH 14 0
BBX 13 15 0 0
BITMAP
0180
0380
0700
0600
0000
F078
F078
F078
F278
F778
FFF8
FFF8
FDF8
F8F8
F078
ENDCHAR
STARTCHAR Wdieresis
ENCODING 7812
SWIDTH 700 0
DWIDTH 14 0
BBX 13 15 0 0
BITMAP
38E0
38E0
38E0
0000
0000
F078
F078
F078
F278
F778
FFF8
FFF8
FDF8
F8F8
F078
ENDCHAR
STARTCHAR wdieresis
ENCODING 7813
SWIDTH 700 0
DWIDTH 14 0
BBX 13 15 0 0
BITMAP
38E0
38E0
38E0
0000
0000
F078
F078
F078
F278
F778
FFF8
FFF8
FDF8
F8F8
F078
ENDCHAR
STARTCHAR Ygrave
ENCODING 7922
SWIDTH 650 0
DWIDTH 13 0
BBX 12 15 0 0
BITMAP
1800
1C00
0E00
0600
0000
F0F0
F0F0
F0F0
F9F0
7FE0
3FC0
0F00
0F00
0F00
0F00
ENDCHAR
STARTCHAR ygrave
ENCODING 7923
SWIDTH 650 0
DWIDTH 13 0
BBX 12 15 0 0
BITMAP
1800
1C00
0E00
0600
0000
F0F0
F0F0
F0F0
F9F0
7FE0
3FC0
0F00
0F00
0F00
0F00
ENDCHAR
STARTCHAR uni1F00
ENCODING 7936
SWIDTH 600 0
DWIDTH 12 0
BBX 11 14 0 0
BITMAP
0E00
0E00
0600
0000
7FC0
FFE0
F1E0
F1E0
FFE0
FFE0
F1E0
F1E0
F1E0
F1E0
ENDCHAR
STARTCHAR uni1F01
ENCODING 7937
SWIDTH 600 0
DWIDTH 12 0
BBX 11 14 0 0
BITMAP
0E00
0E00
0C00
0000
7FC0
FFE0
F1E0
F1E0
FFE0
FFE0
F1E0
F1E0
F1E0
F1E0
ENDCHAR
STARTCHAR uni1F02
ENCODING 7938
SWIDTH 600 0
DWIDTH 12 0
BBX 11 15 0 0
BITMAP
0300
3B80
39C0
18C0
0000
7FC0
FFE0
F1E0
F1E0
FFE0
FFE0
F1E0
F1E0
F1E0
F1E0
ENDCHAR
STARTCHAR uni1F03
ENCODING 7939
SWIDTH 600 0
DWIDTH 12 0
BBX 11 15 0 0
BITMAP
0300
3B80
39C0
30C0
0000
7FC0
FFE0
F1E0
F1E0
FFE0
FFE0
F1E0
F1E0
F1E0
F1E0
ENDCHAR
STARTCHAR uni1F04
ENCODING 7940
SWIDTH 600 0
DWIDTH 12 0
BBX 11 15 0 0
BITMAP
00C0
39C0
3B80
1B00
0000
7FC0
FFE0
F1E0
F1E0
FFE0
FFE0
F1E0
F1E0
F1E0
F1E0
ENDCHAR
STARTCHAR uni1F05
ENCODING 7941
SWIDTH 600 0
DWIDTH 12 0
BBX 11 15 0 0
BITMAP
00C0
39C0
3B80
3300
0000
7FC0
FFE0
F1E0
F1E0
FFE0
FFE0
F1E0
F1E0
F1E0
F1E0
ENDCHAR
STARTCHAR uni1F06
ENCODING 7942
SWIDTH 600 0
DWIDTH 12 0
BBX 11 17 0 0
BITMAP
0400
0E00
1B00
3180
0E00
0600
0000
7FC0
FFE0
F1E0
F1E0
FFE0
FFE0
F1E0
F1E0
F1E0
F1E0
ENDCHAR
STARTCHAR uni1F07
ENCODING 7943
SWIDTH 600 0
DWIDTH 12 0
BBX 11 17 0 0
BITMAP
0400
0E00
1B00
3180
0E00
0C00
0000
7FC0
FFE0
F1E0
F1E0
FFE0
FFE0
F1E0
F1E0
F1E0
F1E0
ENDCHAR
STARTCHAR uni1F08
ENCODING 7944
SWIDTH 600 0
DWIDTH 12 0
BBX 11 14 0 0
BITMAP
0E00
0E00
0600
0000
7FC0
FFE0
F1E0
F1E0
FFE0
FFE0
F1E0
F1E0
F1E0
F1E0
ENDCHAR
STARTCHAR uni1F09
ENCODING 7945
SWIDTH 600 0
DWIDTH 12 0
BBX 11 14 0 0
BITMAP
0E00
0E00
0C00
0000
7FC0
FFE0
F1E0
F1E0
FFE0
FFE0
F1E0
F1E0
F1E0
F1E0
ENDCHAR
STARTCHAR uni1F0A
ENCODING 7946
SWIDTH 600 0
DWIDTH 12 0
BBX 11 15 0 0
BITMAP
0300
3B80
39C0
18C0
0000
7FC0
FFE0
F1E0
F1E0
FFE0
FFE0
F1E0
F1E0
F1E0
F1E0
ENDCHAR
STARTCHAR uni1F0B
ENCODING 7947
SWIDTH 600 0
DWIDTH 12 0
BBX 11 15 0 0
BITMAP
0300
3B80
39C0
30C0
0000
7FC0
FFE0
F1E0
F1E0
FFE0
FFE0
F1E0
F1E0
F1E0
F1E0
ENDCHAR
STARTCHAR uni1F0C
ENCODING 7948
SWIDTH 600 0
DWIDTH 12 0
BBX 11 15 0 0
BITMAP
00C0
39C0
3B80
1B00
0000
7FC0
FFE0
F1E0
F1E0
FFE0
FFE0
F1E0
F1E0
F1E0
F1E0
ENDCHAR
STARTCHAR uni1F0D
ENCODING 7949
SWIDTH 600 0
DWIDTH 12 0
BBX 11 15 0 0
BITMAP
00C0
39C0
3B80
3300
0000
7FC0
FFE0
F1E0
F1E0
FFE0
FFE0
F1E0
F1E0
F1E0
F1E0
ENDCHAR
STARTCHAR uni1F0E
ENCODING 7950
SWIDTH 600 0
DWIDTH 12 0
BBX 11 17 0 0
BITMAP
0400
0E00
1B00
3180
0E00
0600
0000
7FC0
FFE0
F1E0
F1E0
FFE0
FFE0
F1E0
F1E0
F1E0
F1E0
ENDCHAR
STARTCHAR uni1F0F
ENCODING 7951
SWIDTH 600 0
DWIDTH 12 0
BBX 11 17 0 0
BITMAP
0400
0E00
1B00
3180
0E00
0C00
0000
7FC0
FFE0
F1E0
F1E0
FFE0
FFE0
F1E0
F1E0
F1E0
F1E0
ENDCHAR
STARTCHAR uni1F10
ENCODING 7952
SWIDTH 600 0
DWIDTH 12 0
BBX 11 14 0 0
BITMAP
0E00
0E00
0600
0000
7FE0
FFE0
F000
F000
FE00
FE00
F000
F000
FFE0
7FE0
ENDCHAR
STARTCHAR uni1F11
ENCODING 7953
SWIDTH 600 0
DWIDTH 12 0
BBX 11 14 0 0
BITMAP
0E00
0E00
0C00
0000
7FE0
FFE0
F000
F000
FE00
FE00
F000
F000
FFE0
7FE0
ENDCHAR
STARTCHAR uni1F12
ENCODING 7954
SWIDTH 600 0
DWIDTH 12 0
BBX 11 15 0 0
BITMAP
0300
3B80
39C0
18C0
0000
7FE0
FFE0
F000
F000
FE00
FE00
F000
F000
FFE0
7FE0
ENDCHAR
STARTCHAR uni1F13
ENCODING 7955
SWIDTH 600 0
DWIDTH 12 0
BBX 11 15 0 0
BITMAP
0300
3B80
39C0
30C0
0000
7FE0
FFE0
F000
F000
FE00
FE00
F000
F000
FFE0
7FE0
ENDCHAR
STARTCHAR uni1F14
ENCODING 7956
SWIDTH 600 0
DWIDTH 12 0
BBX 11 15 0 0
BITMAP
00C0
39C0
3B80
1B00
0000
7FE0
FFE0
F000
F000
FE00
FE00
F000
F000
FFE0
7FE0
ENDCHAR
STARTCHAR uni1F15
ENCODING 7957
SWIDTH 600 0
DWIDTH 12 0
BBX 11 15 0 0
BITMAP
00C0
39C0
3B80
3300
0000
7FE0
FFE0
F000
F000
FE00
FE00
F000
F000
FFE0
7FE0
ENDCHAR
STARTCHAR uni1F18
ENCODING 7960
SWIDTH 600 0
DWIDTH 12 0
BBX 11 14 0 0
BITMAP
0E00
0E00
0600
0000
7FE0
FFE0
F000
F000
FE00
FE00
F000
F000
FFE0
7FE0
ENDCHAR
STARTCHAR uni1F19
ENCODING 7961
SWIDTH 600 0
DWIDTH 12 0
BBX 11 14 0 0
BITMAP
0E00
0E00
0C00
0000
7FE0
FFE0
F000
F000
FE00
FE00
F000
F000
FFE0
7FE0
ENDCHAR
STARTCHAR uni1F1A
ENCODING 7962
SWIDTH 600 0
DWIDTH 12 0
BBX 11 15 0 0
BITMAP
0300
3B80
39C0
18C0
0000
7FE0
FFE0
F000
F000
FE00
FE00
F000
F000
FFE0
7FE0
ENDCHAR
STARTCHAR uni1F1B
ENCODING 7963
SWIDTH 600 0
DWIDTH 12 0
BBX 11 15 0 0
BITMAP
0300
3B80
39C0
30C0
0000
7FE0
FFE0
F000
F000
FE00
FE00
F000
F000
FFE0
7FE0
ENDCHAR
STARTCHAR uni1F1C
ENCODING 7964
SWIDTH 600 0
DWIDTH 12 0
BBX 11 15 0 0
BITMAP
00C0
39C0
3B80
1B00
0000
7FE0
FFE0
F000
F000
FE00
FE00
F000
F000
FFE0
7FE0
ENDCHAR
STARTCHAR uni1F1D
ENCODING 7965
SWIDTH 600 0
DWIDTH 12 0
BBX 11 15 0 0
BITMAP
00C0
39C0
3B80
3300
0000
7FE0
FFE0
F000
F000
FE00
FE00
F000
F000
FFE0
7FE0
ENDCHAR
STARTCHAR uni1F20
ENCODING 7968
SWIDTH 600 0
DWIDTH 12 0
BBX 11 14 0 0
BITMAP
0E00
0E00
0600
0000
F1E0
F1E0
F1E0
F1E0
FFE0
FFE0
F1E0
F1E0
F1E0
F1E0
ENDCHAR
STARTCHAR uni1F21
ENCODING 7969
SWIDTH 600 0
DWIDTH 12 0
BBX 11 14 0 0
BITMAP
0E00
0E00
0C00
0000
F1E0
F1E0
F1E0
F1E0
FFE0
FFE0
F1E0
F1E0
F1E0
F1E0
ENDCHAR
STARTCHAR uni1F22
ENCODING 7970
SWIDTH 600 0
DWIDTH 12 0
BBX 11 15 0 0
BITMAP
0300
3B80
39C0
18C0
0000
F1E0
F1E0
F1E0
F1E0
FFE0
FFE0
F1E0
F1E0
F1E0
F1E0
ENDCHAR
STARTCHAR uni1F23
ENCODING 7971
SWIDTH 600 0
DWIDTH 12 0
BBX 11 15 0 0
BITMAP
0300
3B80
39C0
30C0
0000
F1E0
F1E0
F1E0
F1E0
FFE0
FFE0
F1E0
F1E0
F1E0
F1E0
ENDCHAR
STARTCHAR uni1F24
ENCODING 7972
SWIDTH 600 0
DWIDTH 12 0
BBX 11 15 0 0
BITMAP
00C0
39C0
3B80
1B00
0000
F1E0
F1E0
F1E0
F1E0
FFE0
FFE0
F1E0
F1E0
F1E0
F1E0
ENDCHAR
STARTCHAR uni1F25
ENCODING 7973
SWIDTH 600 0
DWIDTH 12 0
BBX 11 15 0 0
BITMAP
00C0
39C0
3B80
3300
0000
F1E0
F1E0
F1E0
F1E0
FFE0
FFE0
F1E0
F1E0
F1E0
F1E0
ENDCHAR
STARTCHAR uni1F26
ENCODING 7974
SWIDTH 600 0
DWIDTH 12 0
BBX 11 17 0 0
BITMAP
0400
0E00
1B00
3180
0E00
0600
0000
F1E0
F1E0
F1E0
F1E0
FFE0
FFE0
F1E0
F1E0
F1E0
F1E0
ENDCHAR
STARTCHAR uni1F27
ENCODING 7975
SWIDTH 600 0
DWIDTH 12 0
BBX 11 17 0 0
BITMAP
0400
0E00
1B00
3180
0E00
0C00
0000
F1E0
F1E0
F1E0
F1E0
FFE0
FFE0
F1E0
F1E0
F1E0
F1E0
ENDCHAR
STARTCHAR uni1F28
ENCODING 7976
SWIDTH 600 0
DWIDTH 12 0
BBX 11 14 0 0
BITMAP
0E00
0E00
0600
0000
F1E0
F1E0
F1E0
F1E0
FFE0
FFE0
F1E0
F1E0
F1E0
F1E0
ENDCHAR
STARTCHAR uni1F29
ENCODING 7977
SWIDTH 600 0
DWIDTH 12 0
BBX 11 14 0 0
BITMAP
0E00
0E00
0C00
0000
F1E0
F1E0
F1E0
F1E0
FFE0
FFE0
F1E0
F1E0
F1E0
F1E0
ENDCHAR
STARTCHAR uni1F2A
ENCODING 7978
SWIDTH 600 0
DWIDTH 12 0
BBX 11 15 0 0
BITMAP
0300
3B80
39C0
18C0
0000
F1E0
F1E0
F1E0
F1E0
FFE0
FFE0
F1E0
F1E0
F1E0
F1E0
ENDCHAR
STARTCHAR uni1F2B
ENCODING 7979
SWIDTH 600 0
DWIDTH 12 0
BBX 11 15 0 0
BITMAP
00C0
39C0
3B80
3300
0000
F1E0
F1E0
F1E0
F1E0
FFE0
FFE0
F1E0
F1E0
F1E0
F1E0
ENDCHAR
STARTCHAR uni1F2C
ENCODING 7980
SWIDTH 600 0
DWIDTH 12 0
BBX 11 15 0 0
BITMAP
00C0
39C0
3B80
1B00
0000
F1E0
F1E0
F1E0
F1E0
FFE0
FFE0
F1E0
F1E0
F1E0
F1E0
ENDCHAR
STARTCHAR uni1F2D
ENCODING 7981
SWIDTH 600 0
DWIDTH 12 0
BBX 11 15 0 0
BITMAP
00C0
39C0
3B80
3300
0000
F1E0
F1E0
F1E0
F1E0
FFE0
FFE0
F1E0
F1E0
F1E0
F1E0
ENDCHAR
STARTCHAR uni1F2E
ENCODING 7982
SWIDTH 600 0
DWIDTH 12 0
BBX 11 17 0 0
BITMAP
0400
0E00
1B00
3180
0E00
0600
0000
F1E0
F1E0
F1E0
F1E0
FFE0
FFE0
F1E0
F1E0
F1E0
F1E0
ENDCHAR
STARTCHAR uni1F2F
ENCODING 7983
SWIDTH 600 0
DWIDTH 12 0
BBX 11 17 0 0
BITMAP
0400
0E00
1B00
3180
0E00
0C00
0000
F1E0
F1E0
F1E0
F1E0
FFE0
FFE0
F1E0
F1E0
F1E0
F1E0
ENDCHAR
STARTCHAR uni1F30
ENCODING 7984
SWIDTH 550 0
DWIDTH 11 0
BBX 10 14 0 0
BITMAP
1E00
1E00
0E00
0000
FFC0
FFC0
1E00
1E00
1E00
1E00
1E00
1E00
FFC0
FFC0
ENDCHAR
STARTCHAR uni1F31
ENCODING 7985
SWIDTH 550 0
DWIDTH 11 0
BBX 10 14 0 0
BITMAP
1E00
1E00
1C00
0000
FFC0
FFC0
1E00
1E00
1E00
1E00
1E00
1E00
FFC0
FFC0
ENDCHAR
STARTCHAR uni1F32
ENCODING 7986
SWIDTH 550 0
DWIDTH 11 0
BBX 10 15 0 0
BITMAP
0600
7700
7380
3180
0000
FFC0
FFC0
1E00
1E00
1E00
1E00
1E00
1E00
FFC0
FFC0
ENDCHAR
STARTCHAR uni1F33
ENCODING 7987
SWIDTH 550 0
DWIDTH 11 0
BBX 10 15 0 0
BITMAP
0600
7700
7380
6180
0000
FFC0
FFC0
1E00
1E00
1E00
1E00
1E00
1E00
FFC0
FFC0
ENDCHAR
STARTCHAR uni1F34
ENCODING 7988
SWIDTH 550 0
DWIDTH 11 0
BBX 10 15 0 0
BITMAP
0180
7380
7700
3600
0000
FFC0
FFC0
1E00
1E00
1E00
1E00
1E00
1E00
FFC0
FFC0
ENDCHAR
STARTCHAR uni1F35
ENCODING 7989
SWIDTH 550 0
DWIDTH 11 0
BBX 10 15 0 0
BITMAP
0180
7380
7700
6600
0000
FFC0
FFC0
1E00
1E00
1E00
1E00
1E00
1E00
FFC0
FFC0
ENDCHAR
STARTCHAR uni1F36
ENCODING 7990
SWIDTH 550 0
DWIDTH 11 0
BBX 10 17 0 0
BITMAP
0C00
1E00
3300
6180
1E00
0E00
0000
FFC0
FFC0
1E00
1E00
1E00
1E00
1E00
1E00
FFC0
FFC0
ENDCHAR
STARTCHAR uni1F37
ENCODING 7991
SWIDTH 550 0
DWIDTH 11 0
BBX 10 17 0 0
BITMAP
0C00
1E00
3300
6180
1E00
1C00
0000
FFC0
FFC0
1E00
1E00
1E00
1E00
1E00
1E00
FFC0
FFC0
ENDCHAR
STARTCHAR uni1F38
ENCODING 7992
SWIDTH 550 0
DWIDTH 11 0
BBX 10 14 0 0
BITMAP
1E00
1E00
0E00
0000
FFC0
FFC0
1E00
1E00
1E00
1E00
1E00
1E00
FFC0
FFC0
ENDCHAR
STARTCHAR uni1F39
ENCODING 7993
SWIDTH 550 0
DWIDTH 11 0
BBX 10 14 0 0
BITMAP
1E00
1E00
1C00
0000
FFC0
FFC0
1E00
1E00
1E00
1E00
1E00
1E00
FFC0
FFC0
ENDCHAR
STARTCHAR uni1F3A
ENCODING 7994
SWIDTH 550 0
DWIDTH 11 0
BBX 10 15 0 0
BITMAP
0600
7700
7380
3180
0000
FFC0
FFC0
1E00
1E00
1E00
1E00
1E00
1E00
FFC0
FFC0
ENDCHAR
STARTCHAR uni1F3B
ENCODING 7995
SWIDTH 550 0
DWIDTH 11 0
BBX 10 15 0 0
BITMAP
0600
7700
7380
6180
0000
FFC0
FFC0
1E00
1E00
1E00
1E00
1E00
1E00
FFC0
FFC0
ENDCHAR
STARTCHAR uni1F3C
ENCODING 7996
SWIDTH 550 0
DWIDTH 11 0
BBX 10 15 0 0
BITMAP
0180
7380
7700
3600
0000
FFC0
FFC0
1E00
1E00
1E00
1E00
1E00
1E00
FFC0
FFC0
ENDCHAR
STARTCHAR uni1F3D
ENCODING 7997
SWIDTH 550 0
DWIDTH 11 0
BBX 10 15 0 0
BITMAP
0180
7380
7700
6600
0000
FFC0
FFC0
1E00
1E00
1E00
1E00
1E00
1E00
FFC0
FFC0
ENDCHAR
STARTCHAR uni1F3E
ENCODING 7998
SWIDTH 550 0
DWIDTH 11 0
BBX 10 17 0 0
BITMAP
0C00
1E00
3300
6180
1E00
0E00
0000
FFC0
FFC0
1E00
1E00
1E00
1E00
1E00
1E00
FFC0
FFC0
ENDCHAR
STARTCHAR uni1F3F
ENCODING 7999
SWIDTH 550 0
DWIDTH 11 0
BBX 10 17 0 0
BITMAP
0C00
1E00
3300
6180
1E00
1C00
0000
FFC0
FFC0
1E00
1E00
1E00
1E00
1E00
1E00
FFC0
FFC0
ENDCHAR
STARTCHAR uni1F40
ENCODING 8000
SWIDTH 600 0
DWIDTH 12 0
BBX 11 14 0 0
BITMAP
0E00
0E00
0600
0000
7FC0
FFE0
F1E0
F1E0
F1E0
F1E0
F1E0
F1E0
FFE0
7FC0
ENDCHAR
STARTCHAR uni1F41
ENCODING 8001
SWIDTH 600 0
DWIDTH 12 0
BBX 11 14 0 0
BITMAP
0E00
0E00
0C00
0000
7FC0
FFE0
F1E0
F1E0
F1E0
F1E0
F1E0
F1E0
FFE0
7FC0
ENDCHAR
STARTCHAR uni1F42
ENCODING 8002
SWIDTH 600 0
DWIDTH 12 0
BBX 11 15 0 0
BITMAP
0300
3B80
39C0
18C0
0000
7FC0
FFE0
F1E0
F1E0
F1E0
F1E0
F1E0
F1E0
FFE0
7FC0
ENDCHAR
STARTCHAR uni1F43
ENCODING 8003
SWIDTH 600 0
DWIDTH 12 0
BBX 11 15 0 0
BITMAP
0300
3B80
39C0
30C0
0000
7FC0
FFE0
F1E0
F1E0
F1E0
F1E0
F1E0
F1E0
FFE0
7FC0
ENDCHAR
STARTCHAR uni1F44
ENCODING 8004
SWIDTH 600 0
DWIDTH 12 0
BBX 11 15 0 0
BITMAP
00C0
39C0
3B80
1B00
0000
7FC0
FFE0
F1E0
F1E0
F1E0
F1E0
F1E0
F1E0
FFE0
7FC0
ENDCHAR
STARTCHAR uni1F45
ENCODING 8005
SWIDTH 600 0
DWIDTH 12 0
BBX 11 15 0 0
BITMAP
00C0
39C0
3B80
3300
0000
7FC0
FFE0
F1E0
F1E0
F1E0
F1E0
F1E0
F1E0
FFE0
7FC0
ENDCHAR
STARTCHAR uni1F48
ENCODING 8008
SWIDTH 600 0
DWIDTH 12 0
BBX 11 14 0 0
BITMAP
0E00
0E00
0600
0000
7FC0
FFE0
F1E0
F1E0
F1E0
F1E0
F1E0
F1E0
FFE0
7FC0
ENDCHAR
STARTCHAR uni1F49
ENCODING 8009
SWIDTH 600 0
DWIDTH 12 0
BBX 11 14 0 0
BITMAP
0E00
0E00
0C00
0000
7FC0
FFE0
F1E0
F1E0
F1E0
F1E0
F1E0
F1E0
FFE0
7FC0
ENDCHAR
STARTCHAR uni1F4A
ENCODING 8010
SWIDTH 600 0
DWIDTH 12 0
BBX 11 15 0 0
BITMAP
0300
3B80
39C0
18C0
0000
7FC0
FFE0
F1E0
F1E0
F1E0
F1E0
F1E0
F1E0
FFE0
7FC0
ENDCHAR
STARTCHAR uni1F4B
ENCODING 8011
SWIDTH 600 0
DWIDTH 12 0
BBX 11 15 0 0
BITMAP
0300
3B80
39C0
30C0
0000
7FC0
FFE0
F1E0
F1E0
F1E0
F1E0
F1E0
F1E0
FFE0
7FC0
ENDCHAR
STARTCHAR uni1F4C
ENCODING 8012
SWIDTH 600 0
DWIDTH 12 0
BBX 11 15 0 0
BITMAP
00C0
39C0
3B80
1B00
0000
7FC0
FFE0
F1E0
F1E0
F1E0
F1E0
F1E0
F1E0
FFE0
7FC0
ENDCHAR
STARTCHAR uni1F4D
ENCODING 8013
SWIDTH 600 0
DWIDTH 12 0
BBX 11 15 0 0
BITMAP
00C0
39C0
3B80
3300
0000
7FC0
FFE0
F1E0
F1E0
F1E0
F1E0
F1E0
F1E0
FFE0
7FC0
ENDCHAR
STARTCHAR uni1F50
ENCODING 8016
SWIDTH 650 0
DWIDTH 13 0
BBX 12 14 0 0
BITMAP
0F00
0F00
0700
0000
E070
F0F0
F9F0
7FE0
3FC0
1F80
0F00
0F00
0F00
0F00
ENDCHAR
STARTCHAR uni1F51
ENCODING 8017
SWIDTH 650 0
DWIDTH 13 0
BBX 12 14 0 0
BITMAP
0F00
0F00
0E00
0000
E070
F0F0
F9F0
7FE0
3FC0
1F80
0F00
0F00
0F00
0F00
ENDCHAR
STARTCHAR uni1F52
ENCODING 8018
SWIDTH 650 0
DWIDTH 13 0
BBX 12 15 0 0
BITMAP
0300
3B80
39C0
18C0
0000
E070
F0F0
F9F0
7FE0
3FC0
1F80
0F00
0F00
0F00
0F00
ENDCHAR
STARTCHAR uni1F53
ENCODING 8019
SWIDTH 650 0
DWIDTH 13 0
BBX 12 15 0 0
BITMAP
0300
3B80
39C0
30C0
0000
E070
F0F0
F9F0
7FE0
3FC0
1F80
0F00
0F00
0F00
0F00
ENDCHAR
STARTCHAR uni1F54
ENCODING 8020
SWIDTH 650 0
DWIDTH 13 0
BBX 12 15 0 0
BITMAP
00C0
39C0
3B80
1B00
0000
E070
F0F0
F9F0
7FE0
3FC0
1F80
0F00
0F00
0F00
0F00
ENDCHAR
STARTCHAR uni1F55
ENCODING 8021
SWIDTH 650 0
DWIDTH 13 0
BBX 12 15 0 0
BITMAP
00C0
39C0
3B80
3300
0000
E070
F0F0
F9F0
7FE0
3FC0
1F80
0F00
0F00
0F00
0F00
ENDCHAR
STARTCHAR uni1F56
ENCODING 8022
SWIDTH 650 0
DWIDTH 13 0
BBX 12 17 0 0
BITMAP
0600
0F00
1980
30C0
0F00
0700
0000
E070
F0F0
F9F0
7FE0
3FC0
1F80
0F00
0F00
0F00
0F00
ENDCHAR
STARTCHAR uni1F57
ENCODING 8023
SWIDTH 650 0
DWIDTH 13 0
BBX 12 17 0 0
BITMAP
0600
0F00
1980
30C0
0F00
0E00
0000
E070
F0F0
F9F0
7FE0
3FC0
1F80
0F00
0F00
0F00
0F00
ENDCHAR
STARTCHAR uni1F59
ENCODING 8025
SWIDTH 650 0
DWIDTH 13 0
BBX 12 14 0 0
BITMAP
0F00
0F00
0E00
0000
E070
F0F0
F9F0
7FE0
3FC0
1F80
0F00
0F00
0F00
0F00
ENDCHAR
STARTCHAR uni1F5B
ENCODING 8027
SWIDTH 650 0
DWIDTH 13 0
BBX 12 15 0 0
BITMAP
0300
3B80
39C0
30C0
0000
E070
F0F0
F9F0
7FE0
3FC0
1F80
0F00
0F00
0F00
0F00
ENDCHAR
STARTCHAR uni1F5D
ENCODING 8029
SWIDTH 650 0
DWIDTH 13 0
BBX 12 15 0 0
BITMAP
00C0
39C0
3B80
3300
0000
E070
F0F0
F9F0
7FE0
3FC0
1F80
0F00
0F00
0F00
0F00
ENDCHAR
STARTCHAR uni1F5F
ENCODING 8031
SWIDTH 650 0
DWIDTH 13 0
BBX 12 17 0 0
BITMAP
0600
0F00
1980
30C0
0F00
0E00
0000
E070
F0F0
F9F0
7FE0
3FC0
1F80
0F00
0F00
0F00
0F00
ENDCHAR
STARTCHAR uni1F60
ENCODING 8032
SWIDTH 600 0
DWIDTH 12 0
BBX 11 14 0 0
BITMAP
0E00
0E00
0600
0000
7FC0
FFE0
F1E0
F1E0
F1E0
F1E0
F1E0
7BC0
FBE0
FBE0
ENDCHAR
STARTCHAR uni1F61
ENCODING 8033
SWIDTH 600 0
DWIDTH 12 0
BBX 11 14 0 0
BITMAP
0E00
0E00
0C00
0000
7FC0
FFE0
F1E0
F1E0
F1E0
F1E0
F1E0
7BC0
FBE0
FBE0
ENDCHAR
STARTCHAR uni1F62
ENCODING 8034
SWIDTH 600 0
DWIDTH 12 0
BBX 11 15 0 0
BITMAP
0300
3B80
39C0
18C0
0000
7FC0
FFE0
F1E0
F1E0
F1E0
F1E0
F1E0
7BC0
FBE0
FBE0
ENDCHAR
STARTCHAR uni1F63
ENCODING 8035
SWIDTH 600 0
DWIDTH 12 0
BBX 11 15 0 0
BITMAP
0300
3B80
39C0
30C0
0000
7FC0
FFE0
F1E0
F1E0
F1E0
F1E0
F1E0
7BC0
FBE0
FBE0
ENDCHAR
STARTCHAR uni1F64
ENCODING 8036
SWIDTH 600 0
DWIDTH 12 0
BBX 11 15 0 0
BITMAP
00C0
39C0
3B80
1B00
0000
7FC0
FFE0
F1E0
F1E0
F1E0
F1E0
F1E0
7BC0
FBE0
FBE0
ENDCHAR
STARTCHAR uni1F65
ENCODING 8037
SWIDTH 600 0
DWIDTH 12 0
BBX 11 15 0 0
BITMAP
00C0
39C0
3B80
3300
0000
7FC0
FFE0
F1E0
F1E0
F1E0
F1E0
F1E0
7BC0
FBE0
FBE0
ENDCHAR
STARTCHAR uni1F66
ENCODING 8038
SWIDTH 600 0
DWIDTH 12 0
BBX 11 17 0 0
BITMAP
0400
0E00
1B00
3180
0E00
0600
0000
7FC0
FFE0
F1E0
F1E0
F1E0
F1E0
F1E0
7BC0
FBE0
FBE0
ENDCHAR
STARTCHAR uni1F67
ENCODING 8039
SWIDTH 600 0
DWIDTH 12 0
BBX 11 17 0 0
BITMAP
0400
0E00
1B00
3180
0E00
0C00
0000
7FC0
FFE0
F1E0
F1E0
F1E0
F1E0
F1E0
7BC0
FBE0
FBE0
ENDCHAR
STARTCHAR uni1F68
ENCODING 8040
SWIDTH 600 0
DWIDTH 12 0
BBX 11 14 0 0
BITMAP
0E00
0E00
0600
0000
7FC0
FFE0
F1E0
F1E0
F1E0
F1E0
F1E0
7BC0
FBE0
FBE0
ENDCHAR
STARTCHAR uni1F69
ENCODING 8041
SWIDTH 600 0
DWIDTH 12 0
BBX 11 14 0 0
BITMAP
0E00
0E00
0C00
0000
7FC0
FFE0
F1E0
F1E0
F1E0
F1E0
F1E0
7BC0
FBE0
FBE0
ENDCHAR
STARTCHAR uni1F6A
ENCODING 8042
SWIDTH 600 0
DWIDTH 12 0
BBX 11 15 0 0
BITMAP
0300
3B80
39C0
18C0
0000
7FC0
FFE0
F1E0
F1E0
F1E0
F1E0
F1E0
7BC0
FBE0
FBE0
ENDCHAR
STARTCHAR uni1F6B
ENCODING 8043
SWIDTH 600 0
DWIDTH 12 0
BBX 11 15 0 0
BITMAP
0300
3B80
39C0
30C0
0000
7FC0
FFE0
F1E0
F1E0
F1E0
F1E0
F1E0
7BC0
FBE0
FBE0
ENDCHAR
STARTCHAR uni1F6C
ENCODING 8044
SWIDTH 600 0
DWIDTH 12 0
BBX 11 15 0 0
BITMAP
00C0
39C0
3B80
1B00
0000
7FC0
FFE0
F1E0
F1E0
F1E0
F1E0
F1E0
7BC0
FBE0
FBE0
ENDCHAR
STARTCHAR uni1F6D
ENCODING 8045
SWIDTH 600 0
DWIDTH 12 0
BBX 11 15 0 0
BITMAP
00C0
39C0
3B80
3300
0000
7FC0
FFE0
F1E0
F1E0
F1E0
F1E0
F1E0
7BC0
FBE0
FBE0
ENDCHAR
STARTCHAR uni1F6E
ENCODING 8046
SWIDTH 600 0
DWIDTH 12 0
BBX 11 17 0 0
BITMAP
0400
0E00
1B00
3180
0E00
0600
0000
7FC0
FFE0
F1E0
F1E0
F1E0
F1E0
F1E0
7BC0
FBE0
FBE0
ENDCHAR
STARTCHAR uni1F6F
ENCODING 8047
SWIDTH 600 0
DWIDTH 12 0
BBX 11 17 0 0
BITMAP
0400
0E00
1B00
3180
0E00
0C00
0000
7FC0
FFE0
F1E0
F1E0
F1E0
F1E0
F1E0
7BC0
FBE0
FBE0
ENDCHAR
STARTCHAR uni1F70
ENCODING 8048
SWIDTH 600 0
DWIDTH 12 0
BBX 11 15 0 0
BITMAP
1800
1C00
0E00
0600
0000
7FC0
FFE0
F1E0
F1E0
FFE0
FFE0
F1E0
F1E0
F1E0
F1E0
ENDCHAR
STARTCHAR uni1F71
ENCODING 8049
SWIDTH 600 0
DWIDTH 12 0
BBX 11 15 0 0
BITMAP
0300
0700
0E00
0C00
0000
7FC0
FFE0
F1E0
F1E0
FFE0
FFE0
F1E0
F1E0
F1E0
F1E0
ENDCHAR
STARTCHAR uni1F72
ENCODING 8050
SWIDTH 600 0
DWIDTH 12 0
BBX 11 15 0 0
BITMAP
1800
1C00
0E00
0600
0000
7FE0
FFE0
F000
F000
FE00
FE00
F000
F000
FFE0
7FE0
ENDCHAR
STARTCHAR uni1F73
ENCODING 8051
SWIDTH 600 0
DWIDTH 12 0
BBX 11 15 0 0
BITMAP
0300
0700
0E00
0C00
0000
7FE0
FFE0
F000
F000
FE00
FE00
F000
F000
FFE0
7FE0
ENDCHAR
STARTCHAR uni1F74
ENCODING 8052
SWIDTH 600 0
DWIDTH 12 0
BBX 11 15 0 0
BITMAP
1800
1C00
0E00
0600
0000
F1E0
F1E0
F1E0
F1E0
FFE0
FFE0
F1E0
F1E0
F1E0
F1E0
ENDCHAR
STARTCHAR uni1F75
ENCODING 8053
SWIDTH 600 0
DWIDTH 12 0
BBX 11 15 0 0
BITMAP
0300
0700
0E00
0C00
0000
F1E0
F1E0
F1E0
F1E0
FFE0
FFE0
F1E0
F1E0
F1E0
F1E0
ENDCHAR
STARTCHAR uni1F76
ENCODING 8054
SWIDTH 550 0
DWIDTH 11 0
BBX 10 15 0 0
BITMAP
3000
3800
1C00
0C00
0000
FFC0
FFC0
1E00
1E00
1E00
1E00
1E00
1E00
FFC0
FFC0
ENDCHAR
STARTCHAR uni1F77
ENCODING 8055
SWIDTH 550 0
DWIDTH 11 0
BBX 10 15 0 0
BITMAP
0300
0700
0E00
0C00
0000
FFC0
FFC0
1E00
1E00
1E00
1E00
1E00
1E00
FFC0
FFC0
ENDCHAR
STARTCHAR uni1F78
ENCODING 8056
SWIDTH 600 0
DWIDTH 12 0
BBX 11 15 0 0
BITMAP
1800
1C00
0E00
0600
0000
7FC0
FFE0
F1E0
F1E0
F1E0
F1E0
F1E0
F1E0
FFE0
7FC0
ENDCHAR
STARTCHAR uni1F79
ENCODING 8057
SWIDTH 600 0
DWIDTH 12 0
BBX 11 15 0 0
BITMAP
0300
0700
0E00
0C00
0000
7FC0
FFE0
F1E0
F1E0
F1E0
F1E0
F1E0
F1E0
FFE0
7FC0
ENDCHAR
STARTCHAR uni1F7A
ENCODING 8058
SWIDTH 650 0
DWIDTH 13 0
BBX 12 15 0 0
BITMAP
1800
1C00
0E00
0600
0000
E070
F0F0
F9F0
7FE0
3FC0
1F80
0F00
0F00
0F00
0F00
ENDCHAR
STARTCHAR uni1F7B
ENCODING 8059
SWIDTH 650 0
DWIDTH 13 0
BBX 12 15 0 0
BITMAP
0180
0380
0700
0600
0000
E070
F0F0
F9F0
7FE0
3FC0
1F80
0F00
0F00
0F00
0F00
ENDCHAR
STARTCHAR uni1F7C
ENCODING 8060
SWIDTH 600 0
DWIDTH 12 0
BBX 11 15 0 0
BITMAP
1800
1C00
0E00
0600
0000
7FC0
FFE0
F1E0
F1E0
F1E0
F1E0
F1E0
7BC0
FBE0
FBE0
ENDCHAR
STARTCHAR uni1F7D
ENCODING 8061
SWIDTH 600 0
DWIDTH 12 0
BBX 11 15 0 0
BITMAP
0300
0700
0E00
0C00
0000
7FC0
FFE0
F1E0
F1E0
F1E0
F1E0
F1E0
7BC0
FBE0
FBE0
ENDCHAR
STARTCHAR uni1F80
ENCODING 8064
SWIDTH 600 0
DWIDTH 12 0
BBX 11 17 0 -3
BITMAP
0E00
0E00
0600
0000
7FC0
FFE0
F1E0
F1E0
FFE0
FFE0
F1E0
F1E0
F1E0
F1E0
0000
0E00
0700
ENDCHAR
STARTCHAR uni1F81
ENCODING 8065
SWIDTH 600 0
DWIDTH 12 0
BBX 11 17 0 -3
BITMAP
0E00
0E00
0C00
0000
7FC0
FFE0
F1E0
F1E0
FFE0
FFE0
F1E0
F1E0
F1E0
F1E0
0000
0E00
0700
ENDCHAR
STARTCHAR uni1F82
ENCODING 8066
SWIDTH 600 0
DWIDTH 12 0
BBX 11 18 0 -3
BITMAP
0300
3B80
39C0
18C0
0000
7FC0
FFE0
F1E0
F1E0
FFE0
FFE0
F1E0
F1E0
F1E0
F1E0
0000
0E00
0700
ENDCHAR
STARTCHAR uni1F83
ENCODING 8067
SWIDTH 600 0
DWIDTH 12 0
BBX 11 18 0 -3
BITMAP
0300
3B80
39C0
30C0
0000
7FC0
FFE0
F1E0
F1E0
FFE0
FFE0
F1E0
F1E0
F1E0
F1E0
0000
0E00
0700
ENDCHAR
STARTCHAR uni1F84
ENCODING 8068
SWIDTH 600 0
DWIDTH 12 0
BBX 11 18 0 -3
BITMAP
00C0
39C0
3B80
1B00
0000
7FC0
FFE0
F1E0
F1E0
FFE0
FFE0
F1E0
F1E0
F1E0
F1E0
0000
0E00
0700
ENDCHAR
STARTCHAR uni1F85
ENCODING 8069
SWIDTH 600 0
DWIDTH 12 0
BBX 11 18 0 -3
BITMAP
00C0
39C0
3B80
3300
0000
7FC0
FFE0
F1E0
F1E0
FFE0
FFE0
F1E0
F1E0
F1E0
F1E0
0000
0E00
0700
ENDCHAR
STARTCHAR uni1F86
ENCODING 8070
SWIDTH 600 0
DWIDTH 12 0
BBX 11 20 0 -3
BITMAP
0400
0E00
1B00
3180
0E00
0600
0000
7FC0
FFE0
F1E0
F1E0
FFE0
FFE0
F1E0
F1E0
F1E0
F1E0
0000
0E00
0700
ENDCHAR
STARTCHAR uni1F87
ENCODING 8071
SWIDTH 600 0
DWIDTH 12 0
BBX 11 20 0 -3
BITMAP
0400
0E00
1B00
3180
0E00
0C00
0000
7FC0
FFE0
F1E0
F1E0
FFE0
FFE0
F1E0
F1E0
F1E0
F1E0
0000
0E00
0700
ENDCHAR
STARTCHAR uni1F88
ENCODING 8072
SWIDTH 600 0
DWIDTH 12 0
BBX 11 17 0 -3
BITMAP
0E00
0E00
0600
0000
7FC0
FFE0
F1E0
F1E0
FFE0
FFE0
F1E0
F1E0
F1E0
F1E0
0000
0E00
0700
ENDCHAR
STARTCHAR uni1F89
ENCODING 8073
SWIDTH 600 0
DWIDTH 12 0
BBX 11 17 0 -3
BITMAP
0E00
0E00
0C00
0000
7FC0
FFE0
F1E0
F1E0
FFE0
FFE0
F1E0
F1E0
F1E0
F1E0
0000
0E00
0700
ENDCHAR
STARTCHAR uni1F8A
ENCODING 8074
SWIDTH 600 0
DWIDTH 12 0
BBX 11 18 0 -3
BITMAP
0300
3B80
39C0
18C0
0000
7FC0
FFE0
F1E0
F1E0
FFE0
FFE0
F1E0
F1E0
F1E0
F1E0
0000
0E00
0700
ENDCHAR
STARTCHAR uni1F8B
ENCODING 8075
SWIDTH 600 0
DWIDTH 12 0
BBX 11 18 0 -3
BITMAP
0300
3B80
39C0
30C0
0000
7FC0
FFE0
F1E0
F1E0
FFE0
FFE0
F1E0
F1E0
F1E0
F1E0
0000
0E00
0700
ENDCHAR
STARTCHAR uni1F8C
ENCODING 8076
SWIDTH 600 0
DWIDTH 12 0
BBX 11 18 0 -3
BITMAP
00C0
39C0
3B80
1B00
0000
7FC0
FFE0
F1E0
F1E0
FFE0
FFE0
F1E0
F1E0
F1E0
F1E0
0000
0E00
0700
ENDCHAR
STARTCHAR uni1F8D
ENCODING 8077
SWIDTH 600 0
DWIDTH 12 0
BBX 11 18 0 -3
BITMAP
00C0
39C0
3B80
3300
0000
7FC0
FFE0
F1E0
F1E0
FFE0
FFE0
F1E0
F1E0
F1E0
F1E0
0000
0E00
0700
ENDCHAR
STARTCHAR uni1F8E
ENCODING 8078
SWIDTH 600 0
DWIDTH 12 0
BBX 11 20 0 -3
BITMAP
0400
0E00
1B00
3180
0E00
0600
0000
7FC0
FFE0
F1E0
F1E0
FFE0
FFE0
F1E0
F1E0
F1E0
F1E0
0000
0E00
0700
ENDCHAR
STARTCHAR uni1F8F
ENCODING 8079
SWIDTH 600 0
DWIDTH 12 0
BBX 11 20 0 -3
BITMAP
0400
0E00
1B00
3180
0E00
0C00
0000
7FC0
FFE0
F1E0
F1E0
FFE0
FFE0
F1E0
F1E0
F1E0
F1E0
0000
0E00
0700
ENDCHAR
STARTCHAR uni1F90
ENCODING 8080
SWIDTH 600 0
DWIDTH 12 0
BBX 11 17 0 -3
BITMAP
0E00
0E00
0600
0000
F1E0
F1E0
F1E0
F1E0
FFE0
FFE0
F1E0
F1E0
F1E0
F1E0
0000
0E00
0700
ENDCHAR
STARTCHAR uni1F91
ENCODING 8081
SWIDTH 600 0
DWIDTH 12 0
BBX 11 17 0 -3
BITMAP
0E00
0E00
0C00
0000
F1E0
F1E0
F1E0
F1E0
FFE0
FFE0
F1E0
F1E0
F1E0
F1E0
0000
0E00
0700
ENDCHAR
STARTCHAR uni1F92
ENCODING 8082
SWIDTH 600 0
DWIDTH 12 0
BBX 11 18 0 -3
BITMAP
0300
3B80
39C0
18C0
0000
F1E0
F1E0
F1E0
F1E0
FFE0
FFE0
F1E0
F1E0
F1E0
F1E0
0000
0E00
0700
ENDCHAR
STARTCHAR uni1F93
ENCODING 8083
SWIDTH 600 0
DWIDTH 12 0
BBX 11 18 0 -3
BITMAP
0300
3B80
39C0
30C0
0000
F1E0
F1E0
F1E0
F1E0
FFE0
FFE0
F1E0
F1E0
F1E0
F1E0
0000
0E00
0700
ENDCHAR
STARTCHAR uni1F94
ENCODING 8084
SWIDTH 600 0
DWIDTH 12 0
BBX 11 18 0 -3
BITMAP
00C0
39C0
3B80
1B00
0000
F1E0
F1E0
F1E0
F1E0
FFE0
FFE0
F1E0
F1E0
F1E0
F1E0
0000
0E00
0700
ENDCHAR
STARTCHAR uni1F95
ENCODING 8085
SWIDTH 600 0
DWIDTH 12 0
BBX 11 18 0 -3
BITMAP
00C0
39C0
3B80
3300
0000
F1E0
F1E0
F1E0
F1E0
FFE0
FFE0
F1E0
F1E0
F1E0
F1E0
0000
0E00
0700
ENDCHAR
STARTCHAR uni1F96
ENCODING 8086
SWIDTH 600 0
DWIDTH 12 0
BBX 11 20 0 -3
BITMAP
0400
0E00
1B00
3180
0E00
0600
0000
F1E0
F1E0
F1E0
F1E0
FFE0
FFE0
F1E0
F1E0
F1E0
F1E0
0000
0E00
0700
ENDCHAR
STARTCHAR uni1F97
ENCODING 8087
SWIDTH 600 0
DWIDTH 12 0
BBX 11 20 0 -3
BITMAP
0400
0E00
1B00
3180
0E00
0C00
0000
F1E0
F1E0
F1E0
F1E0
FFE0
FFE0
F1E0
F1E0
F1E0
F1E0
0000
0E00
0700
ENDCHAR
STARTCHAR uni1F98
ENCODING 8088
SWIDTH 600 0
DWIDTH 12 0
BBX 11 17 0 -3
BITMAP
0E00
0E00
0600
0000
F1E0
F1E0
F1E0
F1E0
FFE0
FFE0
F1E0
F1E0
F1E0
F1E0
0000
0E00
0700
ENDCHAR
STARTCHAR uni1F99
ENCODING 8089
SWIDTH 600 0
DWIDTH 12 0
BBX 11 17 0 -3
BITMAP
0E00
0E00
0C00
0000
F1E0
F1E0
F1E0
F1E0
FFE0
FFE0
F1E0
F1E0
F1E0
F1E0
0000
0E00
0700
ENDCHAR
STARTCHAR uni1F9A
ENCODING 8090
SWIDTH 600 0
DWIDTH 12 0
BBX 11 18 0 -3
BITMAP
0300
3B80
39C0
18C0
0000
F1E0
F1E0
F1E0
F1E0
FFE0
FFE0
F1E0
F1E0
F1E0
F1E0
0000
0E00
0700
ENDCHAR
STARTCHAR uni1F9B
ENCODING 8091
SWIDTH 600 0
DWIDTH 12 0
BBX 11 18 0 -3
BITMAP
0300
3B80
39C0
30C0
0000
F1E0
F1E0
F1E0
F1E0
FFE0
FFE0
F1E0
F1E0
F1E0
F1E0
0000
0E00
0700
ENDCHAR
STARTCHAR uni1F9C
ENCODING 8092
SWIDTH 600 0
DWIDTH 12 0
BBX 11 18 0 -3
BITMAP
00C0
39C0
3B80
1B00
0000
F1E0
F1E0
F1E0
F1E0
FFE0
FFE0
F1E0
F1E0
F1E0
F1E0
0000
0E00
0700
ENDCHAR
STARTCHAR uni1F9D
ENCODING 8093
SWIDTH 600 0
DWIDTH 12 0
BBX 11 18 0 -3
BITMAP
00C0
39C0
3B80
3300
0000
F1E0
F1E0
F1E0
F1E0
FFE0
FFE0
F1E0
F1E0
F1E0
F1E0
0000
0E00
0700
ENDCHAR
STARTCHAR uni1F9E
ENCODING 8094
SWIDTH 600 0
DWIDTH 12 0
BBX 11 20 0 -3
BITMAP
0400
0E00
1B00
3180
0E00
0600
0000
F1E0
F1E0
F1E0
F1E0
FFE0
FFE0
F1E0
F1E0
F1E0
F1E0
0000
0E00
0700
ENDCHAR
STARTCHAR uni1F9F
ENCODING 8095
SWIDTH 600 0
DWIDTH 12 0
BBX 11 20 0 -3
BITMAP
0400
0E00
1B00
3180
0E00
0C00
0000
F1E0
F1E0
F1E0
F1E0
FFE0
FFE0
F1E0
F1E0
F1E0
F1E0
0000
0E00
0700
ENDCHAR
STARTCHAR uni1FA0
ENCODING 8096
SWIDTH 600 0
DWIDTH 12 0
BBX 11 17 0 -3
BITMAP
0E00
0E00
0600
0000
7FC0
FFE0
F1E0
F1E0
F1E0
F1E0
F1E0
7BC0
FBE0
FBE0
0000
0E00
0700
ENDCHAR
STARTCHAR uni1FA1
ENCODING 8097
SWIDTH 600 0
DWIDTH 12 0
BBX 11 17 0 -3
BITMAP
0E00
0E00
0C00
0000
7FC0
FFE0
F1E0
F1E0
F1E0
F1E0
F1E0
7BC0
FBE0
FBE0
0000
0E00
0700
ENDCHAR
STARTCHAR uni1FA2
ENCODING 8098
SWIDTH 600 0
DWIDTH 12 0
BBX 11 18 0 -3
BITMAP
0300
3B80
39C0
18C0
0000
7FC0
FFE0
F1E0
F1E0
F1E0
F1E0
F1E0
7BC0
FBE0
FBE0
0000
0E00
0700
ENDCHAR
STARTCHAR uni1FA3
ENCODING 8099
SWIDTH 600 0
DWIDTH 12 0
BBX 11 18 0 -3
BITMAP
0300
3B80
39C0
30C0
0000
7FC0
FFE0
F1E0
F1E0
F1E0
F1E0
F1E0
7BC0
FBE0
FBE0
0000
0E00
0700
ENDCHAR
STARTCHAR uni1FA4
ENCODING 8100
SWIDTH 600 0
DWIDTH 12 0
BBX 11 18 0 -3
BITMAP
00C0
39C0
3B80
1B00
0000
7FC0
FFE0
F1E0
F1E0
F1E0
F1E0
F1E0
7BC0
FBE0
FBE0
0000
0E00
0700
ENDCHAR
STARTCHAR uni1FA5
ENCODING 8101
SWIDTH 600 0
DWIDTH 12 0
BBX 11 18 0 -3
BITMAP
00C0
39C0
3B80
3300
0000
7FC0
FFE0
F1E0
F1E0
F1E0
F1E0
F1E0
7BC0
FBE0
FBE0
0000
0E00
0700
ENDCHAR
STARTCHAR uni1FA6
ENCODING 8102
SWIDTH 600 0
DWIDTH 12 0
BBX 11 20 0 -3
BITMAP
0400
0E00
1B00
3180
0E00
0600
0000
7FC0
FFE0
F1E0
F1E0
F1E0
F1E0
F1E0
7BC0
FBE0
FBE0
0000
0E00
0700
ENDCHAR
STARTCHAR uni1FA7
ENCODING 8103
SWIDTH 600 0
DWIDTH 12 0
BBX 11 20 0 -3
BITMAP
0400
0E00
1B00
3180
0E00
0C00
0000
7FC0
FFE0
F1E0
F1E0
F1E0
F1E0
F1E0
7BC0
FBE0
FBE0
0000
0E00
0700
ENDCHAR
STARTCHAR uni1FA8
ENCODING 8104
SWIDTH 600 0
DWIDTH 12 0
BBX 11 17 0 -3
BITMAP
0E00
0E00
0600
0000
7FC0
FFE0
F1E0
F1E0
F1E0
F1E0
F1E0
7BC0
FBE0
FBE0
0000
0E00
0700
ENDCHAR
STARTCHAR uni1FA9
ENCODING 8105
SWIDTH 600 0
DWIDTH 12 0
BBX 11 17 0 -3
BITMAP
0E00
0E00
0C00
0000
7FC0
FFE0
F1E0
F1E0
F1E0
F1E0
F1E0
7BC0
FBE0
FBE0
0000
0E00
0700
ENDCHAR
STARTCHAR uni1FAA
ENCODING 8106
SWIDTH 600 0
DWIDTH 12 0
BBX 11 18 0 -3
BITMAP
0300
3B80
39C0
18C0
0000
7FC0
FFE0
F1E0
F1E0
F1E0
F1E0
F1E0
7BC0
FBE0
FBE0
0000
0E00
0700
ENDCHAR
STARTCHAR uni1FAB
ENCODING 8107
SWIDTH 600 0
DWIDTH 12 0
BBX 11 18 0 -3
BITMAP
0300
3B80
39C0
30C0
0000
7FC0
FFE0
F1E0
F1E0
F1E0
F1E0
F1E0
7BC0
FBE0
FBE0
0000
0E00
0700
ENDCHAR
STARTCHAR uni1FAC
ENCODING 8108
SWIDTH 600 0
DWIDTH 12 0
BBX 11 18 0 -3
BITMAP
00C0
39C0
3B80
1B00
0000
7FC0
FFE0
F1E0
F1E0
F1E0
F1E0
F1E0
7BC0
FBE0
FBE0
0000
0E00
0700
ENDCHAR
STARTCHAR uni1FAD
ENCODING 8109
SWIDTH 600 0
DWIDTH 12 0
BBX 11 18 0 -3
BITMAP
00C0
39C0
3B80
3300
0000
7FC0
FFE0
F1E0
F1E0
F1E0
F1E0
F1E0
7BC0
FBE0
FBE0
0000
0E00
0700
ENDCHAR
STARTCHAR uni1FAE
ENCODING 8110
SWIDTH 600 0
DWIDTH 12 0
BBX 11 20 0 -3
BITMAP
0400
0E00
1B00
3180
0E00
0600
0000
7FC0
FFE0
F1E0
F1E0
F1E0
F1E0
F1E0
7BC0
FBE0
FBE0
0000
0E00
0700
ENDCHAR
STARTCHAR uni1FAF
ENCODING 8111
SWIDTH 600 0
DWIDTH 12 0
BBX 11 20 0 -3
BITMAP
0400
0E00
1B00
3180
0E00
0C00
0000
7FC0
FFE0
F1E0
F1E0
F1E0
F1E0
F1E0
7BC0
FBE0
FBE0
0000
0E00
0700
ENDCHAR
STARTCHAR uni1FB0
ENCODING 8112
SWIDTH 600 0
DWIDTH 12 0
BBX 11 14 0 0
BITMAP
3180
3F80
1F00
0000
7FC0
FFE0
F1E0
F1E0
FFE0
FFE0
F1E0
F1E0
F1E0
F1E0
ENDCHAR
STARTCHAR uni1FB1
ENCODING 8113
SWIDTH 600 0
DWIDTH 12 0
BBX 11 14 0 0
BITMAP
FFE0
FFE0
0000
0000
7FC0
FFE0
F1E0
F1E0
FFE0
FFE0
F1E0
F1E0
F1E0
F1E0
ENDCHAR
STARTCHAR uni1FB2
ENCODING 8114
SWIDTH 600 0
DWIDTH 12 0
BBX 11 18 0 -3
BITMAP
1800
1C00
0E00
0600
0000
7FC0
FFE0
F1E0
F1E0
FFE0
FFE0
F1E0
F1E0
F1E0
F1E0
0000
0E00
0700
ENDCHAR
STARTCHAR uni1FB3
ENCODING 8115
SWIDTH 600 0
DWIDTH 12 0
BBX 11 13 0 -3
BITMAP
7FC0
FFE0
F1E0
F1E0
FFE0
FFE0
F1E0
F1E0
F1E0
F1E0
0000
0E00
0700
ENDCHAR
STARTCHAR uni1FB4
ENCODING 8116
SWIDTH 600 0
DWIDTH 12 0
BBX 11 18 0 -3
BITMAP
0300
0700
0E00
0C00
0000
7FC0
FFE0
F1E0
F1E0
FFE0
FFE0
F1E0
F1E0
F1E0
F1E0
0000
0E00
0700
ENDCHAR
STARTCHAR uni1FB6
ENCODING 8118
SWIDTH 600 0
DWIDTH 12 0
BBX 11 15 0 0
BITMAP
0400
0E00
1B00
3180
0000
7FC0
FFE0
F1E0
F1E0
FFE0
FFE0
F1E0
F1E0
F1E0
F1E0
ENDCHAR
STARTCHAR uni1FB7
ENCODING 8119
SWIDTH 600 0
DWIDTH 12 0
BBX 11 18 0 -3
BITMAP
0400
0E00
1B00
3180
0000
7FC0
FFE0
F1E0
F1E0
FFE0
FFE0
F1E0
F1E0
F1E0
F1E0
0000
0E00
0700
ENDCHAR
STARTCHAR uni1FB8
ENCODING 8120
SWIDTH 600 0
DWIDTH 12 0
BBX 11 14 0 0
BITMAP
3180
3F80
1F00
0000
7FC0
FFE0
F1E0
F1E0
FFE0
FFE0
F1E0
F1E0
F1E0
F1E0
ENDCHAR
STARTCHAR uni1FB9
ENCODING 8121
SWIDTH 600 0
DWIDTH 12 0
BBX 11 14 0 0
BITMAP
FFE0
FFE0
0000
0000
7FC0
FFE0
F1E0
F1E0
FFE0
FFE0
F1E0
F1E0
F1E0
F1E0
ENDCHAR
STARTCHAR uni1FBA
ENCODING 8122
SWIDTH 600 0
DWIDTH 12 0
BBX 11 15 0 0
BITMAP
1800
1C00
0E00
0600
0000
7FC0
FFE0
F1E0
F1E0
FFE0
FFE0
F1E0
F1E0
F1E0
F1E0
ENDCHAR
STARTCHAR uni1FBB
ENCODING 8123
SWIDTH 600 0
DWIDTH 12 0
BBX 11 15 0 0
BITMAP
0300
0700
0E00
0C00
0000
7FC0
FFE0
F1E0
F1E0
FFE0
FFE0
F1E0
F1E0
F1E0
F1E0
ENDCHAR
STARTCHAR uni1FBC
ENCODING 8124
SWIDTH 600 0
DWIDTH 12 0
BBX 11 13 0 -3
BITMAP
7FC0
FFE0
F1E0
F1E0
FFE0
FFE0
F1E0
F1E0
F1E0
F1E0
0000
0E00
0700
ENDCHAR
STARTCHAR uni1FBD
ENCODING 8125
SWIDTH 600 0
DWIDTH 12 0
BBX 3 3 4 11
BITMAP
E0
E0
60
ENDCHAR
STARTCHAR uni1FBE
ENCODING 8126
SWIDTH 600 0
DWIDTH 12 0
BBX 4 2 4 -3
BITMAP
E0
70
ENDCHAR
STARTCHAR uni1FBF
ENCODING 8127
SWIDTH 600 0
DWIDTH 12 0
BBX 3 3 4 11
BITMAP
E0
E0
60
ENDCHAR
STARTCHAR uni1FC0
ENCODING 8128
SWIDTH 600 0
DWIDTH 12 0
BBX 7 4 2 11
BITMAP
10
38
6C
C6
ENDCHAR
STARTCHAR uni1FC1
ENCODING 8129
SWIDTH 600 0
DWIDTH 12 0
BBX 7 6 2 11
BITMAP
10
38
6C
C6
00
C6
ENDCHAR
STARTCHAR uni1FC2
ENCODING 8130
SWIDTH 600 0
DWIDTH 12 0
BBX 11 18 0 -3
BITMAP
1800
1C00
0E00
0600
0000
F1E0
F1E0
F1E0
F1E0
FFE0
FFE0
F1E0
F1E0
F1E0
F1E0
0000
0E00
0700
ENDCHAR
STARTCHAR uni1FC3
ENCODING 8131
SWIDTH 600 0
DWIDTH 12 0
BBX 11 13 0 -3
BITMAP
F1E0
F1E0
F1E0
F1E0
FFE0
FFE0
F1E0
F1E0
F1E0
F1E0
0000
0E00
0700
ENDCHAR
STARTCHAR uni1FC4
ENCODING 8132
SWIDTH 600 0
DWIDTH 12 0
BBX 11 18 0 -3
BITMAP
0300
0700
0E00
0C00
0000
F1E0
F1E0
F1E0
F1E0
FFE0
FFE0
F1E0
F1E0
F1E0
F1E0
0000
0E00
0700
ENDCHAR
STARTCHAR uni1FC6
ENCODING 8134
SWIDTH 600 0
DWIDTH 12 0
BBX 11 15 0 0
BITMAP
0400
0E00
1B00
3180
0000
F1E0
F1E0
F1E0
F1E0
FFE0
FFE0
F1E0
F1E0
F1E0
F1E0
ENDCHAR
STARTCHAR uni1FC7
ENCODING 8135
SWIDTH 600 0
DWIDTH 12 0
BBX 11 18 0 -3
BITMAP
0400
0E00
1B00
3180
0000
F1E0
F1E0
F1E0
F1E0
FFE0
FFE0
F1E0
F1E0
F1E0
F1E0
0000
0E00
0700
ENDCHAR
STARTCHAR uni1FC8
ENCODING 8136
SWIDTH 600 0
DWIDTH 12 0
BBX 11 15 0 0
BITMAP
1800
1C00
0E00
0600
0000
7FE0
FFE0
F000
F000
FE00
FE00
F000
F000
FFE0
7FE0
ENDCHAR
STARTCHAR uni1FC9
ENCODING 8137
SWIDTH 600 0
DWIDTH 12 0
BBX 11 15 0 0
BITMAP
0300
0700
0E00
0C00
0000
7FE0
FFE0
F000
F000
FE00
FE00
F000
F000
FFE0
7FE0
ENDCHAR
STARTCHAR uni1FCA
ENCODING 8138
SWIDTH 600 0
DWIDTH 12 0
BBX 11 15 0 0
BITMAP
1800
1C00
0E00
0600
0000
F1E0
F1E0
F1E0
F1E0
FFE0
FFE0
F1E0
F1E0
F1E0
F1E0
ENDCHAR
STARTCHAR uni1FCB
ENCODING 8139
SWIDTH 600 0
DWIDTH 12 0
BBX 11 15 0 0
BITMAP
0300
0700
0E00
0C00
0000
F1E0
F1E0
F1E0
F1E0
FFE0
FFE0
F1E0
F1E0
F1E0
F1E0
ENDCHAR
STARTCHAR uni1FCC
ENCODING 8140
SWIDTH 600 0
DWIDTH 12 0
BBX 11 13 0 -3
BITMAP
F1E0
F1E0
F1E0
F1E0
FFE0
FFE0
F1E0
F1E0
F1E0
F1E0
0000
0E00
0700
ENDCHAR
STARTCHAR uni1FCD
ENCODING 8141
SWIDTH 600 0
DWIDTH 12 0
BBX 8 4 2 11
BITMAP
0C
EE
E7
63
ENDCHAR
STARTCHAR uni1FCE
ENCODING 8142
SWIDTH 600 0
DWIDTH 12 0
BBX 8 4 2 11
BITMAP
03
E7
EE
6C
ENDCHAR
STARTCHAR uni1FCF
ENCODING 8143
SWIDTH 600 0
DWIDTH 12 0
BBX 7 6 2 11
BITMAP
10
38
6C
C6
38
18
ENDCHAR
STARTCHAR uni1FD0
ENCODING 8144
SWIDTH 550 0
DWIDTH 11 0
BBX 10 14 0 0
BITMAP
6180
7F80
3F00
0000
FFC0
FFC0
1E00
1E00
1E00
1E00
1E00
1E00
FFC0
FFC0
ENDCHAR
STARTCHAR uni1FD1
ENCODING 8145
SWIDTH 550 0
DWIDTH 11 0
BBX 10 14 0 0
BITMAP
FFC0
FFC0
0000
0000
FFC0
FFC0
1E00
1E00
1E00
1E00
1E00
1E00
FFC0
FFC0
ENDCHAR
STARTCHAR uni1FD2
ENCODING 8146
SWIDTH 550 0
DWIDTH 11 0
BBX 10 15 0 0
BITMAP
1800
1C00
CEC0
C6C0
0000
FFC0
FFC0
1E00
1E00
1E00
1E00
1E00
1E00
FFC0
FFC0
ENDCHAR
STARTCHAR uni1FD3
ENCODING 8147
SWIDTH 550 0
DWIDTH 11 0
BBX 10 15 0 0
BITMAP
0600
0E00
DCC0
D8C0
0000
FFC0
FFC0
1E00
1E00
1E00
1E00
1E00
1E00
FFC0
FFC0
ENDCHAR
STARTCHAR uni1FD6
ENCODING 8150
SWIDTH 550 0
DWIDTH 11 0
BBX 10 15 0 0
BITMAP
0C00
1E00
3300
6180
0000
FFC0
FFC0
1E00
1E00
1E00
1E00
1E00
1E00
FFC0
FFC0
ENDCHAR
STARTCHAR uni1FD7
ENCODING 8151
SWIDTH 550 0
DWIDTH 11 0
BBX 10 17 0 0
BITMAP
0C00
1E00
3300
6180
0000
6180
0000
FFC0
FFC0
1E00
1E00
1E00
1E00
1E00
1E00
FFC0
FFC0
ENDCHAR
STARTCHAR uni1FD8
ENCODING 8152
SWIDTH 550 0
DWIDTH 11 0
BBX 10 14 0 0
BITMAP
6180
7F80
3F00
0000
FFC0
FFC0
1E00
1E00
1E00
1E00
1E00
1E00
FFC0
FFC0
ENDCHAR
STARTCHAR uni1FD9
ENCODING 8153
SWIDTH 550 0
DWIDTH 11 0
BBX 10 14 0 0
BITMAP
FFC0
FFC0
0000
0000
FFC0
FFC0
1E00
1E00
1E00
1E00
1E00
1E00
FFC0
FFC0
ENDCHAR
STARTCHAR uni1FDA
ENCODING 8154
SWIDTH 550 0
DWIDTH 11 0
BBX 10 15 0 0
BITMAP
1800
1C00
0E00
0600
0000
FFC0
FFC0
1E00
1E00
1E00
1E00
1E00
1E00
FFC0
FFC0
ENDCHAR
STARTCHAR uni1FDB
ENCODING 8155
SWIDTH 500 0
DWIDTH 10 0
BBX 10 15 0 0
BITMAP
0600
0E00
1C00
1800
0000
FFC0
FFC0
1E00
1E00
1E00
1E00
1E00
1E00
FFC0
FFC0
ENDCHAR
STARTCHAR uni1FDD
ENCODING 8157
SWIDTH 600 0
DWIDTH 12 0
BBX 8 4 2 11
BITMAP
0C
EE
E7
C3
ENDCHAR
STARTCHAR uni1FDE
ENCODING 8158
SWIDTH 600 0
DWIDTH 12 0
BBX 8 4 2 11
BITMAP
03
E7
EE
CC
ENDCHAR
STARTCHAR uni1FDF
ENCODING 8159
SWIDTH 600 0
DWIDTH 12 0
BBX 7 6 2 11
BITMAP
10
38
6C
C6
38
30
ENDCHAR
STARTCHAR uni1FE0
ENCODING 8160
SWIDTH 650 0
DWIDTH 13 0
BBX 12 14 0 0
BITMAP
30C0
3FC0
1F80
0000
E070
F0F0
F9F0
7FE0
3FC0
1F80
0F00
0F00
0F00
0F00
ENDCHAR
STARTCHAR uni1FE1
ENCODING 8161
SWIDTH 650 0
DWIDTH 13 0
BBX 12 14 0 0
BITMAP
FFF0
FFF0
0000
0000
E070
F0F0
F9F0
7FE0
3FC0
1F80
0F00
0F00
0F00
0F00
ENDCHAR
STARTCHAR uni1FE2
ENCODING 8162
SWIDTH 650 0
DWIDTH 13 0
BBX 12 15 0 0
BITMAP
0C00
0E00
6760
6360
0000
E070
F0F0
F9F0
7FE0
3FC0
1F80
0F00
0F00
0F00
0F00
ENDCHAR
STARTCHAR uni1FE3
ENCODING 8163
SWIDTH 650 0
DWIDTH 13 0
BBX 12 15 0 0
BITMAP
0300
0700
6E60
6C60
0000
E070
F0F0
F9F0
7FE0
3FC0
1F80
0F00
0F00
0F00
0F00
ENDCHAR
STARTCHAR uni1FE4
ENCODING 8164
SWIDTH 600 0
DWIDTH 12 0
BBX 11 14 0 0
BITMAP
0E00
0E00
0600
0000
FFC0
FFE0
F1E0
F1E0
FFE0
FFC0
F000
F000
F000
F000
ENDCHAR
STARTCHAR uni1FE5
ENCODING 8165
SWIDTH 600 0
DWIDTH 12 0
BBX 11 14 0 0
BITMAP
0E00
0E00
0C00
0000
FFC0
FFE0
F1E0
F1E0
FFE0
FFC0
F000
F000
F000
F000
ENDCHAR
STARTCHAR uni1FE6
ENCODING 8166
SWIDTH 650 0
DWIDTH 13 0
BBX 12 15 0 0
BITMAP
0600
0F00
1980
30C0
0000
E070
F0F0
F9F0
7FE0
3FC0
1F80
0F00
0F00
0F00
0F00
ENDCHAR
STARTCHAR uni1FE7
ENCODING 8167
SWIDTH 650 0
DWIDTH 13 0
BBX 12 17 0 0
BITMAP
0600
0F00
1980
30C0
0000
30C0
0000
E070
F0F0
F9F0
7FE0
3FC0
1F80
0F00
0F00
0F00
0F00
ENDCHAR
STARTCHAR uni1FE8
ENCODING 8168
SWIDTH 650 0
DWIDTH 13 0
BBX 12 14 0 0
BITMAP
30C0
3FC0
1F80
0000
E070
F0F0
F9F0
7FE0
3FC0
1F80
0F00
0F00
0F00
0F00
ENDCHAR
STARTCHAR uni1FE9
ENCODING 8169
SWIDTH 650 0
DWIDTH 13 0
BBX 12 14 0 0
BITMAP
FFF0
FFF0
0000
0000
E070
F0F0
F9F0
7FE0
3FC0
1F80
0F00
0F00
0F00
0F00
ENDCHAR
STARTCHAR uni1FEA
ENCODING 8170
SWIDTH 650 0
DWIDTH 13 0
BBX 12 15 0 0
BITMAP
0C00
0E00
0700
0300
0000
E070
F0F0
F9F0
7FE0
3FC0
1F80
0F00
0F00
0F00
0F00
ENDCHAR
STARTCHAR uni1FEB
ENCODING 8171
SWIDTH 650 0
DWIDTH 13 0
BBX 12 15 0 0
BITMAP
0180
0380
0700
0600
0000
E070
F0F0
F9F0
7FE0
3FC0
1F80
0F00
0F00
0F00
0F00
ENDCHAR
STARTCHAR uni1FEC
ENCODING 8172
SWIDTH 600 0
DWIDTH 12 0
BBX 11 14 0 0
BITMAP
0E00
0E00
0C00
0000
FFC0
FFE0
F1E0
F1E0
FFE0
FFC0
F000
F000
F000
F000
ENDCHAR
STARTCHAR uni1FED
ENCODING 8173
SWIDTH 600 0
DWIDTH 12 0
BBX 9 4 1 11
BITMAP
3000
3800
DD80
CD80
ENDCHAR
STARTCHAR uni1FEE
ENCODING 8174
SWIDTH 600 0
DWIDTH 12 0
BBX 9 4 1 11
BITMAP
0600
0E00
DD80
D980
ENDCHAR
STARTCHAR uni1FEF
ENCODING 8175
SWIDTH 600 0
DWIDTH 12 0
BBX 4 4 3 11
BITMAP
C0
E0
70
30
ENDCHAR
STARTCHAR uni1FF2
ENCODING 8178
SWIDTH 600 0
DWIDTH 12 0
BBX 11 18 0 -3
BITMAP
1800
1C00
0E00
0600
0000
7FC0
FFE0
F1E0
F1E0
F1E0
F1E0
F1E0
7BC0
FBE0
FBE0
0000
0E00
0700
ENDCHAR
STARTCHAR uni1FF3
ENCODING 8179
SWIDTH 600 0
DWIDTH 12 0
BBX 11 13 0 -3
BITMAP
7FC0
FFE0
F1E0
F1E0
F1E0
F1E0
F1E0
7BC0
FBE0
FBE0
0000
0E00
0700
ENDCHAR
STARTCHAR uni1FF4
ENCODING 8180
SWIDTH 600 0
DWIDTH 12 0
BBX 11 18 0 -3
BITMAP
0300
0700
0E00
0C00
0000
7FC0
FFE0
F1E0
F1E0
F1E0
F1E0
F1E0
7BC0
FBE0
FBE0
0000
0E00
0700
ENDCHAR
STARTCHAR uni1FF6
ENCODING 8182
SWIDTH 600 0
DWIDTH 12 0
BBX 11 15 0 0
BITMAP
0400
0E00
1B00
3180
0000
7FC0
FFE0
F1E0
F1E0
F1E0
F1E0
F1E0
7BC0
FBE0
FBE0
ENDCHAR
STARTCHAR uni1FF7
ENCODING 8183
SWIDTH 600 0
DWIDTH 12 0
BBX 11 18 0 -3
BITMAP
0400
0E00
1B00
3180
0000
7FC0
FFE0
F1E0
F1E0
F1E0
F1E0
F1E0
7BC0
FBE0
FBE0
0000
0E00
0700
ENDCHAR
STARTCHAR uni1FF8
ENCODING 8184
SWIDTH 600 0
DWIDTH 12 0
BBX 11 15 0 0
BITMAP
1800
1C00
0E00
0600
0000
7FC0
FFE0
F1E0
F1E0
F1E0
F1E0
F1E0
F1E0
FFE0
7FC0
ENDCHAR
STARTCHAR uni1FF9
ENCODING 8185
SWIDTH 600 0
DWIDTH 12 0
BBX 11 15 0 0
BITMAP
0300
0700
0E00
0C00
0000
7FC0
FFE0
F1E0
F1E0
F1E0
F1E0
F1E0
F1E0
FFE0
7FC0
ENDCHAR
STARTCHAR uni1FFA
ENCODING 8186
SWIDTH 600 0
DWIDTH 12 0
BBX 11 15 0 0
BITMAP
1800
1C00
0E00
0600
0000
7FC0
FFE0
F1E0
F1E0
F1E0
F1E0
F1E0
7BC0
FBE0
FBE0
ENDCHAR
STARTCHAR uni1FFB
ENCODING 8187
SWIDTH 600 0
DWIDTH 12 0
BBX 11 15 0 0
BITMAP
0300
0700
0E00
0C00
0000
7FC0
FFE0
F1E0
F1E0
F1E0
F1E0
F1E0
7BC0
FBE0
FBE0
ENDCHAR
STARTCHAR uni1FFC
ENCODING 8188
SWIDTH 600 0
DWIDTH 12 0
BBX 11 13 0 -3
BITMAP
7FC0
FFE0
F1E0
F1E0
F1E0
F1E0
F1E0
7BC0
FBE0
FBE0
0000
0E00
0700
ENDCHAR
STARTCHAR uni1FFD
ENCODING 8189
SWIDTH 600 0
DWIDTH 12 0
BBX 4 4 4 11
BITMAP
30
70
E0
C0
ENDCHAR
STARTCHAR uni1FFE
ENCODING 8190
SWIDTH 600 0
DWIDTH 12 0
BBX 3 3 4 11
BITMAP
E0
E0
C0
ENDCHAR
STARTCHAR endash
ENCODING 8211
SWIDTH 300 0
DWIDTH 6 0
BBX 4 2 0 4
BITMAP
F0
F0
ENDCHAR
STARTCHAR emdash
ENCODING 8212
SWIDTH 600 0
DWIDTH 12 0
BBX 11 2 0 4
BITMAP
FFE0
FFE0
ENDCHAR
STARTCHAR quoteleft
ENCODING 8216
SWIDTH 250 0
DWIDTH 5 0
BBX 4 4 0 6
BITMAP
C0
C0
F0
F0
ENDCHAR
STARTCHAR quoteright.dup1
ENCODING 8217
SWIDTH 250 0
DWIDTH 5 0
BBX 4 4 0 6
BITMAP
F0
F0
30
30
ENDCHAR
STARTCHAR quotesinglbase
ENCODING 8218
SWIDTH 200 0
DWIDTH 4 0
BBX 3 4 0 -2
BITMAP
E0
E0
E0
E0
ENDCHAR
STARTCHAR quotedblleft
ENCODING 8220
SWIDTH 500 0
DWIDTH 10 0
BBX 9 4 0 6
BITMAP
C600
C600
F780
F780
ENDCHAR
STARTCHAR quotedblright
ENCODING 8221
SWIDTH 500 0
DWIDTH 10 0
BBX 9 4 0 6
BITMAP
F780
F780
3180
3180
ENDCHAR
STARTCHAR quotedblbase
ENCODING 8222
SWIDTH 400 0
DWIDTH 8 0
BBX 7 4 0 -2
BITMAP
EE
EE
EE
EE
ENDCHAR
STARTCHAR dagger
ENCODING 8224
SWIDTH 600 0
DWIDTH 12 0
BBX 11 10 0 0
BITMAP
0E00
0E00
FFE0
FFE0
0E00
0E00
0E00
0E00
0E00
0E00
ENDCHAR
STARTCHAR daggerdbl
ENCODING 8225
SWIDTH 600 0
DWIDTH 12 0
BBX 11 10 0 0
BITMAP
0E00
0E00
FFE0
FFE0
0E00
0E00
FFE0
FFE0
0E00
0E00
ENDCHAR
STARTCHAR bullet
ENCODING 8226
SWIDTH 400 0
DWIDTH 8 0
BBX 7 8 0 1
BITMAP
10
38
7C
FE
FE
7C
38
10
ENDCHAR
STARTCHAR ellipsis
ENCODING 8230
SWIDTH 450 0
DWIDTH 9 0
BBX 8 2 0 0
BITMAP
DB
DB
ENDCHAR
STARTCHAR perthousand
ENCODING 8240
SWIDTH 950 0
DWIDTH 19 0
BBX 18 10 0 0
BITMAP
F8F000
D9F000
FBE000
07C000
0F8000
1F0000
3E0000
7DF7C0
F9B6C0
F1F7C0
ENDCHAR
STARTCHAR guilsinglleft
ENCODING 8249
SWIDTH 300 0
DWIDTH 6 0
BBX 5 8 0 1
BITMAP
18
38
70
E0
E0
70
38
18
ENDCHAR
STARTCHAR guilsinglright
ENCODING 8250
SWIDTH 300 0
DWIDTH 6 0
BBX 5 8 0 1
BITMAP
C0
E0
70
38
38
70
E0
C0
ENDCHAR
STARTCHAR fraction
ENCODING 8260
SWIDTH 650 0
DWIDTH 13 0
BBX 12 10 0 0
BITMAP
00F0
01F0
03E0
07C0
0F80
1F00
3E00
7C00
F800
F000
ENDCHAR
STARTCHAR zerosuperior
ENCODING 8304
SWIDTH 350 0
DWIDTH 7 0
BBX 6 5 0 5
BITMAP
FC
CC
CC
CC
FC
ENDCHAR
STARTCHAR foursuperior
ENCODING 8308
SWIDTH 350 0
DWIDTH 7 0
BBX 6 5 0 5
BITMAP
CC
CC
FC
0C
0C
ENDCHAR
STARTCHAR fivesuperior
ENCODING 8309
SWIDTH 350 0
DWIDTH 7 0
BBX 6 5 0 5
BITMAP
FC
C0
FC
0C
FC
ENDCHAR
STARTCHAR sixsuperior
ENCODING 8310
SWIDTH 350 0
DWIDTH 7 0
BBX 6 5 0 5
BITMAP
FC
C0
FC
CC
FC
ENDCHAR
STARTCHAR sevensuperior
ENCODING 8311
SWIDTH 350 0
DWIDTH 7 0
BBX 6 5 0 5
BITMAP
FC
0C
0C
0C
0C
ENDCHAR
STARTCHAR eightsuperior
ENCODING 8312
SWIDTH 350 0
DWIDTH 7 0
BBX 6 5 0 5
BITMAP
FC
CC
FC
CC
FC
ENDCHAR
STARTCHAR ninesuperior
ENCODING 8313
SWIDTH 350 0
DWIDTH 7 0
BBX 6 5 0 5
BITMAP
FC
CC
FC
0C
FC
ENDCHAR
STARTCHAR plussuperior
ENCODING 8314
SWIDTH 350 0
DWIDTH 7 0
BBX 6 3 0 6
BITMAP
30
FC
30
ENDCHAR
STARTCHAR uni207B
ENCODING 8315
SWIDTH 350 0
DWIDTH 7 0
BBX 6 1 0 7
BITMAP
FC
ENDCHAR
STARTCHAR equalsuperior
ENCODING 8316
SWIDTH 350 0
DWIDTH 7 0
BBX 6 3 0 6
BITMAP
FC
00
FC
ENDCHAR
STARTCHAR zeroinferior
ENCODING 8320
SWIDTH 350 0
DWIDTH 7 0
BBX 6 5 0 0
BITMAP
FC
CC
CC
CC
FC
ENDCHAR
STARTCHAR oneinferior
ENCODING 8321
SWIDTH 150 0
DWIDTH 3 0
BBX 2 5 0 0
BITMAP
C0
C0
C0
C0
C0
ENDCHAR
STARTCHAR twoinferior
ENCODING 8322
SWIDTH 350 0
DWIDTH 7 0
BBX 6 5 0 0
BITMAP
FC
0C
FC
C0
FC
ENDCHAR
STARTCHAR threeinferior
ENCODING 8323
SWIDTH 350 0
DWIDTH 7 0
BBX 6 5 0 0
BITMAP
FC
0C
FC
0C
FC
ENDCHAR
STARTCHAR fourinferior
ENCODING 8324
SWIDTH 350 0
DWIDTH 7 0
BBX 6 5 0 0
BITMAP
CC
CC
FC
0C
0C
ENDCHAR
STARTCHAR fiveinferior
ENCODING 8325
SWIDTH 350 0
DWIDTH 7 0
BBX 6 5 0 0
BITMAP
FC
C0
FC
0C
FC
ENDCHAR
STARTCHAR sixinferior
ENCODING 8326
SWIDTH 350 0
DWIDTH 7 0
BBX 6 5 0 0
BITMAP
FC
C0
FC
CC
FC
ENDCHAR
STARTCHAR seveninferior
ENCODING 8327
SWIDTH 350 0
DWIDTH 7 0
BBX 6 5 0 0
BITMAP
FC
0C
0C
0C
0C
ENDCHAR
STARTCHAR eightinferior
ENCODING 8328
SWIDTH 350 0
DWIDTH 7 0
BBX 6 5 0 0
BITMAP
FC
CC
FC
CC
FC
ENDCHAR
STARTCHAR nineinferior
ENCODING 8329
SWIDTH 350 0
DWIDTH 7 0
BBX 6 5 0 0
BITMAP
FC
CC
FC
0C
FC
ENDCHAR
STARTCHAR uni208A
ENCODING 8330
SWIDTH 350 0
DWIDTH 7 0
BBX 6 3 0 1
BITMAP
30
FC
30
ENDCHAR
STARTCHAR uni208B
ENCODING 8331
SWIDTH 350 0
DWIDTH 7 0
BBX 6 1 0 2
BITMAP
FC
ENDCHAR
STARTCHAR uni208C
ENCODING 8332
SWIDTH 350 0
DWIDTH 7 0
BBX 6 3 0 1
BITMAP
FC
00
FC
ENDCHAR
STARTCHAR parenleftinferior
ENCODING 8333
SWIDTH 150 0
DWIDTH 3 0
BBX 1 1 0 0
BITMAP
00
ENDCHAR
STARTCHAR afii57636
ENCODING 8362
SWIDTH 1000 0
DWIDTH 20 0
BBX 19 10 0 0
BITMAP
FFF1E0
FFF9E0
F03DE0
F7BDE0
F7BDE0
F7BDE0
F7BDE0
F781E0
F7FFC0
F7FF80
ENDCHAR
STARTCHAR Euro
ENCODING 8364
SWIDTH 600 0
DWIDTH 12 0
BBX 11 10 0 0
BITMAP
7FC0
FFE0
F1E0
F1E0
FE00
FE00
F1E0
F1E0
FFE0
7FC0
ENDCHAR
STARTCHAR afii61352
ENCODING 8470
SWIDTH 950 0
DWIDTH 19 0
BBX 18 10 0 0
BITMAP
F1EFC0
F9ECC0
FDECC0
FFECC0
FFEFC0
F7E000
F3EFC0
F1E000
F1E000
F1E000
ENDCHAR
STARTCHAR trademark
ENCODING 8482
SWIDTH 750 0
DWIDTH 15 0
BBX 14 5 0 5
BITMAP
FD8C
FDDC
31FC
31AC
318C
ENDCHAR
STARTCHAR summation
ENCODING 8721
SWIDTH 600 0
DWIDTH 12 0
BBX 1 1 0 0
BITMAP
00
ENDCHAR
STARTCHAR approxequal
ENCODING 8776
SWIDTH 600 0
DWIDTH 12 0
BBX 1 1 0 0
BITMAP
00
ENDCHAR
STARTCHAR notequal
ENCODING 8800
SWIDTH 600 0
DWIDTH 12 0
BBX 1 1 0 0
BITMAP
00
ENDCHAR
STARTCHAR .notdef
ENCODING -1
SWIDTH 250 0
DWIDTH 5 0
BBX 1 1 0 0
BITMAP
00
ENDCHAR
ENDFONT
